<?xml version="1.0" encoding="UTF-8"?>
<svg viewBox="0 0 1440 1024" version="1.1" xmlns="http://www.w3.org/2000/svg" xmlns:xlink="http://www.w3.org/1999/xlink">
    <!-- Generator: Sketch 53.2 (72643) - https://sketchapp.com -->
    <title>cover</title>
    <desc>Created with Sketch.</desc>
    <defs>
        <path d="M0,0 L1440,0 L1440,1025 L0,1025 L0,0 Z M535,344 L535,189 L140,189 L140,344 L268,344 L268,499 L373,499 L373,662 L843,662 L843,499 L1208,499 L1208,344 L535,344 Z" id="path-1"></path>
    </defs>
    <g id="cover" stroke="none" stroke-width="1" fill="none" fill-rule="evenodd" transform="translate(0.000000, 0.000000)">
        <g id="Ornaments" transform="translate(0.000000, -0.500000)">
            <mask id="mask-2" fill="white">
                <use xlink:href="#path-1"></use>
            </mask>
            <g id="Combined-Shape"></g>
            <g id="Group-2" mask="url(#mask-2)">
                <g transform="translate(-80.000000, 687.500000)" id="Group">
                    <g transform="translate(115.000000, 0.000000)">
                        <path d="M59.22,118.8 C26.82,118.8 2.84217094e-14,93.78 2.84217094e-14,59.4 C2.84217094e-14,25.02 27,5.68434189e-14 59.22,5.68434189e-14 C91.62,5.68434189e-14 118.62,25.02 118.62,59.4 C118.62,93.78 91.8,118.8 59.22,118.8 Z M59.22,100.44 C81.72,100.44 98.64,83.7 98.64,59.4 C98.64,35.1 81.72,18.36 59.22,18.36 C36.72,18.36 20.16,35.1 20.16,59.4 C20.16,83.7 36.72,100.44 59.22,100.44 Z M169,116.1 L169,2.7 L188.8,2.7 L188.8,116.1 L169,116.1 Z" id="OI" fill="#F1D67F" fill-rule="nonzero"></path>
                        <path d="M298.22,118.8 C265.82,118.8 239,93.78 239,59.4 C239,25.02 266,4.26325641e-14 298.22,4.26325641e-14 C330.62,4.26325641e-14 357.62,25.02 357.62,59.4 C357.62,93.78 330.8,118.8 298.22,118.8 Z M298.22,100.44 C320.72,100.44 337.64,83.7 337.64,59.4 C337.64,35.1 320.72,18.36 298.22,18.36 C275.72,18.36 259.16,35.1 259.16,59.4 C259.16,83.7 275.72,100.44 298.22,100.44 Z M404.74,116.1 L404.74,2.7 L424.54,2.7 L424.54,116.1 L404.74,116.1 Z" id="OI" fill="#F1D67F" fill-rule="nonzero"></path>
                        <path d="M535.22,118.8 C502.82,118.8 476,93.78 476,59.4 C476,25.02 503,1.56319402e-13 535.22,1.56319402e-13 C567.62,1.56319402e-13 594.62,25.02 594.62,59.4 C594.62,93.78 567.8,118.8 535.22,118.8 Z M535.22,100.44 C557.72,100.44 574.64,83.7 574.64,59.4 C574.64,35.1 557.72,18.36 535.22,18.36 C512.72,18.36 496.16,35.1 496.16,59.4 C496.16,83.7 512.72,100.44 535.22,100.44 Z M645,116.1 L645,2.7 L664.8,2.7 L664.8,116.1 L645,116.1 Z" id="OI" fill="#F1D67F" fill-rule="nonzero"></path>
                        <path d="M774.22,118.8 C741.82,118.8 715,93.78 715,59.4 C715,25.02 742,1.56319402e-13 774.22,1.56319402e-13 C806.62,1.56319402e-13 833.62,25.02 833.62,59.4 C833.62,93.78 806.8,118.8 774.22,118.8 Z M774.22,100.44 C796.72,100.44 813.64,83.7 813.64,59.4 C813.64,35.1 796.72,18.36 774.22,18.36 C751.72,18.36 735.16,35.1 735.16,59.4 C735.16,83.7 751.72,100.44 774.22,100.44 Z M880.74,116.1 L880.74,2.7 L900.54,2.7 L900.54,116.1 L880.74,116.1 Z" id="OI" fill="#F1D67F" fill-rule="nonzero"></path>
                        <path d="M59.22,118.8 C26.82,118.8 0,93.78 0,59.4 C0,25.02 27,4.26325641e-14 59.22,4.26325641e-14 C91.62,4.26325641e-14 118.62,25.02 118.62,59.4 C118.62,93.78 91.8,118.8 59.22,118.8 Z M59.22,100.44 C81.72,100.44 98.64,83.7 98.64,59.4 C98.64,35.1 81.72,18.36 59.22,18.36 C36.72,18.36 20.16,35.1 20.16,59.4 C20.16,83.7 36.72,100.44 59.22,100.44 Z M169,116.1 L169,2.7 L188.8,2.7 L188.8,116.1 L169,116.1 Z" id="OI" fill="#F1D67F" fill-rule="nonzero"></path>
                        <path d="M298.22,118.8 C265.82,118.8 239,93.78 239,59.4 C239,25.02 266,4.26325641e-14 298.22,4.26325641e-14 C330.62,4.26325641e-14 357.62,25.02 357.62,59.4 C357.62,93.78 330.8,118.8 298.22,118.8 Z M298.22,100.44 C320.72,100.44 337.64,83.7 337.64,59.4 C337.64,35.1 320.72,18.36 298.22,18.36 C275.72,18.36 259.16,35.1 259.16,59.4 C259.16,83.7 275.72,100.44 298.22,100.44 Z M404.74,116.1 L404.74,2.7 L424.54,2.7 L424.54,116.1 L404.74,116.1 Z" id="OI" fill="#F1D67F" fill-rule="nonzero"></path>
                    </g>
                    <g transform="translate(235.500000, 161.000000)">
                        <path d="M59.22,118.8 C26.82,118.8 2.84217094e-14,93.78 2.84217094e-14,59.4 C2.84217094e-14,25.02 27,5.68434189e-14 59.22,5.68434189e-14 C91.62,5.68434189e-14 118.62,25.02 118.62,59.4 C118.62,93.78 91.8,118.8 59.22,118.8 Z M59.22,100.44 C81.72,100.44 98.64,83.7 98.64,59.4 C98.64,35.1 81.72,18.36 59.22,18.36 C36.72,18.36 20.16,35.1 20.16,59.4 C20.16,83.7 36.72,100.44 59.22,100.44 Z M169,116.1 L169,2.7 L188.8,2.7 L188.8,116.1 L169,116.1 Z" id="OI" fill="#F1D67F" fill-rule="nonzero"></path>
                        <path d="M298.22,118.8 C265.82,118.8 239,93.78 239,59.4 C239,25.02 266,4.26325641e-14 298.22,4.26325641e-14 C330.62,4.26325641e-14 357.62,25.02 357.62,59.4 C357.62,93.78 330.8,118.8 298.22,118.8 Z M298.22,100.44 C320.72,100.44 337.64,83.7 337.64,59.4 C337.64,35.1 320.72,18.36 298.22,18.36 C275.72,18.36 259.16,35.1 259.16,59.4 C259.16,83.7 275.72,100.44 298.22,100.44 Z M404.74,116.1 L404.74,2.7 L424.54,2.7 L424.54,116.1 L404.74,116.1 Z" id="OI" fill="#D78F4F" fill-rule="nonzero"></path>
                        <path d="M535.22,118.8 C502.82,118.8 476,93.78 476,59.4 C476,25.02 503,1.56319402e-13 535.22,1.56319402e-13 C567.62,1.56319402e-13 594.62,25.02 594.62,59.4 C594.62,93.78 567.8,118.8 535.22,118.8 Z M535.22,100.44 C557.72,100.44 574.64,83.7 574.64,59.4 C574.64,35.1 557.72,18.36 535.22,18.36 C512.72,18.36 496.16,35.1 496.16,59.4 C496.16,83.7 512.72,100.44 535.22,100.44 Z M645,116.1 L645,2.7 L664.8,2.7 L664.8,116.1 L645,116.1 Z" id="OI" fill="#D78F4F" fill-rule="nonzero"></path>
                        <path d="M774.22,118.8 C741.82,118.8 715,93.78 715,59.4 C715,25.02 742,1.56319402e-13 774.22,1.56319402e-13 C806.62,1.56319402e-13 833.62,25.02 833.62,59.4 C833.62,93.78 806.8,118.8 774.22,118.8 Z M774.22,100.44 C796.72,100.44 813.64,83.7 813.64,59.4 C813.64,35.1 796.72,18.36 774.22,18.36 C751.72,18.36 735.16,35.1 735.16,59.4 C735.16,83.7 751.72,100.44 774.22,100.44 Z M880.74,116.1 L880.74,2.7 L900.54,2.7 L900.54,116.1 L880.74,116.1 Z" id="OI" fill="#F1D67F" fill-rule="nonzero"></path>
                        <path d="M59.22,118.8 C26.82,118.8 0,93.78 0,59.4 C0,25.02 27,4.26325641e-14 59.22,4.26325641e-14 C91.62,4.26325641e-14 118.62,25.02 118.62,59.4 C118.62,93.78 91.8,118.8 59.22,118.8 Z M59.22,100.44 C81.72,100.44 98.64,83.7 98.64,59.4 C98.64,35.1 81.72,18.36 59.22,18.36 C36.72,18.36 20.16,35.1 20.16,59.4 C20.16,83.7 36.72,100.44 59.22,100.44 Z M169,116.1 L169,2.7 L188.8,2.7 L188.8,116.1 L169,116.1 Z" id="OI" fill="#F1D67F" fill-rule="nonzero"></path>
                        <path d="M298.22,118.8 C265.82,118.8 239,93.78 239,59.4 C239,25.02 266,4.26325641e-14 298.22,4.26325641e-14 C330.62,4.26325641e-14 357.62,25.02 357.62,59.4 C357.62,93.78 330.8,118.8 298.22,118.8 Z M298.22,100.44 C320.72,100.44 337.64,83.7 337.64,59.4 C337.64,35.1 320.72,18.36 298.22,18.36 C275.72,18.36 259.16,35.1 259.16,59.4 C259.16,83.7 275.72,100.44 298.22,100.44 Z M404.74,116.1 L404.74,2.7 L424.54,2.7 L424.54,116.1 L404.74,116.1 Z" id="OI" fill="#D78F4F" fill-rule="nonzero"></path>
                    </g>
                    <g transform="translate(0.500000, 161.000000)">
                        <path d="M59.22,118.8 C26.82,118.8 0,93.78 0,59.4 C0,25.02 27,1.13686838e-13 59.22,1.13686838e-13 C91.62,1.13686838e-13 118.62,25.02 118.62,59.4 C118.62,93.78 91.8,118.8 59.22,118.8 Z M59.22,100.44 C81.72,100.44 98.64,83.7 98.64,59.4 C98.64,35.1 81.72,18.36 59.22,18.36 C36.72,18.36 20.16,35.1 20.16,59.4 C20.16,83.7 36.72,100.44 59.22,100.44 Z M165.74,116.1 L165.74,2.7 L185.54,2.7 L185.54,116.1 L165.74,116.1 Z" id="OI" fill="#F1D67F" fill-rule="nonzero"></path>
                    </g>
                    <g transform="translate(1068.000000, 1.000000)">
                        <path d="M59.22,118.8 C26.82,118.8 0,93.78 0,59.4 C0,25.02 27,4.26325641e-14 59.22,4.26325641e-14 C91.62,4.26325641e-14 118.62,25.02 118.62,59.4 C118.62,93.78 91.8,118.8 59.22,118.8 Z M59.22,100.44 C81.72,100.44 98.64,83.7 98.64,59.4 C98.64,35.1 81.72,18.36 59.22,18.36 C36.72,18.36 20.16,35.1 20.16,59.4 C20.16,83.7 36.72,100.44 59.22,100.44 Z M169,116.1 L169,2.7 L188.8,2.7 L188.8,116.1 L169,116.1 Z" id="OI" fill="#F1D67F" fill-rule="nonzero"></path>
                        <path d="M298.22,118.8 C265.82,118.8 239,93.78 239,59.4 C239,25.02 266,4.26325641e-14 298.22,4.26325641e-14 C330.62,4.26325641e-14 357.62,25.02 357.62,59.4 C357.62,93.78 330.8,118.8 298.22,118.8 Z M298.22,100.44 C320.72,100.44 337.64,83.7 337.64,59.4 C337.64,35.1 320.72,18.36 298.22,18.36 C275.72,18.36 259.16,35.1 259.16,59.4 C259.16,83.7 275.72,100.44 298.22,100.44 Z M404.74,116.1 L404.74,2.7 L424.54,2.7 L424.54,116.1 L404.74,116.1 Z" id="OI" fill="#EEEFF4" fill-rule="nonzero"></path>
                    </g>
                    <g transform="translate(1187.000000, 161.000000)">
                        <path d="M59.22,118.8 C26.82,118.8 2.84217094e-14,93.78 2.84217094e-14,59.4 C2.84217094e-14,25.02 27,5.68434189e-14 59.22,5.68434189e-14 C91.62,5.68434189e-14 118.62,25.02 118.62,59.4 C118.62,93.78 91.8,118.8 59.22,118.8 Z M59.22,100.44 C81.72,100.44 98.64,83.7 98.64,59.4 C98.64,35.1 81.72,18.36 59.22,18.36 C36.72,18.36 20.16,35.1 20.16,59.4 C20.16,83.7 36.72,100.44 59.22,100.44 Z M169,116.1 L169,2.7 L188.8,2.7 L188.8,116.1 L169,116.1 Z" id="OI" fill="#F1D67F" fill-rule="nonzero"></path>
                        <path d="M298.22,118.8 C265.82,118.8 239,93.78 239,59.4 C239,25.02 266,4.26325641e-14 298.22,4.26325641e-14 C330.62,4.26325641e-14 357.62,25.02 357.62,59.4 C357.62,93.78 330.8,118.8 298.22,118.8 Z M298.22,100.44 C320.72,100.44 337.64,83.7 337.64,59.4 C337.64,35.1 320.72,18.36 298.22,18.36 C275.72,18.36 259.16,35.1 259.16,59.4 C259.16,83.7 275.72,100.44 298.22,100.44 Z M404.74,116.1 L404.74,2.7 L424.54,2.7 L424.54,116.1 L404.74,116.1 Z" id="OI" fill="#F1D67F" fill-rule="nonzero"></path>
                        <path d="M59.22,118.8 C26.82,118.8 0,93.78 0,59.4 C0,25.02 27,4.26325641e-14 59.22,4.26325641e-14 C91.62,4.26325641e-14 118.62,25.02 118.62,59.4 C118.62,93.78 91.8,118.8 59.22,118.8 Z M59.22,100.44 C81.72,100.44 98.64,83.7 98.64,59.4 C98.64,35.1 81.72,18.36 59.22,18.36 C36.72,18.36 20.16,35.1 20.16,59.4 C20.16,83.7 36.72,100.44 59.22,100.44 Z M169,116.1 L169,2.7 L188.8,2.7 L188.8,116.1 L169,116.1 Z" id="OI" fill="#F1D67F" fill-rule="nonzero"></path>
                        <path d="M298.22,118.8 C265.82,118.8 239,93.78 239,59.4 C239,25.02 266,4.26325641e-14 298.22,4.26325641e-14 C330.62,4.26325641e-14 357.62,25.02 357.62,59.4 C357.62,93.78 330.8,118.8 298.22,118.8 Z M298.22,100.44 C320.72,100.44 337.64,83.7 337.64,59.4 C337.64,35.1 320.72,18.36 298.22,18.36 C275.72,18.36 259.16,35.1 259.16,59.4 C259.16,83.7 275.72,100.44 298.22,100.44 Z M404.74,116.1 L404.74,2.7 L424.54,2.7 L424.54,116.1 L404.74,116.1 Z" id="OI" fill="#F1D67F" fill-rule="nonzero"></path>
                    </g>
                    <g transform="translate(115.000000, 1.000000)">
                        <path d="M59.22,118.8 C26.82,118.8 2.84217094e-14,93.78 2.84217094e-14,59.4 C2.84217094e-14,25.02 27,5.68434189e-14 59.22,5.68434189e-14 C91.62,5.68434189e-14 118.62,25.02 118.62,59.4 C118.62,93.78 91.8,118.8 59.22,118.8 Z M59.22,100.44 C81.72,100.44 98.64,83.7 98.64,59.4 C98.64,35.1 81.72,18.36 59.22,18.36 C36.72,18.36 20.16,35.1 20.16,59.4 C20.16,83.7 36.72,100.44 59.22,100.44 Z M169,116.1 L169,2.7 L188.8,2.7 L188.8,116.1 L169,116.1 Z" id="OI" fill="#F1D67F" fill-rule="nonzero"></path>
                        <path d="M298.22,118.8 C265.82,118.8 239,93.78 239,59.4 C239,25.02 266,4.26325641e-14 298.22,4.26325641e-14 C330.62,4.26325641e-14 357.62,25.02 357.62,59.4 C357.62,93.78 330.8,118.8 298.22,118.8 Z M298.22,100.44 C320.72,100.44 337.64,83.7 337.64,59.4 C337.64,35.1 320.72,18.36 298.22,18.36 C275.72,18.36 259.16,35.1 259.16,59.4 C259.16,83.7 275.72,100.44 298.22,100.44 Z M404.74,116.1 L404.74,2.7 L424.54,2.7 L424.54,116.1 L404.74,116.1 Z" id="OI" fill="#F1D67F" fill-rule="nonzero"></path>
                        <path d="M535.22,118.8 C502.82,118.8 476,93.78 476,59.4 C476,25.02 503,1.56319402e-13 535.22,1.56319402e-13 C567.62,1.56319402e-13 594.62,25.02 594.62,59.4 C594.62,93.78 567.8,118.8 535.22,118.8 Z M535.22,100.44 C557.72,100.44 574.64,83.7 574.64,59.4 C574.64,35.1 557.72,18.36 535.22,18.36 C512.72,18.36 496.16,35.1 496.16,59.4 C496.16,83.7 512.72,100.44 535.22,100.44 Z M645,116.1 L645,2.7 L664.8,2.7 L664.8,116.1 L645,116.1 Z" id="OI" fill="#F1D67F" fill-rule="nonzero"></path>
                        <path d="M774.22,118.8 C741.82,118.8 715,93.78 715,59.4 C715,25.02 742,1.56319402e-13 774.22,1.56319402e-13 C806.62,1.56319402e-13 833.62,25.02 833.62,59.4 C833.62,93.78 806.8,118.8 774.22,118.8 Z M774.22,100.44 C796.72,100.44 813.64,83.7 813.64,59.4 C813.64,35.1 796.72,18.36 774.22,18.36 C751.72,18.36 735.16,35.1 735.16,59.4 C735.16,83.7 751.72,100.44 774.22,100.44 Z M880.74,116.1 L880.74,2.7 L900.54,2.7 L900.54,116.1 L880.74,116.1 Z" id="OI" fill="#F1D67F" fill-rule="nonzero"></path>
                        <path d="M59.22,118.8 C26.82,118.8 0,93.78 0,59.4 C0,25.02 27,4.26325641e-14 59.22,4.26325641e-14 C91.62,4.26325641e-14 118.62,25.02 118.62,59.4 C118.62,93.78 91.8,118.8 59.22,118.8 Z M59.22,100.44 C81.72,100.44 98.64,83.7 98.64,59.4 C98.64,35.1 81.72,18.36 59.22,18.36 C36.72,18.36 20.16,35.1 20.16,59.4 C20.16,83.7 36.72,100.44 59.22,100.44 Z M169,116.1 L169,2.7 L188.8,2.7 L188.8,116.1 L169,116.1 Z" id="OI" fill="#F1D67F" fill-rule="nonzero"></path>
                        <path d="M298.22,118.8 C265.82,118.8 239,93.78 239,59.4 C239,25.02 266,4.26325641e-14 298.22,4.26325641e-14 C330.62,4.26325641e-14 357.62,25.02 357.62,59.4 C357.62,93.78 330.8,118.8 298.22,118.8 Z M298.22,100.44 C320.72,100.44 337.64,83.7 337.64,59.4 C337.64,35.1 320.72,18.36 298.22,18.36 C275.72,18.36 259.16,35.1 259.16,59.4 C259.16,83.7 275.72,100.44 298.22,100.44 Z M404.74,116.1 L404.74,2.7 L424.54,2.7 L424.54,116.1 L404.74,116.1 Z" id="OI" fill="#F1D67F" fill-rule="nonzero"></path>
                    </g>
                </g>
            </g>
            <g id="Group-2" mask="url(#mask-2)">
                <g transform="translate(-205.000000, 365.000000)" id="Group">
                    <g transform="translate(120.500000, 160.000000)">
                        <path d="M59.22,118.8 C26.82,118.8 2.84217094e-14,93.78 2.84217094e-14,59.4 C2.84217094e-14,25.02 27,5.68434189e-14 59.22,5.68434189e-14 C91.62,5.68434189e-14 118.62,25.02 118.62,59.4 C118.62,93.78 91.8,118.8 59.22,118.8 Z M59.22,100.44 C81.72,100.44 98.64,83.7 98.64,59.4 C98.64,35.1 81.72,18.36 59.22,18.36 C36.72,18.36 20.16,35.1 20.16,59.4 C20.16,83.7 36.72,100.44 59.22,100.44 Z M169,116.1 L169,2.7 L188.8,2.7 L188.8,116.1 L169,116.1 Z" id="OI" fill="#F1D67F" fill-rule="nonzero"></path>
                        <path d="M298.22,118.8 C265.82,118.8 239,93.78 239,59.4 C239,25.02 266,4.26325641e-14 298.22,4.26325641e-14 C330.62,4.26325641e-14 357.62,25.02 357.62,59.4 C357.62,93.78 330.8,118.8 298.22,118.8 Z M298.22,100.44 C320.72,100.44 337.64,83.7 337.64,59.4 C337.64,35.1 320.72,18.36 298.22,18.36 C275.72,18.36 259.16,35.1 259.16,59.4 C259.16,83.7 275.72,100.44 298.22,100.44 Z M404.74,116.1 L404.74,2.7 L424.54,2.7 L424.54,116.1 L404.74,116.1 Z" id="OI" fill="#F1D67F" fill-rule="nonzero"></path>
                        <path d="M535.22,118.8 C502.82,118.8 476,93.78 476,59.4 C476,25.02 503,1.56319402e-13 535.22,1.56319402e-13 C567.62,1.56319402e-13 594.62,25.02 594.62,59.4 C594.62,93.78 567.8,118.8 535.22,118.8 Z M535.22,100.44 C557.72,100.44 574.64,83.7 574.64,59.4 C574.64,35.1 557.72,18.36 535.22,18.36 C512.72,18.36 496.16,35.1 496.16,59.4 C496.16,83.7 512.72,100.44 535.22,100.44 Z M645,116.1 L645,2.7 L664.8,2.7 L664.8,116.1 L645,116.1 Z" id="OI" fill="#F1D67F" fill-rule="nonzero"></path>
                        <path d="M774.22,118.8 C741.82,118.8 715,93.78 715,59.4 C715,25.02 742,1.56319402e-13 774.22,1.56319402e-13 C806.62,1.56319402e-13 833.62,25.02 833.62,59.4 C833.62,93.78 806.8,118.8 774.22,118.8 Z M774.22,100.44 C796.72,100.44 813.64,83.7 813.64,59.4 C813.64,35.1 796.72,18.36 774.22,18.36 C751.72,18.36 735.16,35.1 735.16,59.4 C735.16,83.7 751.72,100.44 774.22,100.44 Z M880.74,116.1 L880.74,2.7 L900.54,2.7 L900.54,116.1 L880.74,116.1 Z" id="OI" fill="#F1D67F" fill-rule="nonzero"></path>
                        <path d="M59.22,118.8 C26.82,118.8 0,93.78 0,59.4 C0,25.02 27,4.26325641e-14 59.22,4.26325641e-14 C91.62,4.26325641e-14 118.62,25.02 118.62,59.4 C118.62,93.78 91.8,118.8 59.22,118.8 Z M59.22,100.44 C81.72,100.44 98.64,83.7 98.64,59.4 C98.64,35.1 81.72,18.36 59.22,18.36 C36.72,18.36 20.16,35.1 20.16,59.4 C20.16,83.7 36.72,100.44 59.22,100.44 Z M169,116.1 L169,2.7 L188.8,2.7 L188.8,116.1 L169,116.1 Z" id="OI" fill="#EEEFF4" fill-rule="nonzero"></path>
                        <path d="M298.22,118.8 C265.82,118.8 239,93.78 239,59.4 C239,25.02 266,4.26325641e-14 298.22,4.26325641e-14 C330.62,4.26325641e-14 357.62,25.02 357.62,59.4 C357.62,93.78 330.8,118.8 298.22,118.8 Z M298.22,100.44 C320.72,100.44 337.64,83.7 337.64,59.4 C337.64,35.1 320.72,18.36 298.22,18.36 C275.72,18.36 259.16,35.1 259.16,59.4 C259.16,83.7 275.72,100.44 298.22,100.44 Z M404.74,116.1 L404.74,2.7 L424.54,2.7 L424.54,116.1 L404.74,116.1 Z" id="OI" fill="#F1D67F" fill-rule="nonzero"></path>
                    </g>
                    <g transform="translate(953.000000, 0.000000)">
                        <path d="M59.22,118.8 C26.82,118.8 2.84217094e-14,93.78 2.84217094e-14,59.4 C2.84217094e-14,25.02 27,5.68434189e-14 59.22,5.68434189e-14 C91.62,5.68434189e-14 118.62,25.02 118.62,59.4 C118.62,93.78 91.8,118.8 59.22,118.8 Z M59.22,100.44 C81.72,100.44 98.64,83.7 98.64,59.4 C98.64,35.1 81.72,18.36 59.22,18.36 C36.72,18.36 20.16,35.1 20.16,59.4 C20.16,83.7 36.72,100.44 59.22,100.44 Z M169,116.1 L169,2.7 L188.8,2.7 L188.8,116.1 L169,116.1 Z" id="OI" fill="#F1D67F" fill-rule="nonzero"></path>
                        <path d="M298.22,118.8 C265.82,118.8 239,93.78 239,59.4 C239,25.02 266,4.26325641e-14 298.22,4.26325641e-14 C330.62,4.26325641e-14 357.62,25.02 357.62,59.4 C357.62,93.78 330.8,118.8 298.22,118.8 Z M298.22,100.44 C320.72,100.44 337.64,83.7 337.64,59.4 C337.64,35.1 320.72,18.36 298.22,18.36 C275.72,18.36 259.16,35.1 259.16,59.4 C259.16,83.7 275.72,100.44 298.22,100.44 Z M404.74,116.1 L404.74,2.7 L424.54,2.7 L424.54,116.1 L404.74,116.1 Z" id="OI" fill="#F1D67F" fill-rule="nonzero"></path>
                        <path d="M535.22,118.8 C502.82,118.8 476,93.78 476,59.4 C476,25.02 503,1.56319402e-13 535.22,1.56319402e-13 C567.62,1.56319402e-13 594.62,25.02 594.62,59.4 C594.62,93.78 567.8,118.8 535.22,118.8 Z M535.22,100.44 C557.72,100.44 574.64,83.7 574.64,59.4 C574.64,35.1 557.72,18.36 535.22,18.36 C512.72,18.36 496.16,35.1 496.16,59.4 C496.16,83.7 512.72,100.44 535.22,100.44 Z M645,116.1 L645,2.7 L664.8,2.7 L664.8,116.1 L645,116.1 Z" id="OI" fill="#F1D67F" fill-rule="nonzero"></path>
                        <path d="M59.22,118.8 C26.82,118.8 0,93.78 0,59.4 C0,25.02 27,4.26325641e-14 59.22,4.26325641e-14 C91.62,4.26325641e-14 118.62,25.02 118.62,59.4 C118.62,93.78 91.8,118.8 59.22,118.8 Z M59.22,100.44 C81.72,100.44 98.64,83.7 98.64,59.4 C98.64,35.1 81.72,18.36 59.22,18.36 C36.72,18.36 20.16,35.1 20.16,59.4 C20.16,83.7 36.72,100.44 59.22,100.44 Z M169,116.1 L169,2.7 L188.8,2.7 L188.8,116.1 L169,116.1 Z" id="OI" fill="#F1D67F" fill-rule="nonzero"></path>
                        <path d="M298.22,118.8 C265.82,118.8 239,93.78 239,59.4 C239,25.02 266,4.26325641e-14 298.22,4.26325641e-14 C330.62,4.26325641e-14 357.62,25.02 357.62,59.4 C357.62,93.78 330.8,118.8 298.22,118.8 Z M298.22,100.44 C320.72,100.44 337.64,83.7 337.64,59.4 C337.64,35.1 320.72,18.36 298.22,18.36 C275.72,18.36 259.16,35.1 259.16,59.4 C259.16,83.7 275.72,100.44 298.22,100.44 Z M404.74,116.1 L404.74,2.7 L424.54,2.7 L424.54,116.1 L404.74,116.1 Z" id="OI" fill="#F1D67F" fill-rule="nonzero"></path>
                    </g>
                    <g transform="translate(1072.000000, 160.000000)">
                        <path d="M59.22,118.8 C26.82,118.8 2.84217094e-14,93.78 2.84217094e-14,59.4 C2.84217094e-14,25.02 27,5.68434189e-14 59.22,5.68434189e-14 C91.62,5.68434189e-14 118.62,25.02 118.62,59.4 C118.62,93.78 91.8,118.8 59.22,118.8 Z M59.22,100.44 C81.72,100.44 98.64,83.7 98.64,59.4 C98.64,35.1 81.72,18.36 59.22,18.36 C36.72,18.36 20.16,35.1 20.16,59.4 C20.16,83.7 36.72,100.44 59.22,100.44 Z M169,116.1 L169,2.7 L188.8,2.7 L188.8,116.1 L169,116.1 Z" id="OI" fill="#F1D67F" fill-rule="nonzero"></path>
                        <path d="M298.22,118.8 C265.82,118.8 239,93.78 239,59.4 C239,25.02 266,4.26325641e-14 298.22,4.26325641e-14 C330.62,4.26325641e-14 357.62,25.02 357.62,59.4 C357.62,93.78 330.8,118.8 298.22,118.8 Z M298.22,100.44 C320.72,100.44 337.64,83.7 337.64,59.4 C337.64,35.1 320.72,18.36 298.22,18.36 C275.72,18.36 259.16,35.1 259.16,59.4 C259.16,83.7 275.72,100.44 298.22,100.44 Z M404.74,116.1 L404.74,2.7 L424.54,2.7 L424.54,116.1 L404.74,116.1 Z" id="OI" fill="#F1D67F" fill-rule="nonzero"></path>
                        <path d="M535.22,118.8 C502.82,118.8 476,93.78 476,59.4 C476,25.02 503,1.56319402e-13 535.22,1.56319402e-13 C567.62,1.56319402e-13 594.62,25.02 594.62,59.4 C594.62,93.78 567.8,118.8 535.22,118.8 Z M535.22,100.44 C557.72,100.44 574.64,83.7 574.64,59.4 C574.64,35.1 557.72,18.36 535.22,18.36 C512.72,18.36 496.16,35.1 496.16,59.4 C496.16,83.7 512.72,100.44 535.22,100.44 Z M645,116.1 L645,2.7 L664.8,2.7 L664.8,116.1 L645,116.1 Z" id="OI" fill="#EEEFF4" fill-rule="nonzero"></path>
                        <path d="M59.22,118.8 C26.82,118.8 0,93.78 0,59.4 C0,25.02 27,4.26325641e-14 59.22,4.26325641e-14 C91.62,4.26325641e-14 118.62,25.02 118.62,59.4 C118.62,93.78 91.8,118.8 59.22,118.8 Z M59.22,100.44 C81.72,100.44 98.64,83.7 98.64,59.4 C98.64,35.1 81.72,18.36 59.22,18.36 C36.72,18.36 20.16,35.1 20.16,59.4 C20.16,83.7 36.72,100.44 59.22,100.44 Z M169,116.1 L169,2.7 L188.8,2.7 L188.8,116.1 L169,116.1 Z" id="OI" fill="#F1D67F" fill-rule="nonzero"></path>
                        <path d="M298.22,118.8 C265.82,118.8 239,93.78 239,59.4 C239,25.02 266,4.26325641e-14 298.22,4.26325641e-14 C330.62,4.26325641e-14 357.62,25.02 357.62,59.4 C357.62,93.78 330.8,118.8 298.22,118.8 Z M298.22,100.44 C320.72,100.44 337.64,83.7 337.64,59.4 C337.64,35.1 320.72,18.36 298.22,18.36 C275.72,18.36 259.16,35.1 259.16,59.4 C259.16,83.7 275.72,100.44 298.22,100.44 Z M404.74,116.1 L404.74,2.7 L424.54,2.7 L424.54,116.1 L404.74,116.1 Z" id="OI" fill="#F1D67F" fill-rule="nonzero"></path>
                    </g>
                    <g>
                        <path d="M298.22,118.8 C265.82,118.8 239,93.78 239,59.4 C239,25.02 266,4.26325641e-14 298.22,4.26325641e-14 C330.62,4.26325641e-14 357.62,25.02 357.62,59.4 C357.62,93.78 330.8,118.8 298.22,118.8 Z M298.22,100.44 C320.72,100.44 337.64,83.7 337.64,59.4 C337.64,35.1 320.72,18.36 298.22,18.36 C275.72,18.36 259.16,35.1 259.16,59.4 C259.16,83.7 275.72,100.44 298.22,100.44 Z M404.74,116.1 L404.74,2.7 L424.54,2.7 L424.54,116.1 L404.74,116.1 Z" id="OI" fill="#F1D67F" fill-rule="nonzero"></path>
                        <path d="M535.22,118.8 C502.82,118.8 476,93.78 476,59.4 C476,25.02 503,1.56319402e-13 535.22,1.56319402e-13 C567.62,1.56319402e-13 594.62,25.02 594.62,59.4 C594.62,93.78 567.8,118.8 535.22,118.8 Z M535.22,100.44 C557.72,100.44 574.64,83.7 574.64,59.4 C574.64,35.1 557.72,18.36 535.22,18.36 C512.72,18.36 496.16,35.1 496.16,59.4 C496.16,83.7 512.72,100.44 535.22,100.44 Z M645,116.1 L645,2.7 L664.8,2.7 L664.8,116.1 L645,116.1 Z" id="OI" fill="#F1D67F" fill-rule="nonzero"></path>
                        <path d="M774.22,118.8 C741.82,118.8 715,93.78 715,59.4 C715,25.02 742,1.56319402e-13 774.22,1.56319402e-13 C806.62,1.56319402e-13 833.62,25.02 833.62,59.4 C833.62,93.78 806.8,118.8 774.22,118.8 Z M774.22,100.44 C796.72,100.44 813.64,83.7 813.64,59.4 C813.64,35.1 796.72,18.36 774.22,18.36 C751.72,18.36 735.16,35.1 735.16,59.4 C735.16,83.7 751.72,100.44 774.22,100.44 Z M880.74,116.1 L880.74,2.7 L900.54,2.7 L900.54,116.1 L880.74,116.1 Z" id="OI" fill="#F1D67F" fill-rule="nonzero"></path>
                        <path d="M298.22,118.8 C265.82,118.8 239,93.78 239,59.4 C239,25.02 266,4.26325641e-14 298.22,4.26325641e-14 C330.62,4.26325641e-14 357.62,25.02 357.62,59.4 C357.62,93.78 330.8,118.8 298.22,118.8 Z M298.22,100.44 C320.72,100.44 337.64,83.7 337.64,59.4 C337.64,35.1 320.72,18.36 298.22,18.36 C275.72,18.36 259.16,35.1 259.16,59.4 C259.16,83.7 275.72,100.44 298.22,100.44 Z M404.74,116.1 L404.74,2.7 L424.54,2.7 L424.54,116.1 L404.74,116.1 Z" id="OI" fill="#F1D67F" fill-rule="nonzero"></path>
                    </g>
                </g>
            </g>
            <g id="Group-2" mask="url(#mask-2)">
                <g transform="translate(-210.000000, 45.000000)" id="Group">
                    <g transform="translate(120.500000, 160.000000)">
                        <path d="M59.22,118.8 C26.82,118.8 2.84217094e-14,93.78 2.84217094e-14,59.4 C2.84217094e-14,25.02 27,5.68434189e-14 59.22,5.68434189e-14 C91.62,5.68434189e-14 118.62,25.02 118.62,59.4 C118.62,93.78 91.8,118.8 59.22,118.8 Z M59.22,100.44 C81.72,100.44 98.64,83.7 98.64,59.4 C98.64,35.1 81.72,18.36 59.22,18.36 C36.72,18.36 20.16,35.1 20.16,59.4 C20.16,83.7 36.72,100.44 59.22,100.44 Z M169,116.1 L169,2.7 L188.8,2.7 L188.8,116.1 L169,116.1 Z" id="OI" fill="#F1D67F" fill-rule="nonzero"></path>
                        <path d="M298.22,118.8 C265.82,118.8 239,93.78 239,59.4 C239,25.02 266,4.26325641e-14 298.22,4.26325641e-14 C330.62,4.26325641e-14 357.62,25.02 357.62,59.4 C357.62,93.78 330.8,118.8 298.22,118.8 Z M298.22,100.44 C320.72,100.44 337.64,83.7 337.64,59.4 C337.64,35.1 320.72,18.36 298.22,18.36 C275.72,18.36 259.16,35.1 259.16,59.4 C259.16,83.7 275.72,100.44 298.22,100.44 Z M404.74,116.1 L404.74,2.7 L424.54,2.7 L424.54,116.1 L404.74,116.1 Z" id="OI" fill="#F1D67F" fill-rule="nonzero"></path>
                        <path d="M535.22,118.8 C502.82,118.8 476,93.78 476,59.4 C476,25.02 503,1.56319402e-13 535.22,1.56319402e-13 C567.62,1.56319402e-13 594.62,25.02 594.62,59.4 C594.62,93.78 567.8,118.8 535.22,118.8 Z M535.22,100.44 C557.72,100.44 574.64,83.7 574.64,59.4 C574.64,35.1 557.72,18.36 535.22,18.36 C512.72,18.36 496.16,35.1 496.16,59.4 C496.16,83.7 512.72,100.44 535.22,100.44 Z M645,116.1 L645,2.7 L664.8,2.7 L664.8,116.1 L645,116.1 Z" id="OI" fill="#F1D67F" fill-rule="nonzero"></path>
                        <path d="M774.22,118.8 C741.82,118.8 715,93.78 715,59.4 C715,25.02 742,1.56319402e-13 774.22,1.56319402e-13 C806.62,1.56319402e-13 833.62,25.02 833.62,59.4 C833.62,93.78 806.8,118.8 774.22,118.8 Z M774.22,100.44 C796.72,100.44 813.64,83.7 813.64,59.4 C813.64,35.1 796.72,18.36 774.22,18.36 C751.72,18.36 735.16,35.1 735.16,59.4 C735.16,83.7 751.72,100.44 774.22,100.44 Z M880.74,116.1 L880.74,2.7 L900.54,2.7 L900.54,116.1 L880.74,116.1 Z" id="OI" fill="#F1D67F" fill-rule="nonzero"></path>
                        <path d="M59.22,118.8 C26.82,118.8 0,93.78 0,59.4 C0,25.02 27,4.26325641e-14 59.22,4.26325641e-14 C91.62,4.26325641e-14 118.62,25.02 118.62,59.4 C118.62,93.78 91.8,118.8 59.22,118.8 Z M59.22,100.44 C81.72,100.44 98.64,83.7 98.64,59.4 C98.64,35.1 81.72,18.36 59.22,18.36 C36.72,18.36 20.16,35.1 20.16,59.4 C20.16,83.7 36.72,100.44 59.22,100.44 Z M169,116.1 L169,2.7 L188.8,2.7 L188.8,116.1 L169,116.1 Z" id="OI" fill="#F1D67F" fill-rule="nonzero"></path>
                        <path d="M298.22,118.8 C265.82,118.8 239,93.78 239,59.4 C239,25.02 266,4.26325641e-14 298.22,4.26325641e-14 C330.62,4.26325641e-14 357.62,25.02 357.62,59.4 C357.62,93.78 330.8,118.8 298.22,118.8 Z M298.22,100.44 C320.72,100.44 337.64,83.7 337.64,59.4 C337.64,35.1 320.72,18.36 298.22,18.36 C275.72,18.36 259.16,35.1 259.16,59.4 C259.16,83.7 275.72,100.44 298.22,100.44 Z M404.74,116.1 L404.74,2.7 L424.54,2.7 L424.54,116.1 L404.74,116.1 Z" id="OI" fill="#F1D67F" fill-rule="nonzero"></path>
                    </g>
                    <g transform="translate(953.000000, 0.000000)">
                        <path d="M59.22,118.8 C26.82,118.8 2.84217094e-14,93.78 2.84217094e-14,59.4 C2.84217094e-14,25.02 27,5.68434189e-14 59.22,5.68434189e-14 C91.62,5.68434189e-14 118.62,25.02 118.62,59.4 C118.62,93.78 91.8,118.8 59.22,118.8 Z M59.22,100.44 C81.72,100.44 98.64,83.7 98.64,59.4 C98.64,35.1 81.72,18.36 59.22,18.36 C36.72,18.36 20.16,35.1 20.16,59.4 C20.16,83.7 36.72,100.44 59.22,100.44 Z M169,116.1 L169,2.7 L188.8,2.7 L188.8,116.1 L169,116.1 Z" id="OI" fill="#F1D67F" fill-rule="nonzero"></path>
                        <path d="M298.22,118.8 C265.82,118.8 239,93.78 239,59.4 C239,25.02 266,4.26325641e-14 298.22,4.26325641e-14 C330.62,4.26325641e-14 357.62,25.02 357.62,59.4 C357.62,93.78 330.8,118.8 298.22,118.8 Z M298.22,100.44 C320.72,100.44 337.64,83.7 337.64,59.4 C337.64,35.1 320.72,18.36 298.22,18.36 C275.72,18.36 259.16,35.1 259.16,59.4 C259.16,83.7 275.72,100.44 298.22,100.44 Z M404.74,116.1 L404.74,2.7 L424.54,2.7 L424.54,116.1 L404.74,116.1 Z" id="OI" fill="#F1D67F" fill-rule="nonzero"></path>
                        <path d="M535.22,118.8 C502.82,118.8 476,93.78 476,59.4 C476,25.02 503,1.56319402e-13 535.22,1.56319402e-13 C567.62,1.56319402e-13 594.62,25.02 594.62,59.4 C594.62,93.78 567.8,118.8 535.22,118.8 Z M535.22,100.44 C557.72,100.44 574.64,83.7 574.64,59.4 C574.64,35.1 557.72,18.36 535.22,18.36 C512.72,18.36 496.16,35.1 496.16,59.4 C496.16,83.7 512.72,100.44 535.22,100.44 Z M645,116.1 L645,2.7 L664.8,2.7 L664.8,116.1 L645,116.1 Z" id="OI" fill="#9EB9D6" fill-rule="nonzero"></path>
                        <path d="M59.22,118.8 C26.82,118.8 0,93.78 0,59.4 C0,25.02 27,4.26325641e-14 59.22,4.26325641e-14 C91.62,4.26325641e-14 118.62,25.02 118.62,59.4 C118.62,93.78 91.8,118.8 59.22,118.8 Z M59.22,100.44 C81.72,100.44 98.64,83.7 98.64,59.4 C98.64,35.1 81.72,18.36 59.22,18.36 C36.72,18.36 20.16,35.1 20.16,59.4 C20.16,83.7 36.72,100.44 59.22,100.44 Z M169,116.1 L169,2.7 L188.8,2.7 L188.8,116.1 L169,116.1 Z" id="OI" fill="#F1D67F" fill-rule="nonzero"></path>
                        <path d="M298.22,118.8 C265.82,118.8 239,93.78 239,59.4 C239,25.02 266,4.26325641e-14 298.22,4.26325641e-14 C330.62,4.26325641e-14 357.62,25.02 357.62,59.4 C357.62,93.78 330.8,118.8 298.22,118.8 Z M298.22,100.44 C320.72,100.44 337.64,83.7 337.64,59.4 C337.64,35.1 320.72,18.36 298.22,18.36 C275.72,18.36 259.16,35.1 259.16,59.4 C259.16,83.7 275.72,100.44 298.22,100.44 Z M404.74,116.1 L404.74,2.7 L424.54,2.7 L424.54,116.1 L404.74,116.1 Z" id="OI" fill="#9EB9D6" fill-rule="nonzero"></path>
                    </g>
                    <g transform="translate(1072.000000, 160.000000)">
                        <path d="M59.22,118.8 C26.82,118.8 2.84217094e-14,93.78 2.84217094e-14,59.4 C2.84217094e-14,25.02 27,5.68434189e-14 59.22,5.68434189e-14 C91.62,5.68434189e-14 118.62,25.02 118.62,59.4 C118.62,93.78 91.8,118.8 59.22,118.8 Z M59.22,100.44 C81.72,100.44 98.64,83.7 98.64,59.4 C98.64,35.1 81.72,18.36 59.22,18.36 C36.72,18.36 20.16,35.1 20.16,59.4 C20.16,83.7 36.72,100.44 59.22,100.44 Z M169,116.1 L169,2.7 L188.8,2.7 L188.8,116.1 L169,116.1 Z" id="OI" fill="#F1D67F" fill-rule="nonzero"></path>
                        <path d="M298.22,118.8 C265.82,118.8 239,93.78 239,59.4 C239,25.02 266,4.26325641e-14 298.22,4.26325641e-14 C330.62,4.26325641e-14 357.62,25.02 357.62,59.4 C357.62,93.78 330.8,118.8 298.22,118.8 Z M298.22,100.44 C320.72,100.44 337.64,83.7 337.64,59.4 C337.64,35.1 320.72,18.36 298.22,18.36 C275.72,18.36 259.16,35.1 259.16,59.4 C259.16,83.7 275.72,100.44 298.22,100.44 Z M404.74,116.1 L404.74,2.7 L424.54,2.7 L424.54,116.1 L404.74,116.1 Z" id="OI" fill="#F1D67F" fill-rule="nonzero"></path>
                        <path d="M535.22,118.8 C502.82,118.8 476,93.78 476,59.4 C476,25.02 503,1.56319402e-13 535.22,1.56319402e-13 C567.62,1.56319402e-13 594.62,25.02 594.62,59.4 C594.62,93.78 567.8,118.8 535.22,118.8 Z M535.22,100.44 C557.72,100.44 574.64,83.7 574.64,59.4 C574.64,35.1 557.72,18.36 535.22,18.36 C512.72,18.36 496.16,35.1 496.16,59.4 C496.16,83.7 512.72,100.44 535.22,100.44 Z M645,116.1 L645,2.7 L664.8,2.7 L664.8,116.1 L645,116.1 Z" id="OI" fill="#F1D67F" fill-rule="nonzero"></path>
                        <path d="M59.22,118.8 C26.82,118.8 0,93.78 0,59.4 C0,25.02 27,4.26325641e-14 59.22,4.26325641e-14 C91.62,4.26325641e-14 118.62,25.02 118.62,59.4 C118.62,93.78 91.8,118.8 59.22,118.8 Z M59.22,100.44 C81.72,100.44 98.64,83.7 98.64,59.4 C98.64,35.1 81.72,18.36 59.22,18.36 C36.72,18.36 20.16,35.1 20.16,59.4 C20.16,83.7 36.72,100.44 59.22,100.44 Z M169,116.1 L169,2.7 L188.8,2.7 L188.8,116.1 L169,116.1 Z" id="OI" fill="#F1D67F" fill-rule="nonzero"></path>
                        <path d="M298.22,118.8 C265.82,118.8 239,93.78 239,59.4 C239,25.02 266,4.26325641e-14 298.22,4.26325641e-14 C330.62,4.26325641e-14 357.62,25.02 357.62,59.4 C357.62,93.78 330.8,118.8 298.22,118.8 Z M298.22,100.44 C320.72,100.44 337.64,83.7 337.64,59.4 C337.64,35.1 320.72,18.36 298.22,18.36 C275.72,18.36 259.16,35.1 259.16,59.4 C259.16,83.7 275.72,100.44 298.22,100.44 Z M404.74,116.1 L404.74,2.7 L424.54,2.7 L424.54,116.1 L404.74,116.1 Z" id="OI" fill="#F1D67F" fill-rule="nonzero"></path>
                    </g>
                    <g>
                        <path d="M298.22,118.8 C265.82,118.8 239,93.78 239,59.4 C239,25.02 266,4.26325641e-14 298.22,4.26325641e-14 C330.62,4.26325641e-14 357.62,25.02 357.62,59.4 C357.62,93.78 330.8,118.8 298.22,118.8 Z M298.22,100.44 C320.72,100.44 337.64,83.7 337.64,59.4 C337.64,35.1 320.72,18.36 298.22,18.36 C275.72,18.36 259.16,35.1 259.16,59.4 C259.16,83.7 275.72,100.44 298.22,100.44 Z M404.74,116.1 L404.74,2.7 L424.54,2.7 L424.54,116.1 L404.74,116.1 Z" id="OI" fill="#F1D67F" fill-rule="nonzero"></path>
                        <path d="M535.22,118.8 C502.82,118.8 476,93.78 476,59.4 C476,25.02 503,1.56319402e-13 535.22,1.56319402e-13 C567.62,1.56319402e-13 594.62,25.02 594.62,59.4 C594.62,93.78 567.8,118.8 535.22,118.8 Z M535.22,100.44 C557.72,100.44 574.64,83.7 574.64,59.4 C574.64,35.1 557.72,18.36 535.22,18.36 C512.72,18.36 496.16,35.1 496.16,59.4 C496.16,83.7 512.72,100.44 535.22,100.44 Z M645,116.1 L645,2.7 L664.8,2.7 L664.8,116.1 L645,116.1 Z" id="OI" fill="#F1D67F" fill-rule="nonzero"></path>
                        <path d="M774.22,118.8 C741.82,118.8 715,93.78 715,59.4 C715,25.02 742,1.56319402e-13 774.22,1.56319402e-13 C806.62,1.56319402e-13 833.62,25.02 833.62,59.4 C833.62,93.78 806.8,118.8 774.22,118.8 Z M774.22,100.44 C796.72,100.44 813.64,83.7 813.64,59.4 C813.64,35.1 796.72,18.36 774.22,18.36 C751.72,18.36 735.16,35.1 735.16,59.4 C735.16,83.7 751.72,100.44 774.22,100.44 Z M880.74,116.1 L880.74,2.7 L900.54,2.7 L900.54,116.1 L880.74,116.1 Z" id="OI" fill="#F1D67F" fill-rule="nonzero"></path>
                        <path d="M298.22,118.8 C265.82,118.8 239,93.78 239,59.4 C239,25.02 266,4.26325641e-14 298.22,4.26325641e-14 C330.62,4.26325641e-14 357.62,25.02 357.62,59.4 C357.62,93.78 330.8,118.8 298.22,118.8 Z M298.22,100.44 C320.72,100.44 337.64,83.7 337.64,59.4 C337.64,35.1 320.72,18.36 298.22,18.36 C275.72,18.36 259.16,35.1 259.16,59.4 C259.16,83.7 275.72,100.44 298.22,100.44 Z M404.74,116.1 L404.74,2.7 L424.54,2.7 L424.54,116.1 L404.74,116.1 Z" id="OI" fill="#F1D67F" fill-rule="nonzero"></path>
                    </g>
                </g>
            </g>
        </g>
        <path d="M307.88,478 L307.88,364.6 L337.4,364.6 L366.56,456.4 L395.72,364.6 L426.32,364.6 L426.32,478 L407.24,478 L407.24,386.38 L377.72,478 L355.22,478 L326.78,389.8 L326.78,478 L307.88,478 Z M525.3,478 L515.4,450.64 L468.96,450.64 L459.06,478 L438,478 L481.74,364.6 L502.98,364.6 L546.9,478 L525.3,478 Z M475.08,433.54 L509.1,433.54 L492,386.56 L475.08,433.54 Z M558.58,478 L558.58,364.6 L578.56,364.6 L578.56,478 L558.58,478 Z M578.56,419.32 L579.1,419.14 L622.3,364.6 L644.8,364.6 L602.5,418.78 L650.38,478 L625.72,478 L578.56,419.32 Z M659,478 L659,364.6 L678.8,364.6 L678.8,478 L659,478 Z M700.92,478 L700.92,364.6 L727.56,364.6 L773.82,454.24 L773.82,364.6 L793.44,364.6 L793.44,478 L765.54,478 L720.54,390.16 L720.54,478 L700.92,478 Z M866.5,416.08 L921.22,416.08 L921.22,427.42 C918.7,461.26 897.82,480.7 866.5,480.7 C835.36,480.7 808.18,459.28 808.18,421.3 C808.18,383.14 834.1,361.9 865.78,361.9 C888.82,361.9 911.86,373.24 918.16,402.58 L897.28,402.58 C893.86,388.36 880.72,380.08 865.06,380.08 C844.72,380.08 828.34,394.48 828.34,421.3 C828.34,449.02 845.44,462.52 867.22,462.52 C887.38,462.52 899.26,452.08 901.06,433.18 L866.5,433.18 L866.5,416.08 Z M1028.26,480.7 C995.86,480.7 969.04,455.68 969.04,421.3 C969.04,386.92 996.04,361.9 1028.26,361.9 C1060.66,361.9 1087.66,386.92 1087.66,421.3 C1087.66,455.68 1060.84,480.7 1028.26,480.7 Z M1028.26,462.34 C1050.76,462.34 1067.68,445.6 1067.68,421.3 C1067.68,397 1050.76,380.26 1028.26,380.26 C1005.76,380.26 989.2,397 989.2,421.3 C989.2,445.6 1005.76,462.34 1028.26,462.34 Z M1102.58,478 L1102.58,364.6 L1176.02,364.6 L1176.02,382.06 L1122.38,382.06 L1122.38,412.48 L1173.32,412.48 L1173.32,429.94 L1122.38,429.94 L1122.38,478 L1102.58,478 Z" id="MAKINGOF" fill="#141414" fill-rule="nonzero"></path>
        <path d="M207.72,318 L207.72,222.06 L172.62,222.06 L172.62,204.6 L262.8,204.6 L262.8,222.06 L227.7,222.06 L227.7,318 L207.72,318 Z M274.3,318 L274.3,204.6 L294.1,204.6 L294.1,252.3 L348.64,252.3 L348.64,204.6 L368.44,204.6 L368.44,318 L348.64,318 L348.64,270.12 L294.1,270.12 L294.1,318 L274.3,318 Z M390.2,318 L390.2,204.6 L463.82,204.6 L463.82,222.06 L410,222.06 L410,251.94 L461.12,251.94 L461.12,269.4 L410,269.4 L410,300.54 L463.82,300.54 L463.82,318 L390.2,318 Z" id="THE" fill="#141414" fill-rule="nonzero"></path>
        <path d="M501.78,526.6 L501.78,593.2 C501.78,624.34 484.68,642.7 454.98,642.7 C425.28,642.7 408.18,624.34 408.18,593.2 L408.18,526.6 L432.12,526.6 L432.12,592.48 C432.12,611.56 439.68,620.92 454.98,620.92 C470.28,620.92 477.84,611.56 477.84,592.48 L477.84,526.6 L501.78,526.6 Z M519.04,640 L519.04,526.6 L562.06,526.6 C591.22,526.6 605.44,540.46 605.44,562.06 C605.44,578.44 596.08,591.04 578.26,595.72 L608.86,640 L580.96,640 L553.06,597.52 L542.8,597.52 L542.8,640 L519.04,640 Z M562.6,546.4 L542.8,546.4 L542.8,577.72 L562.6,577.72 C575.02,577.72 581.32,572.14 581.32,562.06 C581.32,551.98 573.4,546.4 562.6,546.4 Z M675.44,642.7 C643.22,642.7 615.68,618.4 615.68,583.3 C615.68,548.2 643.4,523.9 675.44,523.9 C707.66,523.9 735.38,548.2 735.38,583.3 C735.38,605.98 723.68,624.34 706.76,634.24 L722.6,654.94 L695.06,654.94 L685.52,641.98 C682.28,642.34 678.86,642.7 675.44,642.7 Z M675.44,620.92 C695.6,620.92 711.44,605.8 711.44,583.3 C711.44,560.8 695.6,545.68 675.44,545.68 C655.46,545.68 639.62,560.8 639.62,583.3 C639.62,605.8 655.46,620.92 675.44,620.92 Z M747.6,640 L747.6,526.6 L771.36,526.6 L771.36,619.48 L823.74,619.48 L823.74,640 L747.6,640 Z" id="URQL" fill="#141414" fill-rule="nonzero"></path>
    </g>
</svg>