<?xml version="1.0" encoding="UTF-8"?>
<svg viewBox="0 0 1562 858" version="1.1" xmlns="http://www.w3.org/2000/svg" xmlns:xlink="http://www.w3.org/1999/xlink">
    <!-- Generator: Sketch 53.2 (72643) - https://sketchapp.com -->
    <title>diagram</title>
    <desc>Created with Sketch.</desc>
    <g id="diagram" stroke="none" stroke-width="1" fill="none" fill-rule="evenodd">
        <path d="M1108.51969,430.491107 C1107.95633,433.741734 1107.38184,438.154492 1106.73993,444.036502 C1106.09725,449.92551 1103.70033,474.83408 1103.19457,479.73282 C1101.45546,496.577554 1099.83227,508.837554 1097.88384,518.482443 C1094.99457,532.784559 1091.91012,540.386273 1085.35567,542.472219 C1081.70878,543.632839 1078.07289,542.752265 1075.30587,540.194354 C1073.3922,538.425307 1072.00746,536.01987 1070.84072,532.902703 C1069.17354,528.448521 1067.91619,522.524124 1066.38969,512.918696 C1065.91746,509.947258 1064.06049,497.56019 1063.57804,494.483635 C1062.37047,486.782991 1061.25169,480.471442 1059.97569,474.43126 C1057.1041,460.838124 1053.62589,449.748814 1049.12364,440.774777 C1044.9435,432.442796 1041.0174,427.104937 1037.6664,424.58012 C1035.72324,423.11605 1034.73485,422.966714 1033.90032,423.372281 C1031.08678,424.73961 1028.1954,431.491378 1028.1954,437.86 C1028.1954,439.92771 1028.21049,440.69159 1028.36669,447.482596 C1028.53088,454.621282 1028.58387,459.116199 1028.51193,463.978613 C1028.37449,473.268743 1027.75078,480.744081 1026.41002,486.651389 C1024.42651,495.390617 1020.81827,501.147296 1014.08393,502.360367 C1007.8361,503.485801 1002.98302,499.815584 997.585855,492.640339 C995.811292,490.281153 993.967915,487.515641 991.69074,483.865765 C990.45035,481.877659 986.150943,474.814123 985.762103,474.182 C977.160259,460.198272 971.429196,453.405708 966.721311,452.17835 C948.732173,447.488532 876.305519,449.849216 848.573698,456.861519 C837.942914,459.549632 826.68323,464.194286 804.609173,474.408525 C804.049669,474.667422 803.468898,474.936333 802.745136,475.271582 C786.912836,482.605169 780.970787,485.276004 773.173091,488.401628 C762.508912,492.67625 753.926281,495.289567 746.644766,496.228192 C732.401161,498.064265 720.616579,501.100368 699.903825,507.614782 C698.87597,507.938055 695.392376,509.036405 695.026747,509.151548 C693.093834,509.760258 691.603075,510.227431 690.154942,510.677317 C686.474721,511.820639 683.367406,512.758143 680.382825,513.617871 C656.004254,520.640281 637.490752,522.782547 616.716437,519.348456 C596.591425,516.021698 586.976958,514.774042 576.769284,514.474824 C564.5435,514.116448 553.660779,515.511284 541.753193,519.151508 C514.290571,527.547006 486.563447,533.757415 465.558958,536.070659 C443.095965,538.544529 425.45869,538.544529 402.436478,537.066802 C403.025908,537.104636 394.223739,536.524291 392.123355,536.40199 C388.739272,536.204944 386.222512,536.109723 384.082451,536.109723 C372.663473,536.109723 364.422494,537.30323 354.148707,540.04588 C351.984125,540.623728 339.37504,544.267997 335.121396,545.382581 C322.827091,548.604064 310.467585,550.883014 294.572421,552.520843 C278.021693,554.226221 268.664033,554.723764 242.812062,555.666691 C217.005133,556.607976 207.667664,557.864787 200.43711,562.106488 C195.553938,564.971131 190.02183,572.63673 177.699991,592.515679 C177.50049,592.837534 177.50049,592.837534 177.300853,593.159566 C169.645644,605.507443 165.883319,611.236616 161.50612,616.7504 C154.895958,625.07696 149.117822,629.594811 142.54,629.594811 C135.769553,629.594811 130.82374,626.087422 127.797977,620.137036 C125.902668,616.40977 125.0363,613.028628 123.546953,605.271675 C123.467783,604.85923 123.467783,604.85923 123.389033,604.449604 C121.744478,595.904043 120.493609,592.288983 118.579,590.693604 C117.281051,589.612067 113.827883,589.539743 107.886732,591.514242 C100.660849,593.915714 68.6130762,611.75271 56.7524967,619.536158 C53.7512028,621.505743 49.7215094,620.669377 47.7519246,617.668084 C45.7823399,614.66679 46.6187054,610.637096 49.6199993,608.667511 C76.6974467,590.898066 116.795327,572.285683 126.901,580.706396 C129.917454,583.219905 131.965013,586.652075 133.481343,591.034326 C134.512161,594.013432 135.152885,596.786713 136.154791,601.992891 C136.234648,602.40828 136.234648,602.40828 136.313761,602.820428 C138.449005,613.941405 139.798259,616.594811 142.54,616.594811 C143.794676,616.594811 147.054858,614.045716 151.324425,608.667511 C155.272251,603.694591 158.877756,598.20422 166.251927,586.309658 C166.451141,585.988307 166.451141,585.988307 166.650482,585.666712 C173.349482,574.859147 176.218116,570.387718 179.843384,565.364343 C184.967811,558.263647 189.382814,553.519508 193.859179,550.893512 C199.420134,547.631258 206.12915,545.679735 214.887523,544.50087 C221.637633,543.592314 228.44111,543.182215 242.338213,542.67533 C267.904361,541.742828 277.069182,541.255538 293.239963,539.589309 C308.4599,538.021055 320.164497,535.862863 331.826245,532.80713 C335.87835,531.745355 348.448903,528.112222 350.795699,527.485731 C362.113124,524.464476 371.46748,523.109723 384.082451,523.109723 C386.521184,523.109723 389.264905,523.213531 392.879033,523.423972 C395.037947,523.549681 403.908423,524.13453 403.269196,524.0935 C425.603291,525.527058 442.540908,525.527058 464.13586,523.148786 C484.248591,520.933752 511.21006,514.894837 537.952637,506.719462 C551.241171,502.657073 563.535469,501.081315 577.150191,501.480405 C588.127699,501.80219 598.145824,503.102228 618.836625,506.522514 C637.403934,509.591777 654.102322,507.659543 676.784406,501.125818 C681.800651,499.680856 681.745419,499.698014 696.003523,495.213667 C717.398432,488.484708 729.781686,485.294366 744.982751,483.334871 C755.882785,481.929801 767.455135,477.291148 797.281187,463.475597 C798.006369,463.13969 798.588587,462.870109 799.14987,462.610389 C821.99417,452.039739 833.685661,447.216963 845.386806,444.258197 C875.110311,436.742275 949.716222,434.31056 970.000831,439.598813 C975.437418,441.016146 980.329178,444.812374 985.289751,450.691739 C988.87867,454.945394 992.234756,459.892448 996.834908,467.37076 C997.257129,468.05715 1001.5252,475.069206 1002.72014,476.984467 C1004.81462,480.341506 1006.47051,482.825747 1007.97491,484.825765 C1009.50997,486.866542 1010.81668,488.294766 1011.84413,489.098621 C1012.52118,488.00883 1013.18174,486.200415 1013.73245,483.774012 C1014.82989,478.938775 1015.38817,472.247565 1015.51335,463.786307 C1015.58223,459.13057 1015.5308,454.766967 1015.37013,447.781523 C1015.21036,440.835278 1015.1954,440.078142 1015.1954,437.86 C1015.1954,427.036855 1020.07773,415.635946 1028.21803,411.679907 C1033.70372,409.01396 1039.84036,409.941138 1045.48931,414.197342 C1050.70096,418.124067 1055.74403,424.980532 1060.74329,434.945223 C1065.82221,445.068678 1069.61257,457.153193 1072.69497,471.744279 C1074.02503,478.040317 1075.1811,484.562274 1076.42109,492.469658 C1076.91339,495.609021 1078.7677,507.978317 1079.22857,510.87833 C1080.39029,518.188387 1081.37076,523.111919 1082.39783,526.503099 C1083.33423,523.850374 1084.25568,520.291902 1085.14126,515.908229 C1086.98536,506.779748 1088.56432,494.853841 1090.26331,478.397753 C1090.76105,473.576697 1093.16303,448.615498 1093.81666,442.626168 C1095.4072,428.05157 1096.51937,421.634257 1098.87961,418.382123 C1100.94307,415.538907 1104.06242,414.178067 1107.48963,414.303912 C1109.75588,414.387127 1112.02209,415.075219 1114.62908,416.274367 C1116.47865,417.125125 1118.44237,418.20234 1121.17535,419.818015 C1121.52371,420.023953 1126.57068,423.051311 1128.12457,423.954777 C1137.18575,429.223181 1143.69618,431.781131 1149.67208,431.850842 C1150.99713,431.866299 1152.26777,431.748991 1153.49303,431.495153 C1159.14998,430.323202 1161.35938,427.557631 1162.78738,421.306984 C1163.07838,420.033227 1163.13675,419.716164 1163.72853,416.338667 C1164.54073,411.703188 1165.13123,409.398378 1166.50291,406.920323 C1168.75814,402.846055 1172.58102,400.5 1177.50988,400.5 C1182.77724,400.5 1186.72137,403.850819 1190.79179,409.721149 C1193.14273,413.111644 1195.17444,416.738984 1198.74873,423.609071 C1202.78865,431.37415 1204.96304,435.338936 1206.62189,437.660314 C1206.81351,437.143819 1207.00827,436.5691 1207.20424,435.936519 C1210.34354,425.803033 1212.14556,409.483878 1213.47471,383.992219 C1213.63549,380.908758 1213.79133,377.685204 1213.96781,373.840934 C1214.07326,371.54396 1214.44213,363.3143 1214.41676,363.876516 C1215.85694,331.961501 1216.83358,321.842091 1220.59799,316.3329 C1223.14149,312.610496 1227.4908,311.305004 1231.56467,313.149645 C1233.89499,314.20481 1235.82002,316.081769 1237.80966,318.775209 C1240.56189,322.500997 1243.55204,328.031789 1247.16006,335.719773 C1248.24767,338.037257 1249.38367,340.534336 1250.65588,343.391783 C1251.1579,344.519351 1256.92576,357.68325 1258.35174,360.790894 C1258.54424,361.210413 1258.73053,361.613078 1258.91081,361.99925 C1259.29857,361.285795 1259.70838,360.59306 1260.15519,359.900742 C1262.18353,356.757956 1264.72527,354.082081 1267.96383,351.927917 C1274.97123,347.266862 1281.92534,346.724569 1288.25572,350.28353 C1292.81477,352.846642 1296.43465,356.962769 1301.08647,363.9039 C1303.76617,367.902364 1304.97544,372.835847 1307.26586,385.637954 C1307.31025,385.886059 1307.53147,387.124193 1307.59354,387.470953 C1308.98039,395.218834 1309.97003,399.856024 1310.9849,402.821998 C1315.02242,396.9416 1317.42455,384.787021 1319.02394,365.032409 C1319.19711,362.893539 1319.36471,360.65338 1319.55302,357.994818 C1319.62637,356.959195 1319.69975,355.905503 1319.79661,354.501385 C1319.82508,354.088704 1319.85644,353.633283 1319.91596,352.768982 C1319.96435,352.06651 1319.9998,351.553026 1320.03474,351.049086 C1320.85834,339.172406 1321.4183,333.236643 1322.39105,327.88484 C1323.04317,324.29704 1323.84235,321.436683 1324.92693,319.148243 C1326.59217,315.634666 1329.06642,313.146405 1332.74445,312.498548 C1337.90219,311.590051 1341.59488,314.577409 1344.99622,319.814038 C1347.17862,323.174009 1349.39583,327.821603 1351.74741,333.762611 C1354.27991,340.160663 1356.92093,347.932986 1359.84162,357.364976 C1360.45329,359.340303 1370.6797,394.211164 1371.61869,396.014009 C1372.98919,398.645337 1374.07126,399.372632 1374.87948,399.053424 C1378.85659,397.482666 1384.83512,388.563503 1391.49785,370.725622 C1401.98901,342.638026 1413.00917,291.477916 1424.44335,217.507043 C1424.99174,213.959327 1428.3123,211.527896 1431.86001,212.076291 C1435.40773,212.624686 1437.83916,215.94524 1437.29077,219.492957 C1425.72909,294.288602 1414.56251,346.128492 1403.67606,375.274378 C1395.81107,396.331017 1388.12347,407.799892 1379.65488,411.144562 C1375.08769,412.948373 1370.51666,412.32549 1366.68563,409.75052 C1363.9245,407.894657 1361.73212,405.17427 1360.08884,402.019212 C1358.93303,399.800094 1357.62265,395.722481 1354.87156,386.341577 C1354.43392,384.849265 1352.0934,376.81163 1351.38571,374.400948 C1349.91649,369.396092 1348.6625,365.21198 1347.42337,361.210382 C1344.59246,352.068309 1342.04863,344.582015 1339.65988,338.547126 C1338.12874,334.678884 1336.69477,331.503712 1335.39448,329.104236 C1335.32242,329.456699 1335.25135,329.825264 1335.18148,330.209637 C1334.32648,334.913663 1333.79199,340.579448 1333.0036,351.948424 C1332.96882,352.449998 1332.93349,352.961708 1332.88522,353.662365 C1332.82575,354.52613 1332.79432,354.982495 1332.76579,355.396085 C1332.66842,356.807452 1332.59454,357.868327 1332.52053,358.913301 C1332.32938,361.612035 1332.15867,363.893672 1331.98154,366.081493 C1330.14166,388.806486 1327.40744,402.375379 1321.24243,410.829763 C1317.99453,415.283779 1314.655,417.864795 1310.49742,418.024533 C1305.90263,418.20107 1302.6925,415.466778 1300.48051,411.264778 C1298.16014,406.856871 1296.92027,401.623938 1294.79693,389.76151 C1294.73441,389.412253 1294.51306,388.173384 1294.46905,387.927423 C1292.62886,377.641804 1291.46687,372.901232 1290.28738,371.141266 C1283.38206,360.837627 1280.48796,359.210554 1275.16365,362.752083 C1273.48713,363.867235 1272.17836,365.245079 1271.0779,366.950182 C1270.3775,368.035406 1269.78241,369.209698 1269.1298,370.732706 C1269.00243,371.029945 1268.87402,371.337013 1268.71558,371.721712 C1268.66291,371.849613 1268.38283,372.532842 1268.3032,372.725691 C1267.93117,373.626645 1267.66659,374.232227 1267.36826,374.83581 C1264.63498,380.365679 1259.01986,382.456146 1253.61352,378.029005 C1251.39796,376.21473 1249.68057,373.064963 1246.53626,366.212563 C1245.05485,362.984119 1239.24141,349.716188 1238.77976,348.67931 C1237.54012,345.894991 1236.43853,343.473558 1235.39161,341.242785 C1233.28986,336.764373 1231.4344,333.121866 1229.81814,330.335508 C1229.56584,332.072151 1229.31934,334.107294 1229.0979,336.401771 C1228.46631,342.945979 1228.03875,350.386067 1227.40354,364.462553 C1227.42921,363.893848 1227.05997,372.13183 1226.95414,374.437107 C1226.77652,378.306178 1226.61944,381.555306 1226.45708,384.669127 C1225.06981,411.275443 1223.19564,428.248006 1219.622,439.783481 C1217.83158,445.562842 1215.6472,449.356281 1212.24235,451.369386 C1207.79217,454.00054 1203.22068,452.707956 1199.51587,449.237937 C1195.85935,445.813145 1193.87162,442.401437 1187.21617,429.609087 C1183.89824,423.231726 1182.03965,419.913469 1180.10871,417.128694 C1179.13425,415.72334 1178.26578,414.669773 1177.5469,413.99 C1177.24708,414.867608 1176.93987,416.262762 1176.53346,418.582265 C1175.89105,422.248739 1175.82416,422.612089 1175.46086,424.202321 C1173.0049,434.952577 1167.47494,441.874565 1156.13024,444.224847 C1153.96897,444.672596 1151.76435,444.876133 1149.52044,444.849957 C1140.69299,444.746983 1132.45503,441.510284 1121.59025,435.193225 C1119.94408,434.2361 1114.8391,431.17395 1114.55966,431.008749 C1112.18122,429.602676 1110.54497,428.705095 1109.19655,428.084855 C1109.1301,428.054292 1109.06473,428.024595 1109.00045,427.995762 C1108.84417,428.713487 1108.68331,429.547014 1108.51969,430.491107 Z" id="Path-2" fill="#9EB9D6" fill-rule="nonzero"></path>
        <g id="Group" transform="translate(180.644755, 548.845323)">
            <path d="M30.722854,3 L50.722854,3 C55.141132,3 58.722854,6.581722 58.722854,11 L58.722854,84 L22.722854,84 L22.722854,11 C22.722854,6.581722 26.304576,3 30.722854,3 Z" id="Rectangle" fill="#9EB9D6" fill-rule="nonzero" transform="translate(40.722854, 43.500000) rotate(140.000000) translate(-40.722854, -43.500000) "></path>
            <text id="90k" transform="translate(40.500000, 43.870680) rotate(50.000000) translate(-40.500000, -43.870680) " font-family="PhantomSans0.5-Semibold, Phantom Sans0.5" font-size="26" font-weight="500" letter-spacing="0.236363634" fill="#141414">
                <tspan x="18.5264545" y="51.3706796">90k</tspan>
            </text>
        </g>
        <g id="Group" transform="translate(665.000000, 491.345323)">
            <path d="M30.7184667,2.53614859 L50.7184667,2.53614859 C55.1367447,2.53614859 58.7184667,6.11787059 58.7184667,10.5361486 L58.7184667,83.5361486 L58.8260855,86.3655671 L40.6850859,83.5361486 L22.7184667,75.0640552 L22.7184667,10.5361486 C22.7184667,6.11787059 26.3001887,2.53614859 30.7184667,2.53614859 Z" id="Rectangle" fill="#9EB9D6" fill-rule="nonzero" transform="translate(40.772276, 44.450858) rotate(140.000000) translate(-40.772276, -44.450858) "></path>
            <text id="190k" transform="translate(41.998351, 47.330833) rotate(50.000000) translate(-41.998351, -47.330833) " font-family="PhantomSans0.5-Semibold, Phantom Sans0.5" font-size="26" font-weight="500" letter-spacing="0.2363636" fill="#141414">
                <tspan x="13.8486239" y="54.8308333">190k</tspan>
            </text>
        </g>
        <g id="Group" transform="translate(1152.000000, 278.796945)">
            <path d="M37.7086916,0.0124144833 L57.732044,0.0124144833 C62.150322,0.0124144833 65.732044,3.59413648 65.732044,8.01241448 C65.732044,8.02418032 65.7320181,8.03594615 65.7319662,8.04771188 L65.4556424,70.674685 L47.7340388,81.0124145 L29.0061497,103.331444 L29.7089087,7.95347089 C29.7412929,3.55831379 33.3134152,0.0124144833 37.7086916,0.0124144833 Z" id="Rectangle" fill="#9EB9D6" fill-rule="nonzero" transform="translate(47.369097, 51.671929) scale(-1, -1) rotate(140.000000) translate(-47.369097, -51.671929) "></path>
            <text id="513k" transform="translate(37.962423, 41.568986) rotate(50.000000) translate(-37.962423, -41.568986) " font-family="PhantomSans0.5-Semibold, Phantom Sans0.5" font-size="26" font-weight="500" letter-spacing="0.2363636" fill="#141414">
                <tspan x="10.163696" y="49.0689865">513k</tspan>
            </text>
        </g>
        <g id="Group" transform="translate(1394.500000, 285.000000)">
            <path d="M37.8233496,-0.408127871 L57.654309,-0.408127871 C62.072587,-0.408127871 65.654309,3.17359413 65.654309,7.59187213 L65.654309,80.5918721 L65.7619277,83.4212906 L50.021396,88.1227173 L31.8572228,104.93671 L29.8250981,7.7591272 C29.7327257,3.34181492 33.2387822,-0.314006861 37.6560945,-0.406379289 C37.7118386,-0.407544979 37.7675933,-0.408127871 37.8233496,-0.408127871 Z" id="Rectangle" fill="#9EB9D6" fill-rule="nonzero" transform="translate(47.792621, 52.264291) rotate(140.000000) translate(-47.792621, -52.264291) "></path>
            <text id="694k" transform="translate(55.998351, 63.330833) rotate(50.000000) translate(-55.998351, -63.330833) " font-family="PhantomSans0.5-Semibold, Phantom Sans0.5" font-size="26" font-weight="500" letter-spacing="0.2363636" fill="#141414">
                <tspan x="26.7306239" y="70.8308333">694k</tspan>
            </text>
        </g>
        <path d="M1251.99929,648.566374 C1250.96583,650.944117 1250.03867,653.906097 1248.57904,659.24857 C1248.43965,659.758783 1247.77374,662.210962 1247.58635,662.895765 C1245.23492,671.488443 1243.61541,676.215356 1241.2007,680.343855 C1237.29185,687.026943 1231.54657,690.335661 1224.456,688.170955 C1217.71203,686.112066 1213.36693,681.95136 1209.33667,675.352211 C1208.65654,674.238561 1206.69667,670.8107 1206.47256,670.434269 C1204.17328,666.572161 1204.17625,666.573716 1201.53996,667.877903 C1199.58152,668.846759 1196.5435,673.331458 1193.15413,680.935941 C1190.26118,687.426648 1187.93187,693.796495 1182.81223,708.671914 L1182.75952,708.825074 C1173.8198,734.800065 1169.87291,744.480585 1163.97561,751.59011 C1156.42351,760.694592 1145.80872,765.853097 1132.05722,767.973117 C1121.24684,769.639716 1109.17428,769.48949 1091.65665,767.977783 C1080.62109,767.025455 1067.64482,763.21268 1046.80027,755.582455 C1045.07272,754.950082 1043.27556,754.286873 1041.0885,753.475713 C1023.01105,746.770977 1020.43083,745.835763 1013.77273,743.714273 C1005.00599,740.920903 998.603333,739.51896 994.338741,739.51896 C986.307884,739.51896 980.711379,740.650727 971.983521,743.469159 C971.457851,743.63891 969.599712,744.243799 969.23633,744.361414 C968.142275,744.715525 967.279171,744.989316 966.435546,745.247615 C960.350993,747.110563 955.587117,748 950.073255,748 C939.896871,748 628.497456,747.033615 55.5997489,745.099966 C52.2860592,745.088781 49.6088498,742.393438 49.6200342,739.079749 C49.6312186,735.766059 52.3265615,733.08885 55.6402511,733.100034 C628.350664,735.033051 939.920086,736 950.073255,736 C954.222453,736 957.881147,735.316906 962.922405,733.77339 C963.695425,733.536709 964.502427,733.280714 965.541054,732.944543 C965.890045,732.831586 967.753383,732.225005 968.29594,732.049801 C978.111537,728.880112 984.842334,727.51896 994.338741,727.51896 C1000.15845,727.51896 1007.55365,729.138233 1017.41585,732.280655 C1024.33721,734.486027 1026.94076,735.429695 1045.26141,742.224631 C1047.4338,743.030349 1049.21589,743.687999 1050.92523,744.313708 C1070.76799,751.57722 1083.07148,755.192314 1092.68837,756.022217 C1127.03539,758.986239 1144.48041,756.296802 1154.73953,743.928851 C1159.25502,738.485178 1163.14089,728.954338 1171.41273,704.919893 L1171.46545,704.766717 C1176.709,689.531276 1179.10255,682.985744 1182.19353,676.050729 C1186.69109,665.959885 1190.89315,659.756826 1196.219,657.122097 C1201.0695,654.722524 1205.5458,654.415023 1209.51479,656.49147 C1212.51143,658.059217 1214.46364,660.398817 1216.7836,664.295658 C1217.09497,664.818681 1219.00865,668.165748 1219.57782,669.097694 C1222.22162,673.426666 1224.54487,675.651319 1227.95987,676.693896 C1229.89178,677.283697 1232.36494,673.055273 1236.01191,659.728364 C1236.19538,659.057928 1236.86041,656.608956 1237.0033,656.085944 C1238.61227,650.196848 1239.65752,646.857623 1240.99386,643.783015 C1243.10447,638.926973 1245.63265,635.695125 1249.55016,634.359469 C1254.56645,632.649187 1258.88913,634.716738 1262.66339,639.011253 C1264.13898,640.690251 1265.55158,642.697599 1267.33779,645.53129 C1267.95941,646.517438 1270.90373,651.330161 1271.74132,652.651535 C1277.60634,661.904031 1282.03698,665.928604 1287.01731,665.928604 C1290.07978,665.928604 1293.71551,660.743857 1299.69656,647.05758 C1300.0179,646.32228 1301.12273,643.782226 1301.20372,643.596384 C1306.17566,632.188159 1309.10283,626.577937 1313.32385,621.733504 C1319.72203,614.39035 1327.75507,611.964755 1336.74528,615.943201 C1344.70883,619.467323 1348.89949,627.854053 1350.95502,640.586319 C1352.3674,649.334822 1352.7153,657.835063 1352.83668,676.15775 C1352.83983,676.63568 1352.83983,676.63568 1352.84296,677.113255 C1352.97334,697.026977 1353.34524,705.314976 1354.92176,713.311455 C1356.66561,722.156579 1359.31283,725.816432 1363.08155,726.007713 C1382.92112,727.014672 1487.23361,727.51896 1516.00874,727.51896 C1519.32245,727.51896 1522.00874,730.205252 1522.00874,733.51896 C1522.00874,736.832669 1519.32245,739.51896 1516.00874,739.51896 C1487.04512,739.51896 1382.53673,739.010609 1362.47328,737.992287 C1351.76823,737.448951 1345.83134,729.241062 1343.14839,715.632608 C1341.36673,706.595661 1340.97919,697.958779 1340.84322,677.191823 C1340.84009,676.714395 1340.84009,676.714395 1340.83694,676.23724 C1340.7199,658.568277 1340.38612,650.413207 1339.10841,642.498862 C1337.63856,633.394358 1335.11517,628.344332 1331.88915,626.916718 C1325.11115,623.917241 1320.62798,629.062543 1312.20439,648.390693 C1312.12705,648.568152 1311.0187,651.116285 1310.69243,651.86289 C1307.11934,660.039079 1304.87637,664.538132 1302.07555,668.53225 C1297.89603,674.49245 1293.06066,677.928604 1287.01731,677.928604 C1281.15685,677.928604 1275.96973,675.572853 1271.32041,671.349643 C1267.92191,668.262612 1265.02103,664.463567 1261.60602,659.07615 C1260.70269,657.651072 1257.74779,652.821047 1257.1863,651.930285 C1255.71163,649.590834 1254.61088,648.026631 1253.64971,646.932975 C1253.4601,646.717229 1253.28501,646.530468 1253.12673,646.371651 C1252.77797,646.917541 1252.39689,647.651586 1251.99929,648.566374 Z" id="Path-3" fill="#F1D67F" fill-rule="nonzero"></path>
        <g id="Group" transform="translate(180.644755, 714.667939)">
            <path d="M36.0489457,1.55969991 L56.2979819,1.55969991 C60.6758194,1.55969991 64.2405675,5.07854004 64.2973099,9.4560098 L65.4275234,96.6480204 L26.9623868,68.4713794 L28.0503027,9.41235831 C28.1306194,5.05225458 31.6881023,1.55969991 36.0489457,1.55969991 Z" id="Rectangle" fill="#F1D67F" fill-rule="nonzero" transform="translate(46.194955, 49.103860) rotate(140.000000) translate(-46.194955, -49.103860) "></path>
            <text id="25k" transform="translate(50.500000, 54.870680) rotate(50.000000) translate(-50.500000, -54.870680) " font-family="PhantomSans0.5-Semibold, Phantom Sans0.5" font-size="26" font-weight="500" letter-spacing="0.2363636" fill="#141414">
                <tspan x="29.1634546" y="62.3706796">25k</tspan>
            </text>
        </g>
        <g id="Group" transform="translate(1110.000000, 611.845323)">
            <path d="M34.8618186,1.06809403 L54.7574477,1.06809403 C59.1757257,1.06809403 62.7574477,4.64981604 62.7574477,9.06809403 L62.7574477,82.068094 L27.990016,96.1564146 L26.8624906,9.17178414 C26.8052241,4.75387728 30.3402216,1.12603251 34.7581285,1.06876604 C34.79269,1.06831804 34.8272541,1.06809403 34.8618186,1.06809403 Z" id="Rectangle" fill="#F1D67F" fill-rule="nonzero" transform="translate(44.809626, 48.612254) scale(-1, -1) rotate(140.000000) translate(-44.809626, -48.612254) "></path>
            <text id="130k" transform="translate(44.809626, 48.612254) rotate(50.000000) translate(-44.809626, -48.612254) " font-family="PhantomSans0.5-Semibold, Phantom Sans0.5" font-size="26" font-weight="500" letter-spacing="0.2363636" fill="#141414">
                <tspan x="16.7638989" y="56.1122543">130k</tspan>
            </text>
        </g>
        <g id="Group" transform="translate(1375.000000, 713.667939)">
            <path d="M35.4320843,1.0841342 L55.445943,1.0841342 C59.8450106,1.0841342 63.4187251,4.63592767 63.4457915,9.03491207 L63.9866521,96.9384992 L27.6963919,69.2813889 L27.4321614,9.11926965 C27.4127567,4.70103427 30.9787134,1.10361613 35.3969488,1.08421136 C35.4086606,1.08415992 35.4203724,1.0841342 35.4320843,1.0841342 Z" id="Rectangle" fill="#F1D67F" fill-rule="nonzero" transform="translate(45.709367, 49.011317) rotate(140.000000) translate(-45.709367, -49.011317) "></path>
            <text id="38k" transform="translate(49.529927, 53.936609) rotate(50.000000) translate(-49.529927, -53.936609) " font-family="PhantomSans0.5-Semibold, Phantom Sans0.5" font-size="26" font-weight="500" letter-spacing="0.2363636" fill="#141414">
                <tspan x="27.6733819" y="61.4366087">38k</tspan>
            </text>
        </g>
        <text id="Weekly-downloads-ove" font-family="PhantomSans0.5-Book, Phantom Sans0.5" font-size="64" font-weight="300" line-spacing="53" letter-spacing="0.581818163" fill="#141414" fill-opacity="0.9">
            <tspan x="73" y="166.999079">Weekly downloads </tspan>
            <tspan x="73" y="219.999079">over 2 years.</tspan>
        </text>
        <text id="react-apollo" transform="translate(481.515215, 566.726585) rotate(-6.000000) translate(-481.515215, -566.726585) " font-family="PhantomSans0.5-Medium, Phantom Sans0.5" font-size="52" font-weight="400" letter-spacing="0.4727273" fill="#141414" fill-opacity="0.9">
            <tspan x="300.015215" y="582.226585">react-apollo</tspan>
        </text>
        <text id="react-relay" font-family="PhantomSans0.5-Medium, Phantom Sans0.5" font-size="52" font-weight="400" letter-spacing="0.472727299" fill="#141414" fill-opacity="0.9">
            <tspan x="304" y="717.105157">react-relay</tspan>
        </text>
    </g>
</svg>