<?xml version="1.0" encoding="UTF-8"?>
<svg viewBox="0 0 1897 703" version="1.1" xmlns="http://www.w3.org/2000/svg" xmlns:xlink="http://www.w3.org/1999/xlink">
    <!-- Generator: Sketch 53.2 (72643) - https://sketchapp.com -->
    <title>exchange-chain</title>
    <desc>Created with Sketch.</desc>
    <defs>
        <linearGradient x1="50.1841971%" y1="89.5933884%" x2="48.11619%" y2="12.9220782%" id="linearGradient-1">
            <stop stop-color="#797585" offset="4.83871%"></stop>
            <stop stop-color="#95919F" offset="100%"></stop>
        </linearGradient>
        <linearGradient x1="50.8421765%" y1="57.7216725%" x2="44.5007782%" y2="-1.17144778%" id="linearGradient-2">
            <stop stop-color="#282530" offset="0.806452%"></stop>
            <stop stop-color="#3A3842" offset="93.75%"></stop>
        </linearGradient>
    </defs>
    <g id="exchange-chain" stroke="none" stroke-width="1" fill="none" fill-rule="evenodd">
        <g id="Group-2" transform="translate(60.966844, 54.000000)">
            <g id="Group" transform="translate(826.033156, 0.000000)">
                <g id="conveyor">
                    <g id="Conveyor" transform="translate(504.000000, 71.000000)" stroke="#282530" stroke-linecap="round" stroke-linejoin="round">
                        <polygon id="Path" stroke-width="4" fill="#F0EFF4" points="269.11 27.303 105.764 68.916 0.703 42.415 165.176 0.534"></polygon>
                        <polygon id="Path" stroke-width="3" fill="#282530" points="106.387 68.789 107.037 76.815 269.05 33.806 269.05 27.909"></polygon>
                    </g>
                    <g id="Conveyor_2" transform="translate(339.000000, 113.000000)">
                        <polygon id="Path" stroke="#282530" stroke-width="4" fill="#F0EFF4" stroke-linecap="round" stroke-linejoin="round" points="269.337 27.383 105.992 68.997 0.931 42.495 165.404 0.614"></polygon>
                        <polygon id="Path" stroke="#282530" stroke-width="3" fill="#282530" stroke-linecap="round" stroke-linejoin="round" points="108.594 68.316 108.594 75.222 270.809 35.11 270.809 27.898"></polygon>
                        <path d="M269.489,30.916 C269.265,28.93 270.191,27.196 271.557,27.041 C272.924,26.887 274.213,28.371 274.437,30.357 C274.662,32.342 273.736,34.077 272.369,34.231 C271.003,34.386 269.713,32.901 269.489,30.916 Z" id="Path" fill="#F0EFF4"></path>
                    </g>
                    <g id="Layer-1" transform="translate(152.000000, 0.000000)">
                        <polygon id="Path" stroke="#282530" stroke-width="6" fill="url(#linearGradient-1)" stroke-linecap="round" stroke-linejoin="round" points="138.278 77.753 296.103 41.205 296.103 217.858 138.278 254.406"></polygon>
                        <polygon id="Path" stroke="#282530" stroke-width="6" fill="#EBE9F0" stroke-linecap="round" stroke-linejoin="round" points="138.832 254.96 0.389 215.089 0.389 38.989 138.278 77.602"></polygon>
                        <polygon id="Path" stroke="#282530" stroke-width="6" fill="#EBE9F0" stroke-linecap="round" stroke-linejoin="round" points="138.832 254.96 0.389 215.089 0.389 38.989 138.278 77.602"></polygon>
                        <polygon id="Path" stroke="#282530" stroke-width="6" fill="#F0EEF3" stroke-linecap="round" stroke-linejoin="round" points="293.793 41.205 159.322 0.399 0.139 38.989 138.278 77.954"></polygon>
                        <path d="M14.113,219.118 C14.113,219.118 14.09,125.865 14.113,105.56 C14.126,94.154 19.417,91.921 27.902,93.818 C49.017,98.539 80.409,107 105.867,112.53 C116.63,114.868 121.721,122.659 121.766,131.937 C121.89,157.934 121.766,250.497 121.766,250.497 L14.113,219.118 Z" id="Path" fill="url(#linearGradient-2)"></path>
                        <polygon id="Path" stroke="#282530" stroke-width="4" fill="#F0EFF4" stroke-linecap="round" stroke-linejoin="round" points="119.163 226.022 15.181 197.727 119.163 171.857"></polygon>
                    </g>
                    <g id="Conveyor_3" transform="translate(0.000000, 197.000000)" stroke="#282530" stroke-linecap="round" stroke-linejoin="round">
                        <polygon id="Path" stroke-width="4" fill="#F0EFF4" points="270.036 27.497 106.691 69.11 1.63 42.608 166.103 0.727"></polygon>
                        <polygon id="Path" stroke-width="3" fill="#282530" points="106.4 69.11 106.4 76.346 263.738 34.919 263.738 29.022"></polygon>
                        <polygon id="Path" stroke-width="3" fill="#282530" points="106.84 76.346 0.911 50.364 0.911 42.505 106.966 68.924"></polygon>
                    </g>
                </g>
                <g id="conveyor" transform="translate(171.033156, 53.000000)">
                    <g id="Conveyor" transform="translate(504.000000, 71.000000)" stroke="#282530" stroke-linecap="round" stroke-linejoin="round">
                        <polygon id="Path" stroke-width="4" fill="#F0EFF4" points="269.11 27.303 105.764 68.916 0.703 42.415 165.176 0.534"></polygon>
                        <polygon id="Path" stroke-width="3" fill="#282530" points="106.387 68.789 107.037 76.815 269.05 33.806 269.05 27.909"></polygon>
                    </g>
                    <g id="Conveyor_2" transform="translate(339.000000, 113.000000)">
                        <polygon id="Path" stroke="#282530" stroke-width="4" fill="#F0EFF4" stroke-linecap="round" stroke-linejoin="round" points="269.337 27.383 105.992 68.997 0.931 42.495 165.404 0.614"></polygon>
                        <polygon id="Path" stroke="#282530" stroke-width="3" fill="#282530" stroke-linecap="round" stroke-linejoin="round" points="108.594 68.316 108.594 75.222 270.809 35.11 270.809 27.898"></polygon>
                        <path d="M269.489,30.916 C269.265,28.93 270.191,27.196 271.557,27.041 C272.924,26.887 274.213,28.371 274.437,30.357 C274.662,32.342 273.736,34.077 272.369,34.231 C271.003,34.386 269.713,32.901 269.489,30.916 Z" id="Path" fill="#F0EFF4"></path>
                    </g>
                    <g id="Layer-1" transform="translate(152.000000, 0.000000)">
                        <polygon id="Path" stroke="#282530" stroke-width="6" fill="url(#linearGradient-1)" stroke-linecap="round" stroke-linejoin="round" points="138.278 77.753 296.103 41.205 296.103 217.858 138.278 254.406"></polygon>
                        <polygon id="Path" stroke="#282530" stroke-width="6" fill="#EBE9F0" stroke-linecap="round" stroke-linejoin="round" points="138.832 254.96 0.389 215.089 0.389 38.989 138.278 77.602"></polygon>
                        <polygon id="Path" stroke="#282530" stroke-width="6" fill="#EBE9F0" stroke-linecap="round" stroke-linejoin="round" points="138.832 254.96 0.389 215.089 0.389 38.989 138.278 77.602"></polygon>
                        <polygon id="Path" stroke="#282530" stroke-width="6" fill="#F0EEF3" stroke-linecap="round" stroke-linejoin="round" points="293.793 41.205 159.322 0.399 0.139 38.989 138.278 77.954"></polygon>
                        <path d="M14.113,219.118 C14.113,219.118 14.09,125.865 14.113,105.56 C14.126,94.154 19.417,91.921 27.902,93.818 C49.017,98.539 80.409,107 105.867,112.53 C116.63,114.868 121.721,122.659 121.766,131.937 C121.89,157.934 121.766,250.497 121.766,250.497 L14.113,219.118 Z" id="Path" fill="url(#linearGradient-2)"></path>
                        <polygon id="Path" stroke="#282530" stroke-width="4" fill="#F0EFF4" stroke-linecap="round" stroke-linejoin="round" points="119.163 226.022 15.181 197.727 119.163 171.857"></polygon>
                    </g>
                    <g id="Conveyor_3" transform="translate(0.000000, 197.000000)" stroke="#282530" stroke-linecap="round" stroke-linejoin="round">
                        <polygon id="Path" stroke-width="4" fill="#F0EFF4" points="270.036 27.497 106.691 69.11 1.63 42.608 166.103 0.727"></polygon>
                        <polygon id="Path" stroke-width="3" fill="#282530" points="106.4 69.11 106.4 76.346 263.738 34.919 263.738 29.022"></polygon>
                        <polygon id="Path" stroke-width="3" fill="#282530" points="106.84 76.346 0.911 50.364 0.911 42.505 106.966 68.924"></polygon>
                    </g>
                </g>
            </g>
            <path id="Line" d="M887.160634,178.877637 C886.906203,180.166392 885.933346,181.25767 884.574521,181.597376 L872.932811,184.507804 C871.057529,184.976624 869.157258,183.836462 868.688437,181.96118 C868.219617,180.085898 869.359779,178.185627 871.235061,177.716806 L882.876771,174.806379 C884.235597,174.466672 885.607542,174.97175 886.438514,175.989154 L882.634362,160.772549 C882.322745,159.52608 883.080592,158.263001 884.327062,157.951384 C884.67744,157.863789 885.0434,157.858975 885.39596,157.937322 L922.882308,166.267621 C924.136544,166.54634 924.927356,167.789045 924.648637,169.043281 C924.539443,169.534657 924.27382,169.977361 923.891639,170.304945 L894.735591,195.295843 C893.760074,196.132 892.291423,196.019027 891.455265,195.043511 C891.220225,194.769297 891.052256,194.444125 890.964662,194.093747 L887.160634,178.877637 Z M663.382031,236.895499 C661.506749,237.364319 659.606478,236.224157 659.137657,234.348875 C658.668837,232.473593 659.808999,230.573322 661.684281,230.104501 L673.325991,227.194074 C675.201274,226.725253 677.101544,227.865416 677.570365,229.740698 C678.039185,231.61598 676.899023,233.516251 675.023741,233.985071 L663.382031,236.895499 Z M686.665451,231.074644 C684.790169,231.543464 682.889898,230.403302 682.421077,228.52802 C681.952257,226.652738 683.092419,224.752467 684.967701,224.283646 L696.609411,221.373219 C698.484694,220.904398 700.384964,222.044561 700.853785,223.919843 C701.322605,225.795125 700.182443,227.695396 698.307161,228.164216 L686.665451,231.074644 Z M709.948871,225.253789 C708.073589,225.722609 706.173318,224.582447 705.704497,222.707165 C705.235677,220.831883 706.375839,218.931612 708.251121,218.462791 L719.892831,215.552364 C721.768114,215.083543 723.668384,216.223706 724.137205,218.098988 C724.606025,219.97427 723.465863,221.874541 721.590581,222.343361 L709.948871,225.253789 Z M733.232291,219.432934 C731.357009,219.901754 729.456738,218.761592 728.987917,216.88631 C728.519097,215.011028 729.659259,213.110757 731.534541,212.641936 L743.176251,209.731509 C745.051534,209.262688 746.951804,210.402851 747.420625,212.278133 C747.889445,214.153415 746.749283,216.053686 744.874001,216.522506 L733.232291,219.432934 Z M756.515711,213.612079 C754.640429,214.080899 752.740158,212.940737 752.271337,211.065455 C751.802517,209.190173 752.942679,207.289902 754.817961,206.821081 L766.459671,203.910654 C768.334954,203.441833 770.235224,204.581996 770.704045,206.457278 C771.172865,208.33256 770.032703,210.232831 768.157421,210.701651 L756.515711,213.612079 Z M779.799131,207.791224 C777.923849,208.260044 776.023578,207.119882 775.554757,205.2446 C775.085937,203.369318 776.226099,201.469047 778.101381,201.000226 L789.743091,198.089799 C791.618374,197.620978 793.518644,198.761141 793.987465,200.636423 C794.456285,202.511705 793.316123,204.411976 791.440841,204.880796 L779.799131,207.791224 Z M803.082551,201.970369 C801.207269,202.439189 799.306998,201.299027 798.838177,199.423745 C798.369357,197.548463 799.509519,195.648192 801.384801,195.179371 L813.026511,192.268944 C814.901794,191.800123 816.802064,192.940286 817.270885,194.815568 C817.739705,196.69085 816.599543,198.591121 814.724261,199.059941 L803.082551,201.970369 Z M826.365971,196.149514 C824.490689,196.618334 822.590418,195.478172 822.121597,193.60289 C821.652777,191.727608 822.792939,189.827337 824.668221,189.358516 L836.309931,186.448089 C838.185214,185.979268 840.085484,187.119431 840.554305,188.994713 C841.023125,190.869995 839.882963,192.770266 838.007681,193.239086 L826.365971,196.149514 Z M849.649391,190.328659 C847.774109,190.797479 845.873838,189.657317 845.405017,187.782035 C844.936197,185.906753 846.076359,184.006482 847.951641,183.537661 L859.593351,180.627234 C861.468634,180.158413 863.368904,181.298576 863.837725,183.173858 C864.306545,185.04914 863.166383,186.949411 861.291101,187.418231 L849.649391,190.328659 Z" fill="#282530" fill-rule="nonzero"></path>
            <g id="Group" transform="translate(0.000000, 166.000000)">
                <g id="conveyor">
                    <g id="Conveyor" transform="translate(666.000000, 71.000000)" stroke="#282530" stroke-linecap="round" stroke-linejoin="round">
                        <polygon id="Path" stroke-width="4" fill="#F0EFF4" points="269.11 27.303 105.764 68.916 0.703 42.415 165.176 0.534"></polygon>
                        <polygon id="Path" stroke-width="3" fill="#282530" points="106.387 68.789 107.037 76.815 269.05 33.806 269.05 27.909"></polygon>
                    </g>
                    <g id="Conveyor_2" transform="translate(501.000000, 113.000000)">
                        <polygon id="Path" stroke="#282530" stroke-width="4" fill="#F0EFF4" stroke-linecap="round" stroke-linejoin="round" points="269.337 27.383 105.992 68.997 0.931 42.495 165.404 0.614"></polygon>
                        <polygon id="Path" stroke="#282530" stroke-width="3" fill="#282530" stroke-linecap="round" stroke-linejoin="round" points="108.594 68.316 108.594 75.222 270.809 35.11 270.809 27.898"></polygon>
                        <path d="M269.489,30.916 C269.265,28.93 270.191,27.196 271.557,27.041 C272.924,26.887 274.213,28.371 274.437,30.357 C274.662,32.342 273.736,34.077 272.369,34.231 C271.003,34.386 269.713,32.901 269.489,30.916 Z" id="Path" fill="#F0EFF4"></path>
                    </g>
                    <g id="Layer-1" transform="translate(314.000000, 0.000000)">
                        <polygon id="Path" stroke="#282530" stroke-width="6" fill="url(#linearGradient-1)" stroke-linecap="round" stroke-linejoin="round" points="138.278 77.753 296.103 41.205 296.103 217.858 138.278 254.406"></polygon>
                        <polygon id="Path" stroke="#282530" stroke-width="6" fill="#EBE9F0" stroke-linecap="round" stroke-linejoin="round" points="138.832 254.96 0.389 215.089 0.389 38.989 138.278 77.602"></polygon>
                        <polygon id="Path" stroke="#282530" stroke-width="6" fill="#EBE9F0" stroke-linecap="round" stroke-linejoin="round" points="138.832 254.96 0.389 215.089 0.389 38.989 138.278 77.602"></polygon>
                        <polygon id="Path" stroke="#282530" stroke-width="6" fill="#F0EEF3" stroke-linecap="round" stroke-linejoin="round" points="293.793 41.205 159.322 0.399 0.139 38.989 138.278 77.954"></polygon>
                        <path d="M14.113,219.118 C14.113,219.118 14.09,125.865 14.113,105.56 C14.126,94.154 19.417,91.921 27.902,93.818 C49.017,98.539 80.409,107 105.867,112.53 C116.63,114.868 121.721,122.659 121.766,131.937 C121.89,157.934 121.766,250.497 121.766,250.497 L14.113,219.118 Z" id="Path" fill="url(#linearGradient-2)"></path>
                        <polygon id="Path" stroke="#282530" stroke-width="4" fill="#F0EFF4" stroke-linecap="round" stroke-linejoin="round" points="119.163 226.022 15.181 197.727 119.163 171.857"></polygon>
                    </g>
                    <g id="Conveyor_3" transform="translate(162.000000, 197.000000)">
                        <polygon id="Path" stroke="#282530" stroke-width="4" fill="#F0EFF4" stroke-linecap="round" stroke-linejoin="round" points="270.036 27.497 106.691 69.11 1.63 42.608 166.103 0.727"></polygon>
                        <polygon id="Path" stroke="#282530" stroke-width="3" fill="#282530" stroke-linecap="round" stroke-linejoin="round" points="106.4 69.11 106.4 76.346 263.738 34.919 263.738 29.022"></polygon>
                        <polygon id="Path" stroke="#282530" stroke-width="3" fill="#282530" stroke-linecap="round" stroke-linejoin="round" points="106.84 76.346 0.911 50.364 0.911 42.505 106.966 68.924"></polygon>
                        <path d="M104.061,73.008 C103.837,71.022 104.763,69.287 106.13,69.133 C107.496,68.979 108.785,70.463 109.01,72.449 C109.234,74.434 108.308,76.169 106.942,76.323 C105.575,76.478 104.286,74.993 104.061,73.008 Z" id="Path" fill="#F0EFF4"></path>
                    </g>
                    <g id="Conveyor_4" transform="translate(0.000000, 239.000000)">
                        <polygon id="Path" stroke="#282530" stroke-width="4" fill="#F0EFF4" stroke-linecap="round" stroke-linejoin="round" points="268.536 27.275 105.19 68.888 0.13 42.386 164.603 0.505"></polygon>
                        <polygon id="Path" stroke="#282530" stroke-width="3" fill="#282530" stroke-linecap="round" stroke-linejoin="round" points="106.185 67.541 106.185 74.446 268.4 34.334 268.4 27.122"></polygon>
                        <polygon id="Path" stroke="#282530" stroke-width="3" fill="#282530" stroke-linecap="round" stroke-linejoin="round" points="106.185 74.446 0.13 48.453 0.13 40.594 106.185 67.012"></polygon>
                        <path d="M266.061,31.008 C265.837,29.022 266.763,27.287 268.13,27.133 C269.496,26.979 270.785,28.463 271.01,30.449 C271.234,32.434 270.308,34.169 268.942,34.323 C267.575,34.478 266.286,32.993 266.061,31.008 Z" id="Path" fill="#F0EFF4"></path>
                    </g>
                </g>
                <g id="conveyor" transform="translate(171.033156, 53.000000)">
                    <g id="Conveyor" transform="translate(666.000000, 71.000000)" stroke="#282530" stroke-linecap="round" stroke-linejoin="round">
                        <polygon id="Path" stroke-width="4" fill="#F0EFF4" points="269.11 27.303 105.764 68.916 0.703 42.415 165.176 0.534"></polygon>
                        <polygon id="Path" stroke-width="3" fill="#282530" points="106.387 68.789 107.037 76.815 269.05 33.806 269.05 27.909"></polygon>
                    </g>
                    <g id="Conveyor_2" transform="translate(501.000000, 113.000000)">
                        <polygon id="Path" stroke="#282530" stroke-width="4" fill="#F0EFF4" stroke-linecap="round" stroke-linejoin="round" points="269.337 27.383 105.992 68.997 0.931 42.495 165.404 0.614"></polygon>
                        <polygon id="Path" stroke="#282530" stroke-width="3" fill="#282530" stroke-linecap="round" stroke-linejoin="round" points="108.594 68.316 108.594 75.222 270.809 35.11 270.809 27.898"></polygon>
                        <path d="M269.489,30.916 C269.265,28.93 270.191,27.196 271.557,27.041 C272.924,26.887 274.213,28.371 274.437,30.357 C274.662,32.342 273.736,34.077 272.369,34.231 C271.003,34.386 269.713,32.901 269.489,30.916 Z" id="Path" fill="#F0EFF4"></path>
                    </g>
                    <g id="Layer-1" transform="translate(314.000000, 0.000000)">
                        <polygon id="Path" stroke="#282530" stroke-width="6" fill="url(#linearGradient-1)" stroke-linecap="round" stroke-linejoin="round" points="138.278 77.753 296.103 41.205 296.103 217.858 138.278 254.406"></polygon>
                        <polygon id="Path" stroke="#282530" stroke-width="6" fill="#EBE9F0" stroke-linecap="round" stroke-linejoin="round" points="138.832 254.96 0.389 215.089 0.389 38.989 138.278 77.602"></polygon>
                        <polygon id="Path" stroke="#282530" stroke-width="6" fill="#EBE9F0" stroke-linecap="round" stroke-linejoin="round" points="138.832 254.96 0.389 215.089 0.389 38.989 138.278 77.602"></polygon>
                        <polygon id="Path" stroke="#282530" stroke-width="6" fill="#F0EEF3" stroke-linecap="round" stroke-linejoin="round" points="293.793 41.205 159.322 0.399 0.139 38.989 138.278 77.954"></polygon>
                        <path d="M14.113,219.118 C14.113,219.118 14.09,125.865 14.113,105.56 C14.126,94.154 19.417,91.921 27.902,93.818 C49.017,98.539 80.409,107 105.867,112.53 C116.63,114.868 121.721,122.659 121.766,131.937 C121.89,157.934 121.766,250.497 121.766,250.497 L14.113,219.118 Z" id="Path" fill="url(#linearGradient-2)"></path>
                        <polygon id="Path" stroke="#282530" stroke-width="4" fill="#F0EFF4" stroke-linecap="round" stroke-linejoin="round" points="119.163 226.022 15.181 197.727 119.163 171.857"></polygon>
                    </g>
                    <g id="Conveyor_3" transform="translate(162.000000, 197.000000)">
                        <polygon id="Path" stroke="#282530" stroke-width="4" fill="#F0EFF4" stroke-linecap="round" stroke-linejoin="round" points="270.036 27.497 106.691 69.11 1.63 42.608 166.103 0.727"></polygon>
                        <polygon id="Path" stroke="#282530" stroke-width="3" fill="#282530" stroke-linecap="round" stroke-linejoin="round" points="106.4 69.11 106.4 76.346 263.738 34.919 263.738 29.022"></polygon>
                        <polygon id="Path" stroke="#282530" stroke-width="3" fill="#282530" stroke-linecap="round" stroke-linejoin="round" points="106.84 76.346 0.911 50.364 0.911 42.505 106.966 68.924"></polygon>
                        <path d="M104.061,73.008 C103.837,71.022 104.763,69.287 106.13,69.133 C107.496,68.979 108.785,70.463 109.01,72.449 C109.234,74.434 108.308,76.169 106.942,76.323 C105.575,76.478 104.286,74.993 104.061,73.008 Z" id="Path" fill="#F0EFF4"></path>
                    </g>
                    <g id="Conveyor_4" transform="translate(0.000000, 239.000000)">
                        <polygon id="Path" stroke="#282530" stroke-width="4" fill="#F0EFF4" stroke-linecap="round" stroke-linejoin="round" points="268.536 27.275 105.19 68.888 0.13 42.386 164.603 0.505"></polygon>
                        <polygon id="Path" stroke="#282530" stroke-width="3" fill="#282530" stroke-linecap="round" stroke-linejoin="round" points="106.185 67.541 106.185 74.446 268.4 34.334 268.4 27.122"></polygon>
                        <polygon id="Path" stroke="#282530" stroke-width="3" fill="#282530" stroke-linecap="round" stroke-linejoin="round" points="106.185 74.446 0.13 48.453 0.13 40.594 106.185 67.012"></polygon>
                        <path d="M266.061,31.008 C265.837,29.022 266.763,27.287 268.13,27.133 C269.496,26.979 270.785,28.463 271.01,30.449 C271.234,32.434 270.308,34.169 268.942,34.323 C267.575,34.478 266.286,32.993 266.061,31.008 Z" id="Path" fill="#F0EFF4"></path>
                    </g>
                </g>
            </g>
            <path d="M1101.12731,323.008 C1100.90331,321.022 1101.82931,319.287 1103.19631,319.133 C1104.56231,318.979 1105.85131,320.463 1106.07631,322.449 C1106.30031,324.434 1105.37431,326.169 1104.00831,326.323 C1102.64131,326.478 1101.35231,324.993 1101.12731,323.008 Z" id="Path" fill="#F0EFF4"></path>
            <path d="M930.094156,270.008 C929.870156,268.022 930.796156,266.287 932.163156,266.133 C933.529156,265.979 934.818156,267.463 935.043156,269.449 C935.267156,271.434 934.341156,273.169 932.975156,273.323 C931.608156,273.478 930.319156,271.993 930.094156,270.008 Z" id="Path" fill="#F0EFF4"></path>
        </g>
        <path id="Line" d="M304.615293,390.828894 L80.3488747,446.895499 C78.4735925,447.364319 76.5733218,446.224157 76.1045012,444.348875 C75.6356807,442.473593 76.7758431,440.573322 78.6511253,440.104501 L302.917543,384.037897 L299.601206,370.772549 C299.289589,369.52608 300.047436,368.263001 301.293906,367.951384 C301.644283,367.863789 302.010244,367.858975 302.362804,367.937322 L339.849152,376.267621 C341.103388,376.54634 341.8942,377.789045 341.615481,379.043281 C341.506287,379.534657 341.240664,379.977361 340.858483,380.304945 L311.702435,405.295843 C310.726918,406.132 309.258266,406.019027 308.422109,405.043511 C308.187069,404.769297 308.0191,404.444125 307.931506,404.093747 L304.615293,390.828894 Z" fill="#282530" fill-rule="nonzero"></path>
        <path id="Line" d="M1039.38471,479.171106 L1263.65113,423.104501 C1265.52641,422.635681 1267.42668,423.775843 1267.8955,425.651125 C1268.36432,427.526407 1267.22416,429.426678 1265.34887,429.895499 L1041.08246,485.962103 L1044.39867,499.226956 C1044.48626,499.577334 1044.49108,499.943294 1044.41273,500.295855 C1044.13401,501.550091 1042.89131,502.340903 1041.63707,502.062184 L1004.15072,493.731884 C1003.65935,493.62269 1003.21664,493.357067 1002.88906,492.974886 C1002.0529,491.99937 1002.16588,490.530718 1003.14139,489.694561 L1032.29744,464.703662 C1032.57166,464.468622 1032.89683,464.300653 1033.2472,464.213059 C1034.49367,463.901442 1035.75675,464.659289 1036.06837,465.905758 L1039.38471,479.171106 Z" fill="#282530" fill-rule="nonzero"></path>
        <path id="Line" d="M527.384707,607.171106 L535.564023,605.126277 C537.439305,604.657456 539.339576,605.797619 539.808396,607.672901 C540.277217,609.548183 539.137055,611.448454 537.261772,611.917274 L529.082457,613.962103 L532.39867,627.226956 C532.486264,627.577334 532.491079,627.943294 532.412732,628.295855 C532.134013,629.550091 530.891308,630.340903 529.637072,630.062184 L492.150724,621.731884 C491.659349,621.62269 491.216644,621.357067 490.889061,620.974886 C490.052904,619.99937 490.165877,618.530718 491.141393,617.694561 L520.297442,592.703662 C520.571656,592.468622 520.896827,592.300653 521.247205,592.213059 C522.493674,591.901442 523.756753,592.659289 524.068371,593.905758 L527.384707,607.171106 Z M548.903482,609.006847 C547.0282,609.475667 545.12793,608.335505 544.659109,606.460223 C544.190288,604.584941 545.330451,602.68467 547.205733,602.215849 L558.847443,599.305422 C560.722725,598.836601 562.622996,599.976764 563.091816,601.852046 C563.560637,603.727328 562.420475,605.627599 560.545192,606.096419 L548.903482,609.006847 Z M572.186902,603.185992 C570.31162,603.654812 568.41135,602.51465 567.942529,600.639368 C567.473708,598.764086 568.613871,596.863815 570.489153,596.394994 L582.130863,593.484567 C584.006145,593.015746 585.906416,594.155909 586.375236,596.031191 C586.844057,597.906473 585.703895,599.806744 583.828612,600.275564 L572.186902,603.185992 Z M595.470322,597.365137 C593.59504,597.833957 591.69477,596.693795 591.225949,594.818513 C590.757128,592.943231 591.897291,591.04296 593.772573,590.574139 L605.414283,587.663712 C607.289565,587.194891 609.189836,588.335054 609.658656,590.210336 C610.127477,592.085618 608.987315,593.985889 607.112032,594.454709 L595.470322,597.365137 Z M618.753742,591.544282 C616.87846,592.013102 614.97819,590.87294 614.509369,588.997658 C614.040548,587.122376 615.180711,585.222105 617.055993,584.753284 L628.697703,581.842857 C630.572985,581.374036 632.473256,582.514199 632.942076,584.389481 C633.410897,586.264763 632.270735,588.165034 630.395452,588.633854 L618.753742,591.544282 Z M642.037162,585.723427 C640.16188,586.192247 638.26161,585.052085 637.792789,583.176803 C637.323968,581.301521 638.464131,579.40125 640.339413,578.932429 L651.981123,576.022002 C653.856405,575.553181 655.756676,576.693344 656.225496,578.568626 C656.694317,580.443908 655.554155,582.344179 653.678872,582.812999 L642.037162,585.723427 Z M665.320582,579.902572 C663.4453,580.371392 661.54503,579.23123 661.076209,577.355948 C660.607388,575.480666 661.747551,573.580395 663.622833,573.111574 L675.264543,570.201147 C677.139825,569.732326 679.040096,570.872489 679.508916,572.747771 C679.977737,574.623053 678.837575,576.523324 676.962292,576.992144 L665.320582,579.902572 Z M688.604002,574.081717 C686.72872,574.550537 684.82845,573.410375 684.359629,571.535093 C683.890808,569.659811 685.030971,567.75954 686.906253,567.290719 L698.547963,564.380292 C700.423245,563.911471 702.323516,565.051634 702.792336,566.926916 C703.261157,568.802198 702.120995,570.702469 700.245712,571.171289 L688.604002,574.081717 Z M711.887422,568.260862 C710.01214,568.729682 708.11187,567.58952 707.643049,565.714238 C707.174228,563.838956 708.314391,561.938685 710.189673,561.469864 L721.831383,558.559437 C723.706665,558.090616 725.606936,559.230779 726.075756,561.106061 C726.544577,562.981343 725.404415,564.881614 723.529132,565.350434 L711.887422,568.260862 Z M735.170842,562.440007 C733.29556,562.908827 731.39529,561.768665 730.926469,559.893383 C730.457648,558.018101 731.597811,556.11783 733.473093,555.649009 L745.114803,552.738582 C746.990085,552.269761 748.890356,553.409924 749.359177,555.285206 C749.827997,557.160488 748.687835,559.060759 746.812552,559.529579 L735.170842,562.440007 Z" fill="#282530" fill-rule="nonzero"></path>
    </g>
</svg>