<?xml version="1.0" encoding="UTF-8"?>
<svg viewBox="0 0 387 370" fill="none"><ellipse cx="151.889" cy="28.74" rx="151.889" ry="28.74" transform="translate(83.111 312.471)" fill="#1E518E" fill-opacity="0.3"></ellipse><path fill="#EFCAD5" d="M112.702 312.471h187.969v44.306H112.702z"></path><path d="M146.158 278.125l186.617-.073-32.104 35.726-188.024-.569 33.511-35.084z" fill="#FFE3EB"></path><path d="M300.608 313.982l32.2-36.267v42.938l-32.106 36.124-.094-42.795z" fill="#FF789E"></path><path fill="#EFCAD5" d="M297.074 285.896h16.103v6.082h-16.103z"></path><path d="M313.19 285.91l2.74-2.551v5.547l-2.75 3.072.01-6.068z" fill="#D2A0AE"></path><ellipse cx="80.551" cy="16.363" rx="80.551" ry="16.363" transform="translate(127.687 278.052)" fill="#07005C"></ellipse><ellipse cx="19.943" cy="5.679" rx="19.943" ry="5.679" transform="translate(185.855 286.299)" fill="#C1BEEA"></ellipse><path d="M204.925 289.574c.682-.18 1.064-.254 1.746 0v2.254c-.682.198-1.064.203-1.746 0v-2.254z" fill="#fff"></path><path d="M302.988 257.736c2.552 14.04 1.924 17.712 0 25.906 3.373 2.455 5.264 2.362 8.636 0 4.431-8.58 9.669-21.988 11.047-37.83 8.691-99.924-22.561-141.867-43.533-152.97-15.515-8.454-23.805-10.636-38.242-12.336-10.965-2.621-17.564-8.672-29.607-22.205-42.354-12.748-35.774 202.725 0 187.51 9.652-10.178 17.27-21.383 29.607-26.317 29.754-4.247 58.803 20.15 62.092 38.242z" fill="#EFCAD5"></path><path fill-rule="evenodd" clip-rule="evenodd" d="M88.125 76.857c1.924-8.193 2.553-11.865 0-25.906-3.29-18.093-32.338-42.489-62.092-38.242-9.589 3.836-16.327 11.46-23.386 19.445-.876.99-1.755 1.986-2.647 2.982C18.066 1.612 32.981-12.13 68.566 12.709 94.978 32.285 96.968 51.949 91.668 78.6c-1.07-.18-2.187-.756-3.543-1.744z" transform="translate(214.863 206.785)" fill="url(#paint0_linear)" fill-opacity="0.3"></path><ellipse cx="27.551" cy="95.576" rx="27.551" ry="95.576" transform="translate(179.393 56.017)" fill="url(#paint1_linear)"></ellipse><path fill-rule="evenodd" clip-rule="evenodd" d="M298.022 298.18h-13.563v6.952c-.003.016 0 .032 0 .048 0 .699 3.036 1.265 6.782 1.265 3.745 0 6.78-.566 6.78-1.265 0-.016.004-.032 0-.048v-6.952z" fill="#EFCAD5"></path><ellipse cx="6.781" cy="1.265" rx="6.781" ry="1.265" transform="translate(284.459 296.914)" fill="#C4C4C4"></ellipse><path d="M226.675 294.754l8.53.734-3.05 2.204-9.301-1.036 3.821-1.902z" fill="#FFE3EB"></path><path d="M222.834 296.656l9.287.97v2.22l-9.287-1.324v-1.866z" fill="#C4C4C4"></path><path d="M232.068 297.617l3.127-2.145v1.783l-3.127 2.56v-2.198z" fill="#D2A0AE"></path><path d="M233.755 296.657l51.551 2.595c.274.888.272 1.282 0 1.806l-51.551-3.074c-.28-.245-.28-1.048 0-1.327z" fill="#C4C4C4"></path><mask id="a" maskUnits="userSpaceOnUse" x="-2" y="-2" width="46" height="121" fill="#000"><path fill="#fff" d="M-2-2h46v121H-2z"></path><path d="M42.024 63.824C23.99 60.139 20.032 37.116 18.85 0 18.427 43.286 14.27 60.374 0 64.363 19.13 67.9 19.36 84.8 18.85 117.14c1.17-37.1 1.77-50.886 23.174-53.316z"></path></mask><path d="M318.086 65.61c-18.033-3.685-21.992-26.708-23.174-63.824-.424 43.286-4.58 60.374-18.85 64.363 19.13 3.538 19.36 20.437 18.85 52.777 1.17-37.1 1.77-50.886 23.174-53.316z" fill="#CF0"></path><path d="M18.85 0l1-.032a1 1 0 0 0-2 .022l1 .01zm23.174 63.824l.112.993a1 1 0 0 0 .088-1.973l-.2.98zM18.85 117.14l-1-.016a1 1 0 0 0 2 .048l-1-.032zM0 64.363l-.27-.963a1 1 0 0 0 .088 1.946L0 64.363zM17.851.032c.59 18.555 1.876 33.714 5.312 44.715 3.448 11.036 9.144 18.112 18.66 20.056l.4-1.96c-8.515-1.74-13.816-8.017-17.15-18.693C21.725 33.44 20.44 18.53 19.85-.032l-1.999.064zm24.06 62.798c-5.447.619-9.684 1.97-12.957 4.32-3.288 2.36-5.51 5.66-7.047 9.997-1.53 4.315-2.391 9.694-2.949 16.268-.557 6.58-.815 14.426-1.107 23.694l1.999.063c.293-9.283.549-17.072 1.101-23.588.553-6.522 1.398-11.698 2.84-15.77 1.436-4.05 3.449-6.972 6.33-9.04 2.896-2.078 6.76-3.36 12.015-3.957l-.225-1.987zm-22.06 54.326c.253-16.115.335-28.591-2.096-37.47-1.225-4.47-3.104-8.106-5.976-10.855C8.903 66.08 5.108 64.291.182 63.38l-.364 1.967c4.64.858 8.047 2.508 10.578 4.93 2.535 2.426 4.269 5.7 5.43 9.939 2.338 8.54 2.28 20.684 2.025 36.909l2 .032zM.268 65.326c3.75-1.048 6.86-2.97 9.4-5.97 2.525-2.984 4.449-6.992 5.91-12.166C18.496 36.866 19.64 21.65 19.85.01l-2-.02c-.212 21.646-1.36 36.617-4.195 46.656-1.415 5.007-3.232 8.724-5.513 11.418-2.267 2.679-5.026 4.39-8.411 5.336l.538 1.926z" transform="translate(276.062 1.786)" fill="#fff" fill-opacity="0.4" mask="url(#a)"></path><mask id="b" maskUnits="userSpaceOnUse" x="-2" y="-2" width="28" height="69" fill="#000"><path fill="#fff" d="M-2-2h28v69H-2z"></path><path d="M24.91 35.596C14.22 33.541 11.874 20.701 11.174 0 10.922 24.142 8.458 33.672 0 35.897c11.34 1.973 11.476 11.398 11.174 29.435.693-20.692 1.049-28.38 13.736-29.736z"></path></mask><path d="M349.072 121.856c-10.69-2.055-13.036-14.895-13.736-35.596-.252 24.142-2.716 33.672-11.174 35.897 11.34 1.973 11.476 11.398 11.174 29.435.693-20.692 1.048-28.38 13.736-29.736z" fill="#CF0"></path><path d="M11.174 0l1-.034a1 1 0 0 0-2 .024l1 .01zM24.91 35.596l.106.995a1 1 0 0 0 .083-1.977l-.19.982zM11.174 65.332l-1-.016a1 1 0 0 0 2 .05l-1-.034zM0 35.897l-.254-.967a1 1 0 0 0 .083 1.952L0 35.897zM10.174.034c.35 10.347 1.112 18.865 3.173 25.072 2.078 6.258 5.55 10.353 11.374 11.472l.378-1.964c-4.866-.935-7.912-4.288-9.854-10.139-1.96-5.902-2.722-14.155-3.072-24.509l-1.999.068zm14.63 34.568c-3.26.348-5.841 1.114-7.855 2.474-2.034 1.373-3.403 3.294-4.34 5.785-.93 2.466-1.445 5.517-1.777 9.197-.332 3.685-.485 8.076-.658 13.241l2 .067c.173-5.181.324-9.51.65-13.129.327-3.623.823-6.46 1.656-8.671.823-2.188 1.965-3.737 3.588-4.833 1.643-1.109 3.865-1.813 6.948-2.142l-.213-1.989zm-12.63 30.747c.15-8.96.204-16.002-1.261-21.038-.744-2.553-1.894-4.662-3.672-6.262-1.777-1.6-4.101-2.62-7.07-3.137l-.342 1.97c2.701.47 4.646 1.368 6.074 2.653 1.428 1.286 2.419 3.031 3.09 5.335 1.361 4.68 1.333 11.369 1.18 20.446l2 .033zM.254 36.864c2.287-.601 4.202-1.71 5.768-3.45 1.554-1.728 2.72-4.03 3.6-6.96 1.75-5.828 2.426-14.375 2.552-26.444l-2-.02c-.126 12.073-.808 20.362-2.467 25.89-.826 2.75-1.877 4.756-3.172 6.196-1.283 1.426-2.847 2.343-4.79 2.854l.51 1.934z" transform="translate(324.162 86.26)" fill="#fff" fill-opacity="0.4" mask="url(#b)"></path><mask id="c" maskUnits="userSpaceOnUse" x="-2" y="-2" width="39" height="90" fill="#000"><path fill="#fff" d="M-2-2h39v90H-2z"></path><path d="M35.04 47.036C20.003 44.32 16.701 27.353 15.717 0 15.364 31.9 11.898 44.494 0 47.433c15.95 2.608 16.142 15.062 15.717 38.895.976-27.342 1.476-37.5 19.322-39.292z"></path></mask><path d="M118.15 267.153c-15.035-2.716-18.336-19.683-19.321-47.036-.354 31.9-3.82 44.494-15.718 47.433 15.951 2.608 16.143 15.062 15.718 38.895.975-27.342 1.475-37.5 19.322-39.292z" fill="#CF0"></path><path d="M15.717 0l1-.036a1 1 0 0 0-2 .025l1 .011zM35.04 47.036l.1.995a1 1 0 0 0 .078-1.98l-.178.985zM15.717 86.328l-1-.017a1 1 0 0 0 2 .053l-1-.036zM0 47.433l-.24-.97A1 1 0 0 0-.16 48.42L0 47.433zM14.718.036c.492 13.674 1.564 24.894 4.448 33.054 1.448 4.095 3.369 7.473 5.948 10.01 2.59 2.55 5.802 4.207 9.747 4.92l.356-1.968c-3.573-.645-6.412-2.126-8.7-4.377-2.3-2.262-4.084-5.345-5.465-9.251-2.771-7.84-3.843-18.78-4.335-32.46l-1.999.072zM34.94 46.041c-4.543.456-8.092 1.453-10.846 3.2-2.778 1.763-4.666 4.236-5.97 7.487-1.292 3.224-2.014 7.226-2.48 12.082-.466 4.862-.681 10.656-.925 17.483l1.999.071c.244-6.844.457-12.573.917-17.363.46-4.794 1.16-8.57 2.346-11.528 1.174-2.93 2.818-5.042 5.184-6.543 2.39-1.515 5.595-2.46 9.975-2.9l-.2-1.99zM16.717 86.346c.212-11.855.285-21.114-1.762-27.721-1.036-3.343-2.63-6.07-5.064-8.13-2.43-2.055-5.619-3.377-9.73-4.049L-.16 48.42c3.864.632 6.681 1.844 8.76 3.602 2.074 1.755 3.492 4.12 4.445 7.195 1.93 6.23 1.887 15.115 1.674 27.094l2 .035zM.24 48.404c3.136-.775 5.758-2.2 7.908-4.445 2.14-2.234 3.763-5.23 4.992-9.078 2.449-7.661 3.4-18.922 3.578-34.87l-2-.022c-.177 15.952-1.136 26.938-3.483 34.283-1.168 3.657-2.664 6.354-4.532 8.304-1.857 1.94-4.13 3.191-6.943 3.886l.48 1.942z" transform="translate(83.111 220.117)" fill="#fff" fill-opacity="0.4" mask="url(#c)"></path><path d="M190.443 182.506c-28.55 13.478-45.093 17.79-76.182 15.871-48.814-3.512-72.848 1.162-110.395 20.104M192.124 157.826c-30.354 8.685-47.376 10.265-77.745 3.346C66.775 149.813 42.3 150.54 2.186 163.163M190.99 135.375c-31.436 2.941-48.457 1.358-77.031-11.04C69.264 104.395 45.075 100.6 3.32 105.612" stroke="#fff" stroke-opacity="0.9" stroke-width="3" stroke-linecap="round" stroke-linejoin="round"></path><path fill-rule="evenodd" clip-rule="evenodd" d="M72.623 93.264c1.108-.352 4.014-1.668 6.204-3.449l.322 2.79c-2.176 1.77-3.996 3.057-5.713 3.603-1.89.6-3.533.274-5.194-.773a1.446 1.446 0 0 1-.041-.027c-1.927-1.308-3.286-1.63-4.724-1.294-1.589.37-3.529 1.594-6.464 4.125l-1.883-2.343c2.954-2.547 5.389-4.235 7.758-4.788 2.514-.586 4.69.149 6.98 1.699 1.058.662 1.825.753 2.755.457z" fill="#fff"></path><ellipse cx="10.911" cy="7.191" rx="10.911" ry="7.191" transform="translate(54.598 122.634)" fill="#fff"></ellipse><path stroke="#fff" stroke-width="2" d="M75.425 130.414l3.967-40.61"></path><path fill-rule="evenodd" clip-rule="evenodd" d="M126.022 157.636c.42-.396 1.432-1.648 2.02-3.021l.767 1.459c-.583 1.364-1.114 2.4-1.764 3.014-.716.675-1.528.801-2.509.538a.712.712 0 0 1-.024-.007c-1.159-.356-1.842-.28-2.413.167-.632.495-1.231 1.52-1.986 3.438l-1.37-.928c.76-1.93 1.478-3.298 2.42-4.036.999-.783 2.142-.785 3.517-.364.624.165.99.073 1.342-.26z" fill="#fff"></path><ellipse cx="5.303" cy="4.23" rx="5.303" ry="4.23" transform="rotate(-22.313 510.85 -227.114)" fill="#fff"></ellipse><path transform="matrix(-.30398 -.95268 .9633 -.26841 136.047 177.204)" stroke="#fff" stroke-width="2" d="M0-1h23.965"></path><defs><linearGradient id="paint0_linear" x2="1" gradientUnits="userSpaceOnUse" gradientTransform="matrix(5.37045 -14.3212 17.1323 6.42463 43.679 18.664)"><stop stop-color="#E70000"></stop><stop offset="1" stop-opacity="0"></stop></linearGradient><linearGradient id="paint1_linear" x2="1" gradientUnits="userSpaceOnUse" gradientTransform="matrix(-56.0232 10.708 -3.08671 -16.1494 53.36 103.65)"><stop stop-color="#CF97A7"></stop><stop offset="1" stop-color="#E7B8C6"></stop></linearGradient></defs></svg>