<?xml version="1.0" encoding="UTF-8"?>
<svg viewBox="0 0 997 838" version="1.1" xmlns="http://www.w3.org/2000/svg" xmlns:xlink="http://www.w3.org/1999/xlink">
    <!-- Generator: Sketch 53.2 (72643) - https://sketchapp.com -->
    <title>graphql-io</title>
    <desc>Created with Sketch.</desc>
    <defs>
        <linearGradient x1="46.4520524%" y1="34.3415582%" x2="52.1634567%" y2="23.474774%" id="linearGradient-1">
            <stop stop-color="#E70000" offset="0%"></stop>
            <stop stop-color="#000000" stop-opacity="0" offset="100%"></stop>
        </linearGradient>
        <linearGradient x1="54.5597966%" y1="54.2238637%" x2="44.6619161%" y2="59.8256885%" id="linearGradient-2">
            <stop stop-color="#CF97A7" offset="0%"></stop>
            <stop stop-color="#E7B8C6" offset="100%"></stop>
        </linearGradient>
        <polygon id="path-3" points="0 0 49.7897727 0 49.7897727 121 0 121"></polygon>
        <path d="M47.6509773,65.824 C28.1312216,62.139 23.8471364,39.116 22.5677557,2 C22.1099062,45.286 17.6104261,62.374 2.16477273,66.363 C22.8708239,69.9 23.1197727,86.8 22.5677557,119.14 C23.8341477,82.04 24.4835795,68.254 47.6509773,65.824 Z" id="path-5"></path>
        <polygon id="path-7" points="0 0 30.3068182 0 30.3068182 69 0 69"></polygon>
        <path d="M29.127017,37.596 C17.5563068,35.541 15.0170284,22.701 14.259358,2 C13.9865966,26.142 11.3195966,35.672 2.16477273,37.897 C14.4390341,39.87 14.5862386,49.295 14.259358,67.332 C15.0094517,46.64 15.3947812,38.952 29.127017,37.596 Z" id="path-9"></path>
        <polygon id="path-11" points="0 0 42.2130682 0 42.2130682 90 0 90"></polygon>
        <path d="M40.0915909,49.036 C23.8157472,46.32 20.2417074,29.353 19.1766392,2 C18.7945568,33.9 15.0430057,46.494 2.16477273,49.433 C19.4288352,52.041 19.6366534,64.495 19.1766392,88.328 C20.2330483,60.986 20.7742415,50.828 40.0905085,49.036 L40.0915909,49.036 Z" id="path-13"></path>
    </defs>
    <g id="graphql-io" stroke="none" stroke-width="1" fill="none" fill-rule="evenodd">
        <g id="grammophone" transform="translate(254.000000, 240.500000)">
            <polygon id="Path" fill="#EFCAD5" fill-rule="nonzero" points="124.151881 314.471 327.606963 314.471 327.606963 358.777 124.151881 358.777"></polygon>
            <polygon id="Path" fill="#FFE3EB" fill-rule="nonzero" points="160.364199 280.125 362.355895 280.052 327.606963 315.778 124.092349 315.209"></polygon>
            <polygon id="Path" fill="#564F51" fill-rule="nonzero" points="327.538773 315.982 362.391614 279.715 362.391614 322.653 327.640517 358.777"></polygon>
            <polygon id="Path" fill="#EFCAD5" fill-rule="nonzero" points="323.713619 287.896 341.143287 287.896 341.143287 293.978 323.713619 293.978"></polygon>
            <polygon id="Path" fill="#D2A0AE" fill-rule="nonzero" points="341.157358 287.91 344.123097 285.359 344.123097 290.906 341.146534 293.978 341.157358 287.91"></polygon>
            <ellipse id="Oval" fill="#07005C" fill-rule="nonzero" cx="227.558744" cy="296.415" rx="87.187304" ry="16.363"></ellipse>
            <ellipse id="Oval" fill="#C1BEEA" fill-rule="nonzero" cx="224.917722" cy="293.978" rx="21.5860312" ry="5.679"></ellipse>
            <path d="M223.972798,291.574 C224.710986,291.394 225.124457,291.32 225.862645,291.574 L225.862645,293.828 C225.124457,294.026 224.710986,294.031 223.972798,293.828 L223.972798,291.574 Z" id="Path" fill="#FFFFFF" fill-rule="nonzero"></path>
            <path d="M330.114852,259.736 C332.877102,273.776 332.197364,277.448 330.114852,285.642 C333.765741,288.097 335.812534,288.004 339.462341,285.642 C344.258395,277.062 349.927935,263.654 351.419463,247.812 C360.826483,147.888 326.999744,105.945 304.299937,94.842 C287.506713,86.388 278.53373,84.206 262.907318,82.506 C251.038952,79.885 243.896284,73.834 230.861105,60.301 C185.017713,47.553 192.139815,263.026 230.861105,247.811 C241.308298,237.633 249.553918,226.428 262.907318,221.494 C295.112642,217.247 326.554884,241.644 330.114852,259.736 L330.114852,259.736 Z" id="Path" fill="#EFCAD5" fill-rule="nonzero"></path>
            <path d="M330.114852,285.642 C332.197364,277.449 332.878185,273.777 330.114852,259.736 C326.553801,241.643 295.112642,217.247 262.907318,221.494 C252.528315,225.33 245.235196,232.954 237.594631,240.939 C236.64646,241.929 235.695043,242.925 234.729554,243.921 C254.283946,210.397 270.427739,196.655 308.944457,221.494 C337.532446,241.07 339.686395,260.734 333.949747,287.385 C332.791594,287.205 331.582568,286.629 330.114852,285.641 L330.114852,285.642 Z" id="Path" fill-opacity="0.3" fill="url(#linearGradient-1)"></path>
            <ellipse id="Oval" fill="url(#linearGradient-2)" fill-rule="nonzero" cx="226.158136" cy="153.593" rx="29.8208267" ry="95.576"></ellipse>
            <path d="M324.739722,300.18 L310.059315,300.18 L310.059315,307.132 C310.056068,307.148 310.059315,307.164 310.059315,307.18 C310.059315,307.879 313.34544,308.445 317.40006,308.445 C321.453597,308.445 324.738639,307.879 324.738639,307.18 C324.738639,307.164 324.742969,307.148 324.738639,307.132 L324.738639,300.18 L324.739722,300.18 Z" id="Path" fill="#EFCAD5"></path>
            <ellipse id="Oval" fill="#C4C4C4" fill-rule="nonzero" cx="317.398977" cy="300.179" rx="7.33966193" ry="1.265"></ellipse>
            <polygon id="Path" fill="#FFE3EB" fill-rule="nonzero" points="247.514702 296.754 256.747457 297.488 253.446179 299.692 243.378903 298.656"></polygon>
            <polygon id="Path" fill="#C4C4C4" fill-rule="nonzero" points="243.357256 298.656 253.409378 299.626 253.409378 301.846 243.357256 300.522 243.357256 298.656"></polygon>
            <polygon id="Path" fill="#D2A0AE" fill-rule="nonzero" points="253.352011 299.617 256.736634 297.472 256.736634 299.255 253.352011 301.815 253.352011 299.617"></polygon>
            <path d="M255.177997,298.657 L310.976097,301.252 C311.27267,302.14 311.270506,302.534 310.976097,303.058 L255.177997,299.984 C254.874929,299.739 254.874929,298.936 255.177997,298.657 Z" id="Path" fill="#C4C4C4" fill-rule="nonzero"></path>
            <path d="M346.456722,67.61 C326.938048,63.925 322.652881,40.902 321.3735,3.786 C320.914568,47.072 316.41617,64.16 300.970517,68.149 C321.676568,71.687 321.925517,88.586 321.3735,120.926 C322.639892,83.826 323.289324,70.04 346.456722,67.61 Z" id="Path" fill="#F1D67F" fill-rule="nonzero"></path>
            <g id="Clipped">
                <mask id="mask-4" fill="white">
                    <use xlink:href="#path-3"></use>
                </mask>
                <g id="Path"></g>
                <path d="M321.3735,3.786 L322.455886,3.754 C322.449311,3.20171525 321.959379,2.75892487 321.361594,2.765 C320.763808,2.77107513 320.284538,3.22371525 320.291114,3.776 L321.3735,3.786 L321.3735,3.786 Z M346.456722,67.61 L346.577949,68.603 C347.106383,68.5471863 347.51262,68.1449335 347.53632,67.6540293 C347.560019,67.1631251 347.194157,66.7290562 346.673199,66.63 L346.456722,67.61 Z M321.3735,120.926 L320.291114,120.91 C320.281833,121.267266 320.479559,121.601967 320.80981,121.788025 C321.140061,121.974084 321.552664,121.983233 321.892196,121.812025 C322.231728,121.640818 322.446606,121.315266 322.455886,120.958 L321.3735,120.926 Z M300.970517,68.149 L300.678273,67.186 C300.193705,67.3117082 299.866868,67.7294156 299.889605,68.1939394 C299.912342,68.6584633 300.278652,69.0472117 300.773523,69.132 L300.970517,68.149 Z M320.292196,3.818 C320.930804,22.373 322.322753,37.532 326.041832,48.533 C329.773901,59.569 335.939173,66.645 346.239162,68.589 L346.672116,66.629 C337.455597,64.889 331.717866,58.612 328.10919,47.936 C324.485361,37.226 323.094494,22.316 322.455886,3.754 L320.292196,3.818 Z M346.334412,66.616 C340.438653,67.235 335.852582,68.586 332.309932,70.936 C328.751045,73.296 326.345983,76.596 324.682355,80.933 C323.026304,85.248 322.094369,90.627 321.490398,97.201 C320.887509,103.781 320.608253,111.627 320.292196,120.895 L322.455886,120.958 C322.773026,111.675 323.050116,103.886 323.647594,97.37 C324.246153,90.848 325.16077,85.672 326.721571,81.6 C328.275878,77.55 330.454722,74.628 333.573077,72.56 C336.707668,70.482 340.890009,69.2 346.577949,68.603 L346.334412,66.616 L346.334412,66.616 Z M322.456969,120.942 C322.730812,104.827 322.819568,92.351 320.188287,83.472 C318.862364,79.002 316.82856,75.366 313.719946,72.617 C310.607003,69.866 306.499347,68.077 301.167511,67.166 L300.773523,69.133 C305.795795,69.991 309.483486,71.641 312.223006,74.063 C314.966855,76.489 316.843713,79.763 318.100364,84.002 C320.630983,92.542 320.568205,104.686 320.292196,120.911 L322.456969,120.943 L322.456969,120.942 Z M301.260597,69.112 C305.319545,68.064 308.685767,66.142 311.435028,63.142 C314.168054,60.158 316.250565,56.15 317.831932,50.976 C320.990335,40.652 322.228585,25.436 322.455886,3.796 L320.291114,3.776 C320.061648,25.422 318.819068,40.393 315.750503,50.432 C314.218926,55.439 312.25223,59.156 309.783307,61.85 C307.329537,64.529 304.343233,66.24 300.679355,67.186 L301.261679,69.112 L301.260597,69.112 Z" id="Shape" fill-opacity="0.4" fill="#FFFFFF" fill-rule="nonzero" mask="url(#mask-4)"></path>
                <mask id="mask-6" fill="white">
                    <use xlink:href="#path-5"></use>
                </mask>
                <g id="Path"></g>
            </g>
            <path d="M379.995545,123.856 C368.424835,121.801 365.885557,108.961 365.127886,88.26 C364.855125,112.402 362.188125,121.932 353.033301,124.157 C365.307562,126.13 365.454767,135.555 365.127886,153.592 C365.87798,132.9 366.262227,125.212 379.995545,123.856 L379.995545,123.856 Z" id="Path" fill="#F1D67F" fill-rule="nonzero"></path>
            <g id="Clipped">
                <mask id="mask-8" fill="white">
                    <use xlink:href="#path-7"></use>
                </mask>
                <g id="Path"></g>
                <path d="M365.127886,88.26 L366.210273,88.226 C366.203099,87.6737153 365.712683,87.2313726 365.114898,87.238 C364.517112,87.2446274 364.038327,87.6977153 364.0455,88.25 L365.127886,88.26 L365.127886,88.26 Z M379.995545,123.856 L380.110278,124.851 C380.64437,124.799509 381.05685,124.394028 381.079375,123.898346 C381.101899,123.402664 380.727658,122.966668 380.200116,122.874 L379.994463,123.856 L379.995545,123.856 Z M365.127886,153.592 L364.0455,153.576 C364.030555,154.128285 364.503041,154.587193 365.100827,154.601 C365.698612,154.614807 366.195328,154.178285 366.210273,153.626 L365.127886,153.592 L365.127886,153.592 Z M353.033301,124.157 L352.758375,123.19 C352.26658,123.309867 351.931461,123.729917 351.953068,124.1994 C351.974675,124.668883 352.347179,125.061135 352.848213,125.142 L353.033301,124.157 Z M364.0455,88.294 C364.424335,98.641 365.249114,107.159 367.479912,113.366 C369.729111,119.624 373.487156,123.719 379.790974,124.838 L380.200116,122.874 C374.933224,121.939 371.636276,118.586 369.534281,112.735 C367.412804,106.833 366.588026,98.58 366.20919,88.226 L364.0455,88.294 Z M379.880812,122.862 C376.352233,123.21 373.558594,123.976 371.378668,125.336 C369.177094,126.709 367.695307,128.63 366.681111,131.121 C365.674491,133.587 365.117062,136.638 364.75771,140.318 C364.398358,144.003 364.232753,148.394 364.0455,153.559 L366.210273,153.626 C366.397526,148.445 366.560966,144.116 366.913824,140.497 C367.267764,136.874 367.804628,134.037 368.706256,131.826 C369.59706,129.638 370.833145,128.089 372.589858,126.993 C374.368219,125.884 376.773281,125.18 380.110278,124.851 L379.87973,122.862 L379.880812,122.862 Z M366.210273,153.609 C366.372631,144.649 366.43108,137.607 364.845384,132.571 C364.040088,130.018 362.795344,127.909 360.870861,126.309 C358.94746,124.709 356.431994,123.689 353.218389,123.172 L352.848213,125.142 C355.771739,125.612 357.87698,126.51 359.422628,127.795 C360.968276,129.081 362.04092,130.826 362.767202,133.13 C364.24033,137.81 364.210023,144.499 364.044418,153.576 L366.20919,153.609 L366.210273,153.609 Z M353.308227,125.124 C355.783645,124.523 357.856415,123.414 359.551432,121.674 C361.23346,119.946 362.495523,117.644 363.448023,114.714 C365.342199,108.886 366.073892,100.339 366.210273,88.27 L364.0455,88.25 C363.909119,100.323 363.170932,108.612 361.375253,114.14 C360.481202,116.89 359.343614,118.896 357.941923,120.336 C356.553222,121.762 354.860369,122.679 352.757293,123.19 L353.30931,125.124 L353.308227,125.124 Z" id="Shape" fill-opacity="0.4" fill="#FFFFFF" fill-rule="nonzero" mask="url(#mask-8)"></path>
                <mask id="mask-10" fill="white">
                    <use xlink:href="#path-9"></use>
                </mask>
                <g id="Path"></g>
            </g>
            <path d="M130.048722,269.153 C113.775043,266.437 110.202085,249.47 109.135935,222.117 C108.75277,254.017 105.001219,266.611 92.1229858,269.55 C109.388131,272.158 109.595949,284.612 109.135935,308.445 C110.191261,281.103 110.732455,270.945 130.049804,269.153 L130.048722,269.153 Z" id="Path" fill="#F1D67F" fill-rule="nonzero"></path>
            <g id="Clipped">
                <mask id="mask-12" fill="white">
                    <use xlink:href="#path-11"></use>
                </mask>
                <g id="Path"></g>
                <path d="M109.134852,222.117 L110.217239,222.081 C110.209766,221.528715 109.719108,221.086596 109.121322,221.0935 C108.523537,221.100404 108.044994,221.553715 108.052466,222.106 L109.134852,222.117 L109.134852,222.117 Z M130.049804,269.153 L130.158043,270.148 C130.6966,270.099778 131.11388,269.691535 131.135179,269.192027 C131.156477,268.692519 130.775251,268.255214 130.242469,268.168 L130.049804,269.153 L130.049804,269.153 Z M109.134852,308.445 L108.052466,308.428 C108.036625,308.980285 108.508384,309.439864 109.106169,309.4545 C109.703955,309.469136 110.201397,309.033285 110.217239,308.481 L109.134852,308.445 Z M92.1229858,269.55 L91.8632131,268.58 C91.3651193,268.694857 91.0228741,269.117178 91.0438427,269.591081 C91.0648114,270.064983 91.443225,270.460087 91.949804,270.537 L92.1229858,269.55 Z M108.053548,222.153 C108.586082,235.827 109.746401,247.047 112.868003,255.207 C114.435298,259.302 116.514562,262.68 119.306037,265.217 C122.109418,267.767 125.586043,269.424 129.856057,270.137 L130.241386,268.169 C126.37402,267.524 123.301125,266.043 120.824625,263.792 C118.335136,261.53 116.404159,258.447 114.909384,254.541 C111.910091,246.701 110.749773,235.761 110.217239,222.081 L108.053548,222.153 L108.053548,222.153 Z M129.941565,268.158 C125.024284,268.614 121.182895,269.611 118.202003,271.358 C115.195134,273.121 113.151588,275.594 111.740156,278.845 C110.341713,282.069 109.56023,286.071 109.055838,290.927 C108.551446,295.789 108.318733,301.583 108.054631,308.41 L110.218321,308.481 C110.482423,301.637 110.712972,295.908 111.210869,291.118 C111.708767,286.324 112.466437,282.548 113.750148,279.59 C115.020869,276.66 116.800312,274.548 119.361239,273.047 C121.948142,271.532 125.41719,270.587 130.158043,270.147 L129.941565,268.157 L129.941565,268.158 Z M110.217239,308.463 C110.446705,296.608 110.525719,287.349 108.310074,280.742 C107.188722,277.399 105.463398,274.672 102.828869,272.612 C100.19867,270.557 96.7469403,269.235 92.29725,268.563 L91.949804,270.537 C96.1321449,271.169 99.1812273,272.381 101.431509,274.139 C103.676378,275.894 105.211202,278.259 106.242716,281.334 C108.331722,287.564 108.285179,296.449 108.054631,308.428 L110.219403,308.463 L110.217239,308.463 Z M92.3827585,270.521 C95.7771222,269.746 98.6151392,268.321 100.94227,266.076 C103.258577,263.842 105.01529,260.846 106.345543,256.998 C108.996307,249.337 110.025656,238.076 110.218321,222.128 L108.053548,222.106 C107.861966,238.058 106.823957,249.044 104.283597,256.389 C103.019369,260.046 101.400119,262.743 99.3782216,264.693 C97.3682301,266.633 94.9079659,267.884 91.8632131,268.579 L92.3827585,270.521 Z" id="Shape" fill-opacity="0.4" fill="#FFFFFF" fill-rule="nonzero" mask="url(#mask-12)"></path>
                <mask id="mask-14" fill="white">
                    <use xlink:href="#path-13"></use>
                </mask>
                <g id="Path"></g>
            </g>
            <path d="M208.297679,184.506 C177.395548,197.984 159.489631,202.296 125.839321,200.377 C73.0037131,196.865 46.9896392,201.539 6.34927841,220.481 M210.11717,159.826 C177.262415,168.511 158.838034,170.091 125.967043,163.172 C74.4411222,151.813 47.9497159,152.54 4.53086932,165.163 M208.889744,137.375 C174.863847,140.316 156.440548,138.733 125.51244,126.335 C77.1351818,106.395 50.9533381,102.6 5.75829545,107.612" id="Shape" stroke="#141414" stroke-width="3" stroke-linecap="round" stroke-linejoin="round"></path>
            <path d="M80.7709176,95.264 C81.9702017,94.912 85.1156165,93.596 87.4860426,91.815 L87.834571,94.605 C85.4792983,96.375 83.5093551,97.662 81.6508977,98.208 C79.6051875,98.808 77.8268267,98.482 76.028983,97.435 C76.014026,97.4262327 75.9992313,97.4172314 75.9846051,97.408 C73.8988466,96.1 72.4278835,95.778 70.8714119,96.114 C69.1515,96.484 67.0516705,97.708 63.8748665,100.239 L61.836733,97.896 C65.0341023,95.349 67.6697131,93.661 70.2338864,93.108 C72.9550057,92.522 75.3102784,93.257 77.7889432,94.807 C78.934108,95.469 79.7642983,95.56 80.7709176,95.264 L80.7709176,95.264 Z" id="Path" fill="#141414"></path>
            <ellipse id="Oval" fill="#141414" fill-rule="nonzero" cx="73.070821" cy="131.825" rx="11.8099176" ry="7.191"></ellipse>
            <path d="M83.8037642,132.414 L88.0975909,91.804" id="Path" stroke="#141414" stroke-width="2"></path>
            <path d="M138.569267,159.636 C139.023869,159.24 140.119244,157.988 140.755687,156.615 L141.585878,158.074 C140.954847,159.438 140.380099,160.474 139.676548,161.088 C138.90156,161.763 138.022662,161.889 136.960841,161.626 C136.952138,161.623807 136.943478,161.621474 136.934864,161.619 C135.680378,161.263 134.941108,161.339 134.323065,161.786 C133.638997,162.281 132.990648,163.306 132.173446,165.224 L130.690577,164.296 C131.51319,162.366 132.290344,160.998 133.309952,160.26 C134.391256,159.477 135.628423,159.475 137.116705,159.896 C137.792114,160.061 138.188267,159.969 138.569267,159.636 L138.569267,159.636 Z" id="Path" fill="#141414"></path>
            <ellipse id="Oval" fill="#141414" fill-rule="nonzero" transform="translate(143.946571, 180.846838) rotate(-22.313000) translate(-143.946571, -180.846838) " cx="143.946571" cy="180.846838" rx="5.67826434" ry="4.28303704"></ellipse>
            <path d="M132.363081,168.34023 L156.506918,167.773614" id="Path" stroke="#141414" stroke-width="1.99999692" transform="translate(144.435000, 168.056922) rotate(-107.513569) translate(-144.435000, -168.056922) "></path>
        </g>
        <text id="In-GraphQL-we-know-t" font-family="PhantomSans0.5-Medium, Phantom Sans0.5" font-size="48" font-weight="400">
            <tspan x="162.5" y="159" fill="#141414">In GraphQL we know that</tspan>
            <tspan x="162.5" y="212" fill="#141414">the </tspan>
            <tspan x="240.596" y="212" font-family="PhantomSans0.5-Semibold, Phantom Sans0.5" font-weight="500" fill="#D78F4F">input</tspan>
            <tspan x="358.26" y="212" fill="#141414">dictates the</tspan>
            <tspan x="617.012" y="212" font-family="PhantomSans0.5-Semibold, Phantom Sans0.5" font-weight="500" fill="#E28C40">output.</tspan>
        </text>
        <text id="Optimisations-are-au" font-family="PhantomSans0.5-Medium, Phantom Sans0.5" font-size="48" font-weight="400" fill="#141414">
            <tspan x="162.5" y="687">Optimisations are automatable. </tspan>
        </text>
    </g>
</svg>