<?xml version="1.0" encoding="UTF-8"?>
<svg viewBox="0 0 1056 454" version="1.1" xmlns="http://www.w3.org/2000/svg" xmlns:xlink="http://www.w3.org/1999/xlink">
    <!-- Generator: Sketch 53.2 (72643) - https://sketchapp.com -->
    <title>stream</title>
    <desc>Created with Sketch.</desc>
    <defs>
        <linearGradient x1="50.1841971%" y1="89.5933884%" x2="48.11619%" y2="12.9220782%" id="linearGradient-1">
            <stop stop-color="#797585" offset="4.83871%"></stop>
            <stop stop-color="#95919F" offset="100%"></stop>
        </linearGradient>
        <linearGradient x1="50.8421765%" y1="57.7216725%" x2="44.5007782%" y2="-1.17144778%" id="linearGradient-2">
            <stop stop-color="#282530" offset="0.806452%"></stop>
            <stop stop-color="#3A3842" offset="93.75%"></stop>
        </linearGradient>
        <ellipse id="path-3" cx="67.7860135" cy="70.5" rx="67.5" ry="70.5"></ellipse>
    </defs>
    <g id="stream" stroke="none" stroke-width="1" fill="none" fill-rule="evenodd">
        <g id="conveyor" transform="translate(54.966844, 68.000000)">
            <g id="Conveyor" transform="translate(666.000000, 71.000000)" stroke="#282530" stroke-linecap="round" stroke-linejoin="round">
                <polygon id="Path" stroke-width="4" fill="#F0EFF4" points="269.11 27.303 105.764 68.916 0.703 42.415 165.176 0.534"></polygon>
                <polygon id="Path" stroke-width="3" fill="#282530" points="106.387 68.789 107.037 76.815 269.05 33.806 269.05 27.909"></polygon>
            </g>
            <g id="Conveyor_2" transform="translate(501.000000, 113.000000)">
                <polygon id="Path" stroke="#282530" stroke-width="4" fill="#F0EFF4" stroke-linecap="round" stroke-linejoin="round" points="269.337 27.383 105.992 68.997 0.931 42.495 165.404 0.614"></polygon>
                <polygon id="Path" stroke="#282530" stroke-width="3" fill="#282530" stroke-linecap="round" stroke-linejoin="round" points="108.594 68.316 108.594 75.222 270.809 35.11 270.809 27.898"></polygon>
                <path d="M269.489,30.916 C269.265,28.93 270.191,27.196 271.557,27.041 C272.924,26.887 274.213,28.371 274.437,30.357 C274.662,32.342 273.736,34.077 272.369,34.231 C271.003,34.386 269.713,32.901 269.489,30.916 Z" id="Path" fill="#F0EFF4"></path>
            </g>
            <g id="Layer-1" transform="translate(314.000000, 0.000000)">
                <polygon id="Path" stroke="#282530" stroke-width="6" fill="url(#linearGradient-1)" stroke-linecap="round" stroke-linejoin="round" points="138.278 77.753 296.103 41.205 296.103 217.858 138.278 254.406"></polygon>
                <polygon id="Path" stroke="#282530" stroke-width="6" fill="#EBE9F0" stroke-linecap="round" stroke-linejoin="round" points="138.832 254.96 0.389 215.089 0.389 38.989 138.278 77.602"></polygon>
                <polygon id="Path" stroke="#282530" stroke-width="6" fill="#EBE9F0" stroke-linecap="round" stroke-linejoin="round" points="138.832 254.96 0.389 215.089 0.389 38.989 138.278 77.602"></polygon>
                <polygon id="Path" stroke="#282530" stroke-width="6" fill="#F0EEF3" stroke-linecap="round" stroke-linejoin="round" points="293.793 41.205 159.322 0.399 0.139 38.989 138.278 77.954"></polygon>
                <path d="M14.113,219.118 C14.113,219.118 14.09,125.865 14.113,105.56 C14.126,94.154 19.417,91.921 27.902,93.818 C49.017,98.539 80.409,107 105.867,112.53 C116.63,114.868 121.721,122.659 121.766,131.937 C121.89,157.934 121.766,250.497 121.766,250.497 L14.113,219.118 Z" id="Path" fill="url(#linearGradient-2)"></path>
                <polygon id="Path" stroke="#282530" stroke-width="4" fill="#F0EFF4" stroke-linecap="round" stroke-linejoin="round" points="119.163 226.022 15.181 197.727 119.163 171.857"></polygon>
            </g>
            <g id="Conveyor_3" transform="translate(162.000000, 197.000000)">
                <polygon id="Path" stroke="#282530" stroke-width="4" fill="#F0EFF4" stroke-linecap="round" stroke-linejoin="round" points="270.036 27.497 106.691 69.11 1.63 42.608 166.103 0.727"></polygon>
                <polygon id="Path" stroke="#282530" stroke-width="3" fill="#282530" stroke-linecap="round" stroke-linejoin="round" points="106.4 69.11 106.4 76.346 263.738 34.919 263.738 29.022"></polygon>
                <polygon id="Path" stroke="#282530" stroke-width="3" fill="#282530" stroke-linecap="round" stroke-linejoin="round" points="106.84 76.346 0.911 50.364 0.911 42.505 106.966 68.924"></polygon>
                <path d="M104.061,73.008 C103.837,71.022 104.763,69.287 106.13,69.133 C107.496,68.979 108.785,70.463 109.01,72.449 C109.234,74.434 108.308,76.169 106.942,76.323 C105.575,76.478 104.286,74.993 104.061,73.008 Z" id="Path" fill="#F0EFF4"></path>
            </g>
            <g id="Conveyor_4" transform="translate(0.000000, 239.000000)">
                <polygon id="Path" stroke="#282530" stroke-width="4" fill="#F0EFF4" stroke-linecap="round" stroke-linejoin="round" points="268.536 27.275 105.19 68.888 0.13 42.386 164.603 0.505"></polygon>
                <polygon id="Path" stroke="#282530" stroke-width="3" fill="#282530" stroke-linecap="round" stroke-linejoin="round" points="106.185 67.541 106.185 74.446 268.4 34.334 268.4 27.122"></polygon>
                <polygon id="Path" stroke="#282530" stroke-width="3" fill="#282530" stroke-linecap="round" stroke-linejoin="round" points="106.185 74.446 0.13 48.453 0.13 40.594 106.185 67.012"></polygon>
                <path d="M266.061,31.008 C265.837,29.022 266.763,27.287 268.13,27.133 C269.496,26.979 270.785,28.463 271.01,30.449 C271.234,32.434 270.308,34.169 268.942,34.323 C267.575,34.478 266.286,32.993 266.061,31.008 Z" id="Path" fill="#F0EFF4"></path>
            </g>
        </g>
        <path id="Line" d="M760.633581,317.850032 L458.132217,396.91874 C456.796384,397.267904 455.430424,396.46805 455.08126,395.132217 C454.732096,393.796384 455.53195,392.430424 456.867783,392.08126 L759.369147,313.012553 L756.771968,303.076256 C756.530363,302.151923 757.083824,301.206743 758.008157,300.965138 C758.267983,300.897224 758.540054,300.890737 758.802822,300.94619 L786.741876,306.842347 C787.676674,307.039623 788.274553,307.957351 788.077277,308.892148 C787.999989,309.258377 787.806003,309.589659 787.524436,309.836269 L766.044079,328.649819 C765.325379,329.279291 764.232469,329.206958 763.602997,328.488258 C763.426054,328.286234 763.298579,328.045788 763.230664,327.785962 L760.633581,317.850032 Z" fill="#282530" fill-rule="nonzero"></path>
        <g id="Group" transform="translate(587.473832, 239.500685) rotate(-3.000000) translate(-587.473832, -239.500685) translate(515.973832, 148.000685)">
            <ellipse id="Oval" fill="#15141A" cx="71.5" cy="71.5" rx="67.5" ry="70.5"></ellipse>
            <g id="Group-2" transform="translate(2.429735, 0.932695)">
                <mask id="mask-4" fill="white">
                    <use xlink:href="#path-3"></use>
                </mask>
                <use id="Oval" fill="#15141A" xlink:href="#path-3"></use>
                <polygon id="Path-2" fill="#87878A" mask="url(#mask-4)" points="3.08664801 82.3555296 136.131401 54.8174038 140.114994 103.708652 -1 131.445701"></polygon>
            </g>
            <path d="M65.4291089,43.0265222 C66.6254485,39.125691 66.6254485,32.0134122 69.5180187,30.9697035 C73.1776877,29.6492071 80.8101318,36.762714 80.8101318,36.762714 C80.8101318,36.762714 84.3093116,36.4276074 89.5563012,36.333396 C94.8028844,36.2391845 100.212788,36.333396 100.212788,36.333396 C100.212788,36.333396 108.098753,28.6291253 110.56539,29.7938492 C113.69034,31.2698286 114.676926,42.0435643 114.676926,42.0435643 C114.676926,42.0435643 115.998736,51.7517562 119.999975,62.0010477 C121.966147,67.0374535 133.321038,82.7534057 134.825403,101.930405 C133.620123,107.816435 132.900044,113.984701 118.652061,124.343588 C104.404079,134.702475 99.9759155,141.482917 77.8338795,143.366748 C55.6918435,145.250182 39.7115256,138.281317 30.0843238,131.877324 C20.4575283,125.473728 14.8740682,125.096882 5.24686633,105.697273 C4.0915696,80.6473624 49.9157663,74.9970603 60.3130305,53.3371717 C64.1637487,47.1219985 63.6805187,48.7285014 65.4291089,43.0265222 Z" id="Path" fill="#7D7989"></path>
            <g id="cat" transform="translate(-0.000000, 1.000000)">
                <path d="M7.84166842,72.0618395 C7.84166842,107.65031 36.3490086,136.483339 71.4932263,136.483339 C106.637201,136.483339 135.144784,107.650175 135.144784,72.0618395 C135.144784,36.4732606 106.637333,7.64033947 71.4932263,7.64033947 C36.3488768,7.64033947 7.84166842,36.4731259 7.84166842,72.0618395 Z M0.315352632,72.0618395 C0.315352632,32.3354686 32.172955,0.114023684 71.4932263,0.114023684 C110.813248,0.114023684 142.6711,32.3355969 142.6711,72.0618395 C142.6711,111.787833 110.813123,144.009655 71.4932263,144.009655 C32.1730802,144.009655 0.315352632,111.787961 0.315352632,72.0618395 Z" id="Path" fill="#282530" fill-rule="nonzero"></path>
                <path d="M67.3262816,44.9554368 C68.4341553,41.26265 68.61855,34.3388158 70.8342974,33.4153368 C74.1579184,32.0304947 80.4965816,39.2561342 80.4965816,39.2561342 C80.4965816,39.2561342 84.5318158,38.5821526 89.3908053,38.4929658 C94.2494184,38.4037789 99.9314105,38.8993868 99.9314105,38.8993868 C99.9314105,38.8993868 106.562095,31.1995895 108.846332,32.3021947 C111.7402,33.6994553 111.699182,44.0703421 111.699182,44.0703421 C111.699182,44.0703421 113.116763,52.80275 117.583255,62.7916763 C119.674442,67.4689053 129.919263,82.4372421 131.312384,100.591468 C130.196232,106.163576 129.5294,112.002868 116.335016,121.809282 C103.140632,131.615695 99.0399184,138.034513 78.5352237,139.817874 C58.0305289,141.600858 43.2319105,135.003666 34.3166132,128.941218 C25.4016921,122.879147 20.2311132,122.5224 11.3158158,104.157437 C10.24595,80.4435211 52.6815763,75.0945684 62.3099921,54.5898737 C65.8759605,48.7061763 65.7069947,50.3533105 67.3262816,44.9554368 Z" id="Path" fill="#C1BFC5"></path>
                <path d="M67.1616731,48.9323805 C66.9831116,49.3381269 66.7982437,49.6966277 66.579164,50.0663192 C66.4781092,50.2368466 64.4854464,53.1845057 63.3059029,55.1248646 C61.2913009,59.3855172 57.8773961,63.1887151 52.9996093,66.9395525 C49.2884284,69.7933131 45.6509044,72.0563249 38.3287878,76.27356 C38.1618286,76.3697216 37.0662443,77.0004097 36.7473715,77.1841366 C27.6174149,82.4445981 23.2888171,85.2804619 19.4389584,88.9334732 C14.6146633,93.5110968 12.251172,98.2866978 12.4346527,103.876617 C16.4605174,112.134443 19.8367872,116.99094 23.5685549,120.321058 C25.1184164,121.704108 26.6627095,122.800213 29.0237707,124.267342 C29.5009622,124.563861 31.3847726,125.716036 31.8434267,126.000213 C33.0074628,126.721437 33.9758533,127.344277 34.9514348,128.007664 C40.0317006,131.462271 45.8606921,134.302807 52.4004004,136.239087 C60.370368,138.598838 69.0521096,139.50927 78.4374047,138.693172 C90.1678787,137.672934 96.644847,135.287598 103.867507,130.039012 C105.61164,128.771579 113.279985,122.673251 115.661582,120.903186 C121.442826,116.606414 125.057346,112.898737 127.177648,109.382748 C128.741562,106.789388 129.291593,105.011305 130.089803,100.953483 C130.124236,100.778435 130.150487,100.645451 130.1747,100.52369 C129.5315,92.4375288 127.114768,84.4831052 123.316457,76.3097579 C121.497522,72.3957051 116.759447,63.7150478 116.552645,63.2525077 C114.57209,58.8231649 113.030822,54.3201519 111.875264,49.9753317 C111.470482,48.4533755 111.142618,47.0588133 110.885163,45.8206945 C110.794686,45.3855803 110.719394,45.0005393 110.658479,44.6692066 C110.621424,44.4676596 110.597141,44.3271258 110.584822,44.2512424 C110.574874,44.1899599 110.569997,44.1279612 110.570243,44.065877 L110.570252,44.0622202 C110.570485,43.9458772 110.568966,43.7555016 110.564056,43.5019649 C110.556221,43.0973687 110.54173,42.6511396 110.518965,42.1742239 C110.455165,40.8376186 110.339098,39.5067742 110.158877,38.2717697 C109.756989,35.5177296 109.061082,33.6595389 108.35557,33.3188927 C108.120808,33.2055731 106.973242,33.7628094 105.485493,34.9814975 C104.988596,35.3885305 104.4649,35.8541176 103.922833,36.3669001 C103.167321,37.0815963 102.415114,37.8501533 101.702846,38.6189519 C101.45347,38.8881191 101.227153,39.1378147 101.028333,39.3614234 C100.910156,39.4943341 100.828202,39.5880799 100.786875,39.6360705 C100.549918,39.9112334 100.195067,40.0556179 99.8333113,40.024064 C99.7979755,40.0209819 99.7277605,40.0150453 99.6251265,40.0066618 C99.4529058,39.9925941 99.253172,39.9768929 99.0283877,39.9599653 C98.3850334,39.9115169 97.6709051,39.8630382 96.9057502,39.8177846 C94.9689689,39.7032373 93.0451847,39.628927 91.2525877,39.6139229 C90.6113884,39.608556 89.996541,39.6109842 89.4115236,39.621723 C87.4517234,39.6576952 85.4848655,39.791598 83.593244,39.9923422 C82.8096869,40.0754955 82.0931939,40.1645153 81.4593315,40.2533855 C81.2384805,40.2843497 81.0440628,40.3130247 80.8780179,40.3386568 C80.7799974,40.3537881 80.7142014,40.3643727 80.6825667,40.3696564 C80.2970529,40.4340465 79.9056602,40.2944507 79.6479074,40.0006302 C79.612146,39.9598646 79.5388165,39.8780559 79.4314557,39.761129 C79.2497373,39.563219 79.0409577,39.3419093 78.8086972,39.1031488 C78.1447343,38.4206041 77.4286771,37.7381248 76.6904674,37.1038344 C75.7852307,36.3260298 74.9116019,35.6776637 74.1034209,35.2033985 C72.8304174,34.4563614 71.8434817,34.2178697 71.2686084,34.4574002 C70.6278531,34.7244541 70.0657226,36.5161455 69.3897241,40.4762735 C69.3684986,40.6006166 69.3436351,40.7467261 69.2975396,41.0176433 C68.9251768,43.2041721 68.7176875,44.2463015 68.4076176,45.2798356 C67.8514513,47.1338089 67.5115856,48.1372721 67.1616731,48.9323805 Z M112.879155,44.2609381 C112.936954,44.5753215 113.008898,44.9432377 113.095772,45.3610212 C113.345036,46.5597529 113.663468,47.9141952 114.057303,49.394992 C115.183513,53.6294662 116.68624,58.0198772 118.613882,62.3308835 C118.774057,62.6891368 123.501544,71.3503951 125.364049,75.3582028 C129.291467,83.8093668 131.790111,92.0619365 132.438022,100.505089 C132.445932,100.608165 132.439647,100.711839 132.419342,100.813204 C132.386181,100.978753 132.354081,101.140996 132.305242,101.38928 C131.459963,105.686384 130.845468,107.67286 129.111174,110.548753 C126.822979,114.343151 123.008348,118.256095 117.00845,122.715377 C114.67013,124.453278 106.988997,130.561775 105.194833,131.865565 C97.6373259,137.357479 90.7685469,139.887111 78.6330222,140.942577 C68.9629554,141.783437 59.9976582,140.84327 51.7593884,138.404079 C44.9875033,136.399056 38.9485914,133.456223 33.6818001,129.874779 C32.7358513,129.231541 31.7931579,128.625229 30.6542217,127.919557 C30.2034247,127.640248 28.3179407,126.48705 27.832078,126.185142 C25.3701424,124.655331 23.7293352,123.490722 22.065218,122.005714 C18.0540401,118.426259 14.4902062,113.281589 10.3002135,104.650462 C10.2331185,104.512251 10.19494,104.361799 10.1880156,104.208318 C9.89886445,97.7991907 12.5538719,92.3539362 17.8848086,87.295576 C21.9088369,83.4773006 26.3336088,80.5784288 35.6201476,75.2277483 C35.9394802,75.0437566 37.0352857,74.412941 37.2018834,74.3169877 C44.4382191,70.1491588 48.0172544,67.9225346 51.6232478,65.1496593 C56.2601159,61.5840794 59.4507784,58.0227849 61.2880994,54.1100222 C61.3050366,54.0739527 61.3238716,54.0388052 61.3445254,54.0047274 C62.5607087,51.9980763 64.5787346,49.0130815 64.6367238,48.9152264 C64.8100994,48.6226592 64.9534108,48.3447461 65.0950502,48.0228979 C65.3971782,47.3363707 65.7139847,46.4009899 66.244942,44.63105 C66.5186209,43.7188181 66.7157009,42.7289707 67.0716908,40.6385843 C67.1176986,40.3681822 67.142683,40.2213623 67.1640238,40.0963438 C67.5447174,37.8661681 67.7859519,36.6875767 68.13903,35.562203 C68.6614967,33.896933 69.331281,32.8186884 70.4000868,32.3732316 C71.7950992,31.7919764 73.4207118,32.1848036 75.2461859,33.2560473 C76.1845993,33.8067368 77.1621542,34.532232 78.1619432,35.3912785 C78.9556353,36.0732409 79.7192339,36.8010324 80.4271484,37.5287586 C80.6055237,37.712126 80.7713236,37.8862742 80.9232956,38.0490411 C80.9944663,38.0387488 81.0686686,38.0281794 81.1458315,38.0173608 C81.8039533,37.9250894 82.5454131,37.8329676 83.3549679,37.7470553 C85.3082456,37.539768 87.3395223,37.4014796 89.3700853,37.3642086 C89.9760532,37.3530852 90.6108919,37.350578 91.2714858,37.3561072 C93.1065178,37.3714666 95.0669733,37.4471933 97.0390562,37.5638284 C97.8168348,37.6098287 98.5429629,37.659122 99.1979404,37.7084457 C99.2891136,37.7153116 99.3763224,37.7219854 99.4594138,37.7284418 C99.6378841,37.5292898 99.8343652,37.3134498 100.046541,37.084435 C100.790256,36.2816934 101.576157,35.4787103 102.371181,34.7266357 C102.950055,34.1790349 103.513169,33.678404 104.054697,33.2348117 C106.25851,31.4295599 107.942007,30.6120861 109.337203,31.2855497 C111.00506,32.0908488 111.879417,34.4255345 112.393109,37.9457353 C112.585071,39.2612029 112.707259,40.6622204 112.774292,42.0665704 C112.798115,42.5656448 112.813294,43.033068 112.821528,43.458249 C112.825679,43.672608 112.827573,43.8468126 112.828047,43.9755358 C112.839866,44.0440273 112.856829,44.1395019 112.879155,44.2609381 Z" id="Path" fill="#282530" fill-rule="nonzero"></path>
                <path d="M24.5628842,120.651734 C26.8881395,119.489295 32.9569842,121.812668 34.3595132,123.495929 C38.6333316,128.624361 40.0648368,136.213521 39.2053316,143.089563 C37.7994158,154.336513 22.8472605,154.740676 16.6621342,162.472461 C13.8551947,165.981229 11.6669184,169.391026 10.5522711,173.849239 C9.48692105,178.111392 12.2833237,181.263037 16.1356684,178.695058 C16.8322289,178.346589 18.8744947,170.478203 22.4558921,166.686068 C26.0376658,162.893558 33.6584368,161.400713 38.0466553,159.206792 C43.9314816,156.264379 49.2698974,146.75375 49.6341711,140.561097 C50.2663816,129.816529 49.6842211,121.142074 40.3640079,114.331134 C37.6251816,112.329511 34.3595132,109.485316 30.6727474,109.379947 L24.5628842,120.651734 Z" id="Path" fill="#C1BFC5"></path>
                <path d="M15.5212948,177.660918 C15.6694075,177.337883 15.8338909,176.93708 16.1610512,176.112621 C17.1094162,173.722697 17.5135265,172.753452 18.1909015,171.350862 C19.2604703,169.136184 20.3320553,167.216099 21.6015952,166.060352 C25.3088781,162.685365 30.0691077,161.876521 34.1096439,159.758236 C40.8859868,156.205683 48.111221,146.799601 48.4733045,140.644182 C48.8486309,134.265421 48.6599279,130.143204 47.6110679,126.427061 C46.370389,122.031297 43.8858297,118.476918 39.6644401,115.39205 C39.2877028,115.116756 37.9131879,114.083878 37.6408664,113.882915 C34.7043448,111.715868 32.7103936,110.717951 30.6066299,110.657831 C29.9833839,110.640021 29.4925816,110.120342 29.5103923,109.497096 C29.5282029,108.87385 30.047882,108.383047 30.671128,108.400858 C33.3705498,108.478 35.6972464,109.642446 38.9815678,112.066157 C39.2662033,112.276208 40.63493,113.304736 40.9966144,113.56903 C45.6239628,116.950561 48.4056703,120.930037 49.7840683,125.813744 C50.9177954,129.830574 51.1162682,134.166213 50.7273019,140.776789 C50.3197366,147.705399 40.9348566,159.136194 34.8593836,161.571311 C31.0164111,163.111617 27.0014385,164.29014 23.2431257,167.610663 C22.1607994,168.566915 21.201788,170.308368 20.2241034,172.332787 C19.5786227,173.669337 19.1876147,174.607156 18.2597486,176.945422 C17.2869261,179.396981 17.2173556,179.548714 16.6068988,179.854107 C16.0492833,180.133066 15.3711062,179.90717 15.0921479,179.349554 C14.8586088,178.882728 14.9789095,178.331404 15.351461,178.000567 C15.3941737,177.926866 15.4517594,177.812575 15.5212948,177.660918 Z" id="Path" fill="#282530" fill-rule="nonzero"></path>
                <path d="M14.8432986,178.326254 C15.3620589,177.980363 16.0629972,178.120501 16.4088881,178.639262 C16.754779,179.158022 16.6146406,179.85896 16.0958803,180.204851 C11.4344512,183.312926 7.45046112,179.510718 8.79133404,174.146279 C9.84080934,169.948732 11.7550355,166.537503 15.1148718,162.337707 C17.2874358,159.622002 19.772585,158.047987 25.4919576,155.209827 C25.6415071,155.135625 25.6415071,155.135625 25.7908561,155.061531 C29.9375972,153.004095 31.7460948,151.970091 33.5236579,150.455209 C35.7777181,148.534244 37.0664641,146.343512 37.4193994,143.520029 C38.2989516,136.483612 36.6608737,129.390642 32.8265609,124.789196 C31.5338479,123.238079 25.9969344,121.434554 24.4020622,122.23199 C23.8443865,122.510828 23.1662582,122.284785 22.8874204,121.72711 C22.6085825,121.169434 22.8346252,120.491306 23.392301,120.212468 C26.0271481,118.895044 32.6519511,121.052925 34.5611128,123.343714 C38.8298492,128.466499 40.611971,136.183186 39.6598584,143.800087 C39.2329506,147.21535 37.6511222,149.904291 34.9881977,152.1737 C33.0205645,153.850565 31.1098863,154.94299 26.7943946,157.084153 C26.6449338,157.158303 26.6449338,157.158303 26.4956242,157.232386 C21.0758311,159.921883 18.7714081,161.381432 16.8779914,163.748203 C13.7038499,167.71588 11.9410572,170.857248 10.9818196,174.693875 C10.094533,178.243648 12.0986292,180.156302 14.8432986,178.326254 Z" id="Path" fill="#282530" fill-rule="nonzero"></path>
                <path d="M78.0016627,80.6450656 C78.1875546,80.2732817 78.6396401,80.1225866 79.0114239,80.3084785 C79.3832077,80.4943704 79.5339029,80.9464559 79.348011,81.3182397 C78.1623836,83.6894945 77.3072469,85.2227389 76.1890962,86.7823161 C74.5611487,89.0529487 72.8795459,90.5276362 71.0620131,90.9819712 C67.3322548,91.914508 65.0500271,90.4041079 64.7873384,87.3605266 C64.5727924,84.8747396 65.8004814,81.7309526 67.7138065,79.8176275 C68.0077274,79.5237066 68.4842673,79.5237066 68.7781883,79.8176275 C69.0721092,80.1115484 69.0721092,80.5880884 68.7781883,80.8820093 C67.1706813,82.4895163 66.1118111,85.2010026 66.2870261,87.2310899 C66.4678166,89.3257764 67.8422578,90.2353947 70.6969335,89.5216514 C72.0882276,89.1738647 73.5267434,87.9123532 74.9657611,85.9052366 C76.0245879,84.4284035 76.8496925,82.9490059 78.0016627,80.6450656 Z" id="Path" fill="#282530" fill-rule="nonzero"></path>
                <path d="M94.1834052,79.8501825 C94.0519929,79.4558352 94.2651438,79.0296228 94.6594912,78.8982105 C95.0538385,78.7667982 95.4800509,78.9799491 95.6114632,79.3742964 C96.8205827,83.0026704 99.7283451,87.4338639 102.129383,88.3943362 C105.082868,89.5757006 106.953858,88.4437371 107.608675,85.6697978 C108.237518,83.0058925 107.451313,79.6417373 105.742022,77.9324462 C105.448101,77.6385252 105.448101,77.1619853 105.742022,76.8680644 C106.035943,76.5741435 106.512483,76.5741435 106.806404,76.8680644 C108.905121,78.9667818 109.816771,82.8677141 109.073674,86.0156259 C108.217363,89.6431327 105.423778,91.3332734 101.570334,89.7919346 C98.6427799,88.6208433 95.5206034,83.8629003 94.1834052,79.8501825 Z" id="Path" fill="#282530" fill-rule="nonzero"></path>
                <path d="M104.490757,84.7460108 C104.389918,84.3427608 104.635071,83.9341162 105.038321,83.8332776 C105.441571,83.7324389 105.850215,83.9775918 105.951054,84.3808418 C106.197115,85.3648319 106.23018,85.5086994 106.309337,85.9874519 C106.381733,86.4253158 106.312209,85.91224 106.71656,88.9459102 C106.771478,89.3579333 106.481987,89.7364636 106.069964,89.7913812 C105.65794,89.8462989 105.27941,89.5568077 105.224492,89.1447846 C104.82687,86.1615977 104.89245,86.6455678 104.824236,86.2329988 C104.75409,85.8087449 104.726621,85.6892253 104.490757,84.7460108 Z" id="Path" fill="#282530" fill-rule="nonzero"></path>
                <path d="M101.014916,84.7482543 C100.912838,84.3453161 101.156734,83.9359199 101.559672,83.8338422 C101.96261,83.7317646 102.372006,83.9756602 102.474084,84.3785984 C102.499761,84.4799541 102.524419,84.5750139 102.555283,84.6922298 C102.552613,84.6820864 102.61347,84.9125143 102.630004,84.9758088 C102.64612,85.037663 102.652114,85.0608231 102.662296,85.1006364 C102.847181,85.8235272 103.011969,86.670928 103.359187,88.7537507 C103.427537,89.1637594 103.150569,89.5515464 102.74056,89.6198971 C102.330551,89.6882478 101.942764,89.4112792 101.874413,89.0012704 C101.533687,86.9573859 101.375779,86.1453679 101.203973,85.4736129 C101.194469,85.436453 101.188907,85.4149609 101.173613,85.356256 C101.157683,85.2952765 101.097443,85.0671863 101.099636,85.0755151 C101.067671,84.954118 101.041893,84.8547417 101.014916,84.7482543 Z" id="Path" fill="#282530" fill-rule="nonzero"></path>
                <path d="M70.9971372,85.1899064 C71.2328677,84.8475467 71.7015024,84.7611067 72.043862,84.9968372 C72.3862217,85.2325677 72.4726617,85.7012024 72.2369312,86.043562 C71.035052,87.7890934 69.8355561,89.8714304 69.7031986,90.5342873 C69.6218061,90.9419076 69.2253829,91.2063674 68.8177627,91.1249749 C68.4101424,91.0435824 68.1456826,90.6471592 68.2270751,90.239539 C68.4163978,89.2913953 69.6621567,87.1287453 70.9971372,85.1899064 Z" id="Path" fill="#282530" fill-rule="nonzero"></path>
                <path d="M67.9473864,84.3668167 C68.1231011,83.9901161 68.5709222,83.8271848 68.9476228,84.0028995 C69.3243234,84.1786143 69.4872547,84.6264354 69.3115399,85.003136 C69.187464,85.2691324 69.0800347,85.491669 68.9684324,85.7159947 C68.9183787,85.8166049 68.7593208,86.1319173 68.7262335,86.1985018 C68.7073336,86.2366067 68.7073336,86.2366067 68.6886618,86.2745809 C68.3989431,86.8652654 68.1001747,87.6055674 67.3228385,89.6983957 C67.1781089,90.0880523 66.7449032,90.286605 66.3552465,90.1418753 C65.9655898,89.9971457 65.7670371,89.56394 65.9117668,89.1742833 C66.705841,87.036391 67.0188777,86.2607345 67.3372063,85.6117196 C67.3577586,85.5699211 67.3577586,85.5699211 67.3782292,85.5286499 C67.4139532,85.4567592 67.5732215,85.1410299 67.6207397,85.0455161 C67.7268592,84.832211 67.8288103,84.6210224 67.9473864,84.3668167 Z" id="Path" fill="#282530" fill-rule="nonzero"></path>
                <path d="M87.9866952,51.5990218 C87.8748222,51.1986926 88.1086622,50.7834708 88.5089914,50.6715978 C88.9093205,50.5597248 89.3245424,50.7935648 89.4364154,51.193894 C90.3613838,54.5038259 88.5546202,58.2924463 85.9222758,57.634752 C84.1835012,57.2000583 83.5124842,55.1928147 84.4080132,53.7002664 C84.6218721,53.3438349 85.0841838,53.228257 85.4406152,53.4421159 C85.7970467,53.6559747 85.9126246,54.1182864 85.6987657,54.4747179 C85.2978246,55.1429531 85.5838507,55.998556 86.2872535,56.1744067 C87.4654344,56.4687765 88.6521567,53.980327 87.9866952,51.5990218 Z" id="Path" fill="#282530" fill-rule="nonzero"></path>
                <path d="M88.4217543,52.6128612 C88.1911837,52.2670054 88.2846409,51.7997195 88.6304967,51.569149 C88.9763525,51.3385785 89.4436384,51.4320356 89.6742089,51.7778914 C89.9294987,52.1608261 90.0599458,52.529608 90.270335,53.3054929 C90.3069368,53.4407988 90.3246568,53.5061114 90.3430832,53.5729478 C90.6369063,54.6387022 90.8782932,55.0144125 91.382064,55.1151667 C92.6910025,55.3771103 93.6439612,53.9454403 92.720367,53.0218462 C92.4264461,52.7279252 92.4264461,52.2513853 92.720367,51.9574644 C93.0142879,51.6635435 93.4908279,51.6635435 93.7847488,51.9574644 C95.8377953,54.0105109 93.7634801,57.126842 91.0867731,56.5911818 C89.8371649,56.3412601 89.3251692,55.5443566 88.8919585,53.9730155 C88.87258,53.9027257 88.8539315,53.8339908 88.8175352,53.6994346 C88.6511759,53.0859257 88.5540199,52.8112597 88.4217543,52.6128612 Z" id="Path" fill="#282530" fill-rule="nonzero"></path>
                <path d="M88.7077764,51.9519013 C88.0747749,51.8589433 87.6671235,51.6462783 86.7352238,51.0055666 C86.1799163,50.6239255 85.8027566,50.2891264 85.5831025,49.8835736 C85.160315,49.1029704 85.522779,48.3378232 86.4559434,47.9644984 C87.9042763,47.3850274 91.2344006,47.4845171 91.8654031,48.747034 C92.0228784,49.0619845 91.9661069,49.3436539 91.8189048,49.603912 C91.7526678,49.7210212 91.6667954,49.831291 91.554586,49.9546201 C91.4751199,50.0419611 91.3835572,50.134468 91.263514,50.250548 C91.1987606,50.3131635 90.9702655,50.5305642 90.9574188,50.5428633 C90.8959883,50.601675 90.8447288,50.65136 90.7972659,50.6982465 C90.7768172,50.7184874 90.7768172,50.7184874 90.7563223,50.7389515 C90.6986195,50.796608 90.6387676,50.862759 90.5588529,50.9561684 C90.5475692,50.9693575 90.4047621,51.1381966 90.3601852,51.1895717 C89.8519805,51.7752793 89.3995431,52.0529367 88.7077764,51.9519013 Z" id="Path" fill="#282530" fill-rule="nonzero"></path>
                <path d="M79.4276333,38.620412 C79.181078,38.7267024 72.9768645,33.6899752 72.7612991,33.5299168 L70.778549,34.426529 C70.0427799,35.299053 69.577355,36.1049065 69.3822743,36.8440893 C68.9952306,38.3106413 68.5874688,40.8133902 68.1589889,44.3523359 C68.148609,44.3916666 68.1350576,44.4300911 68.1184679,44.4672317 L63.598539,54.5863633 C63.5853303,54.6159347 63.5702266,54.6446226 63.5533221,54.6722482 L60.0815997,60.3457921 C60.2261939,60.5353679 60.4597213,60.763611 60.7906323,61.0434846 C60.86207,61.1039042 60.9366459,61.1657668 61.0316635,61.2436919 C61.0562113,61.2638239 61.2235976,61.4006719 61.2711406,61.4397709 C61.4709231,61.6040705 61.5999993,61.715064 61.7136128,61.8239471 C61.7311697,61.8407826 61.7311697,61.8407826 61.7487192,61.857613 C61.8676668,61.9717105 61.8676668,61.9717105 61.9862934,62.0854739 C62.0765741,62.1720281 62.1513339,62.243613 62.2229657,62.3120689 C64.2144269,64.2152359 65.3568737,65.1238019 66.6485541,65.6830377 C68.2284855,66.3670723 69.7570154,66.2874206 71.4899884,65.2872976 C78.2299231,61.3980468 82.2290051,54.1416933 81.8375382,46.1715256 C81.8346317,46.1120159 81.8317283,46.0457642 81.8286671,45.9697915 C81.8251542,45.882611 81.8216132,45.7876042 81.8166668,45.6496212 C81.8104013,45.4736335 81.8068384,45.3737261 81.8035335,45.2831361 C81.7918197,44.9620583 81.7812644,44.7019291 81.7686351,44.4356861 C81.7347936,43.7222584 81.6907961,43.0820831 81.6296003,42.478085 C81.5155061,41.3519829 81.3469474,40.4405205 81.1293762,39.8135888 L79.4276333,38.620412 Z" id="Path" fill="#282530" fill-rule="nonzero"></path>
                <path d="M102.113549,35.3824097 C102.171751,35.3060929 102.244012,35.2416124 102.326438,35.1924437 L108.315127,31.6200779 C108.706896,31.3863805 109.21483,31.5521485 109.393323,31.9719549 L112.229991,38.6436575 C112.248616,38.6874628 112.263044,38.7329362 112.27308,38.7794665 L116.895743,60.212156 C116.986599,60.633405 116.705881,61.0447841 116.280502,61.1137638 C116.238337,61.1206013 116.159037,61.1330954 116.045391,61.1504377 C115.857264,61.1791459 115.64039,61.211082 115.397557,61.2454374 C114.704893,61.3434338 113.941999,61.4413728 113.131095,61.5327801 C111.398389,61.7280955 109.688848,61.8666507 108.08592,61.9235255 C106.943399,61.9640642 105.886242,61.961551 104.930748,61.9103948 C104.817291,61.9043459 104.817291,61.9043459 104.704365,61.8983603 C101.305681,61.7177575 99.8866446,61.0925142 98.224775,58.2843315 C97.8173472,57.5958709 97.42026,56.7819442 97.0258239,55.8245756 C96.3002431,54.0638752 95.683921,51.6463518 95.1607742,48.7269256 C94.7726008,46.56072 94.4578189,44.2437343 94.2100366,41.9273029 C94.123357,41.1169653 94.051216,40.364361 93.9928745,39.6885704 C93.972424,39.4516845 93.9551507,39.2411914 93.9409634,39.0594802 C93.9324029,38.9498375 93.9267473,38.8737686 93.9239058,38.8336641 C93.89246,38.3898487 94.250807,38.0157699 94.6955633,38.0281299 L99.9837725,38.1750928 L102.113549,35.3824097 Z" id="Path" fill="#282530" fill-rule="nonzero"></path>
                <path d="M71.5255895,46.7651395 C71.5255895,47.785688 72.452239,48.6391921 73.6246789,48.6391921 C74.7974509,48.6391921 75.7241447,47.785725 75.7241447,46.7651395 C75.7241447,45.7446619 74.7975589,44.8914632 73.6246789,44.8914632 C72.452131,44.8914632 71.5255895,45.7446988 71.5255895,46.7651395 Z M70.0203263,46.7651395 C70.0203263,44.8843937 71.6472375,43.3862 73.6246789,43.3862 C75.6024247,43.3862 77.2294079,44.8843235 77.2294079,46.7651395 C77.2294079,48.6459911 75.6023768,50.1444553 73.6246789,50.1444553 C71.6472854,50.1444553 70.0203263,48.6459208 70.0203263,46.7651395 Z" id="Path" fill="#F0EFF4" fill-rule="nonzero"></path>
                <path d="M99.6762684,45.3543316 C99.6762684,46.3748801 100.602918,47.2283842 101.775358,47.2283842 C102.94803,47.2283842 103.874447,46.3750165 103.874447,45.3543316 C103.874447,44.3339829 102.947982,43.4806553 101.775358,43.4806553 C100.602966,43.4806553 99.6762684,44.3341192 99.6762684,45.3543316 Z M98.1710053,45.3543316 C98.1710053,43.4738503 99.7980425,41.9753921 101.775358,41.9753921 C103.752933,41.9753921 105.379711,43.4737472 105.379711,45.3543316 C105.379711,47.235216 103.753012,48.7336474 101.775358,48.7336474 C99.7979643,48.7336474 98.1710053,47.2351129 98.1710053,45.3543316 Z" id="Path" fill="#F0EFF4" fill-rule="nonzero"></path>
                <path d="M81.2187316,99.0884632 C61.6999842,99.3078553 60.2410079,115.149245 56.6355263,124.818679 C53.0300447,134.488113 57.1405421,137.685292 58.4380789,137.929897 C62.14065,138.627587 69.9104421,138.913211 78.1047184,138.913211 C91.0642816,138.913211 99.7184158,133.135634 100.885371,132.357789 C101.875834,131.696979 95.8047316,98.9243895 81.2187316,99.0884632 Z" id="Path" fill="#E1E1E1"></path>
                <path d="M90.1901,136.951476 C92.1337711,133.064511 90.7402737,124.596653 93.7959579,122.152105 C95.8596737,120.501208 98.3900211,121.554139 98.7542947,124.105184 C99.2333447,127.457782 98.1472974,132.340479 96.2751263,135.148547 C96.2751263,135.148547 95.0039316,138.777737 93.4644237,139.161579 C90.3553026,139.936789 90.1901,136.951476 90.1901,136.951476 Z" id="Path" fill="#C1BFC5"></path>
                <path d="M90.9808725,137.161437 C91.0254264,137.372503 91.0959661,137.582636 91.1950271,137.772193 C91.5428937,138.437848 92.1339818,138.71763 93.2823458,138.431304 C93.6538323,138.338682 94.1838919,137.739901 94.701675,136.806379 C94.9323635,136.390466 95.1451172,135.940575 95.3335525,135.490202 C95.3996077,135.332326 95.4577508,135.18603 95.5073327,135.055369 C95.5364485,134.978641 95.5558124,134.925428 95.5648084,134.899745 C95.5856622,134.840208 95.6139182,134.78353 95.6489119,134.731043 C97.4126639,132.085592 98.4635541,127.391195 98.0092209,124.211576 C97.7241956,122.215516 95.8579636,121.466397 94.2661231,122.739812 C93.0579139,123.706379 92.6307756,125.556891 92.2182048,130.270019 L92.2129747,130.329774 C91.8896152,134.024339 91.641917,135.628236 90.9646069,137.07852 C90.9692199,137.104058 90.9746138,137.131787 90.9808725,137.161437 Z M96.9146766,135.58941 C96.8593104,135.735315 96.7949739,135.897194 96.722171,136.071198 C96.5138689,136.569054 96.2782038,137.067393 96.0180143,137.536494 C95.3081551,138.816313 94.5570153,139.664838 93.6465061,139.891853 C91.8115491,140.349371 90.5252429,139.740518 89.8609508,138.469371 C89.5733267,137.918992 89.4602012,137.38308 89.4386182,136.993062 C89.4313836,136.862329 89.4583794,136.731971 89.5169389,136.614863 C90.1509996,135.346865 90.3935978,133.852954 90.713444,130.198531 L90.7186759,130.138756 C90.9377376,127.636237 91.0721321,126.515877 91.3573487,125.28022 C91.7530251,123.566011 92.3612971,122.335995 93.3258057,121.564388 C95.8303922,119.56081 99.0502066,120.853267 99.4993586,123.998723 C100.001467,127.512695 98.8909566,132.52336 96.952418,135.488683 C96.9416964,135.517719 96.9291021,135.551395 96.9146766,135.58941 Z" id="Path" fill="#282530" fill-rule="nonzero"></path>
                <path d="M71.6618158,142.283495 C74.0472816,142.1706 75.9164421,139.580795 75.9164421,139.580795 C72.2545132,135.186179 70.4805605,126.212929 66.2255579,122.903232 C62.9158605,120.329232 56.3243132,120.184726 57.8115132,126.133903 C59.1030289,131.299589 62.6505579,136.306471 66.3757079,140.031621 C66.3757079,140.031621 69.2767263,142.396013 71.6618158,142.283495 Z" id="Path" fill="#C1BFC5"></path>
                <path d="M71.6973951,143.035285 C71.2823344,143.054866 70.8495583,143.013443 70.4009798,142.917809 C69.5202706,142.730048 68.6041045,142.341551 67.6797764,141.812799 C67.2250967,141.552705 66.7972735,141.274837 66.4075892,140.996627 C66.1716737,140.828199 65.9985616,140.69518 65.9002185,140.615028 L65.843517,140.563812 C61.556747,136.277042 58.3012586,131.195709 57.0813506,126.316432 C56.2992936,123.188006 57.5225174,121.108715 60.0680805,120.585174 C62.1473677,120.157532 64.8458413,120.876755 66.6876508,122.309157 C68.7935154,123.947176 70.0523877,126.161418 72.4353562,131.552863 C72.4990457,131.696976 72.4990457,131.696976 72.5626686,131.840938 C74.3338885,135.848258 75.2314725,137.583079 76.4946459,139.098991 C76.7146624,139.363029 76.7278641,139.742572 76.5267252,140.021259 C76.249996,140.40468 75.7690485,140.955395 75.1195098,141.507504 C74.0608751,142.407346 72.9145282,142.977683 71.6973951,143.035285 Z M74.1446269,140.360586 C74.4385124,140.110783 74.708205,139.843067 74.9478164,139.574405 C73.762425,138.02764 72.8408768,136.193805 71.1858936,132.449467 C71.1222172,132.305384 71.1222172,132.305384 71.0585784,132.161386 C68.7881667,127.024599 67.5909366,124.918781 65.7635102,123.497341 C64.2566814,122.325458 62.0013212,121.724338 60.3713176,122.059578 C58.6849624,122.406406 57.9624924,123.634494 58.5416699,125.95135 C59.6846586,130.522972 62.7841649,135.367433 66.8787628,139.470265 C66.8979749,139.485455 66.9244443,139.506123 66.9578005,139.531754 C67.0513242,139.603617 67.160007,139.684288 67.2822222,139.771542 C67.6330734,140.022027 68.0192631,140.272854 68.4271973,140.506209 C69.2275786,140.964058 70.0077369,141.294882 70.7148375,141.44563 C71.0430857,141.51561 71.348189,141.544816 71.6262929,141.531702 C72.4564128,141.492398 73.3165563,141.064448 74.1446269,140.360586 Z" id="Path" fill="#282530" fill-rule="nonzero"></path>
                <path d="M63.0640486,121.995478 C63.3579695,121.701557 63.8345095,121.701557 64.1284304,121.995478 C64.4223513,122.289398 64.4223513,122.765938 64.1284304,123.059859 C63.8470759,123.341214 63.8351337,123.952133 64.119194,124.519961 C64.3051628,124.891706 64.1545611,125.343823 63.7828157,125.529791 C63.4110703,125.71576 62.9589537,125.565158 62.7729849,125.193413 C62.2278101,124.103627 62.2531691,122.806357 63.0640486,121.995478 Z" id="Path" fill="#282530" fill-rule="nonzero"></path>
                <path d="M60.2283885,121.081621 C60.4881065,120.757082 60.9617403,120.704534 61.2862794,120.964252 C61.6108184,121.22397 61.6633663,121.697603 61.4036483,122.022143 C61.0353976,122.482302 60.7331082,123.058921 60.5520531,123.621405 C60.4003374,124.092739 60.3601465,124.490914 60.4030043,124.619564 C60.5343791,125.013924 60.3211876,125.440116 59.9268277,125.571491 C59.5324679,125.702866 59.1062758,125.489674 58.974901,125.095315 C58.6536151,124.130881 59.2359442,122.321762 60.2283885,121.081621 Z" id="Path" fill="#282530" fill-rule="nonzero"></path>
                <path d="M93.7581567,122.390013 C93.6267637,121.99566 93.8399355,121.569458 94.2342893,121.438065 C94.628643,121.306672 95.054845,121.519843 95.186238,121.914197 C95.5942545,123.138789 95.7509184,123.81879 95.7509184,124.706537 C95.7509184,125.122204 95.4139538,125.459168 94.9982868,125.459168 C94.5826199,125.459168 94.2456553,125.122204 94.2456553,124.706537 C94.2456553,124.023529 94.1184339,123.471324 93.7581567,122.390013 Z" id="Path" fill="#282530" fill-rule="nonzero"></path>
                <path d="M95.8635451,122.031205 C95.8549709,121.998579 95.8460594,121.970502 95.8370708,121.947786 C95.8352207,121.943111 95.841908,121.954725 95.8713843,121.986456 C95.9570609,122.078687 96.0928311,122.148946 96.2584472,122.153387 C96.111786,122.149906 95.977026,122.105467 95.8635451,122.031205 Z M95.5224947,121.400979 C95.5224947,120.985312 95.8594594,120.648347 96.2751263,120.648347 C97.4828962,120.648347 97.7058352,122.927078 97.2489768,123.840795 C97.0630849,124.212579 96.6109994,124.363274 96.2392156,124.177382 C95.8674317,123.99149 95.7167366,123.539405 95.9026285,123.167621 C95.8989952,123.174887 95.9182482,123.078638 95.928138,122.944157 C95.9411169,122.767671 95.9382864,122.560682 95.9195562,122.369236 C95.9064077,122.23484 95.8861483,122.117214 95.8635451,122.031205 C95.6581736,121.89681 95.5224947,121.664739 95.5224947,121.400979 Z" id="Path" fill="#282530" fill-rule="nonzero"></path>
                <path d="M14.2032078,94.8072685 C16.5169658,90.3897203 20.3598709,87.4999787 20.3598709,87.4999787 C23.3321113,85.9977564 30.2029389,84.353968 30.9158379,89.3966248 C31.3102524,92.1891463 30.9120414,92.5153456 28.5126512,94.2478261 C25.5973584,96.3521312 24.1335954,95.5035867 24.1331735,95.5995276 C24.1331735,95.5995276 27.1062576,96.052369 27.6858571,99.3544436 C28.2654566,102.656092 26.321225,105.468654 22.5065827,104.249565 C20.849198,103.71997 18.9652887,100.823406 18.9652887,100.823406 C18.23636,100.684825 19.654565,106.454927 17.9575279,108.110229 C16.260069,109.76553 12.4770643,106.558544 11.1035737,105.170171 C11.1035737,105.170171 11.8890281,99.2248167 14.2032078,94.8072685 Z" id="Path" fill="#282530"></path>
            </g>
        </g>
    </g>
</svg>