<?xml version="1.0" encoding="UTF-8"?>
<svg viewBox="0 0 1804 1410" version="1.1" xmlns="http://www.w3.org/2000/svg" xmlns:xlink="http://www.w3.org/1999/xlink">
    <!-- Generator: Sketch 53.2 (72643) - https://sketchapp.com -->
    <title>urkel-avatar</title>
    <desc>Created with Sketch.</desc>
    <g id="urkel-avatar" stroke="none" stroke-width="1" fill="none" fill-rule="evenodd">
        <g id="Urkel-4" transform="translate(62.000000, 57.000000)">
            <g id="Layer-9" transform="translate(129.000000, 415.000000)" fill="#8C8994" opacity="0.3">
                <path d="M1384.85,541.47 C1353.85,456.686 1190.7,217.167 1178.81,213.797 C1165.33,222.967 1165.69,225.142 1155.18,229.491 C1191.42,262.838 1257.39,374.478 1290.38,471.619 C1299.99,476.164 1332.77,484.04 1345.19,501.81 C1360.26,523.37 1371.87,530.61 1384.85,541.47 Z" id="Path"></path>
                <path d="M1509.99,686.27 C1456.67,680.91 1400.23,643.52 1400.23,643.52 L1404.69,699.08 C1404.69,699.08 1503.41,722.64 1509.99,686.27 Z" id="Path"></path>
                <path d="M196.037,44.632 C196.037,44.632 139.535,128.668 113.384,207.124 C87.232,285.579 91.308,361.269 91.308,361.269 C91.308,361.269 102.93,337.125 114.083,334.466 C113.554,299.582 123.821,265.388 138.646,216.749 C153.471,168.11 179.044,123.454 179.044,123.454 L209.942,79.904 C209.942,79.904 220.884,71.064 224.687,59.956 C205.66,58.983 196.037,44.632 196.037,44.632 Z" id="Path"></path>
                <path d="M1235.72,142.804 C1220.68,185.702 1185.7,188.583 1185.7,188.583 C1185.7,188.583 1181.69,212.736 1153.83,204.752 C1154.86,190.562 1126.68,224.378 1115.66,201.306 C1108.95,206.441 1093.47,213.481 1076.67,198.068 C1065.12,207.657 1062.66,204.745 1046.4,198.407 C1056.77,210.825 1071.59,218.849 1071.59,218.849 C1071.59,218.849 1104.18,239.989 1149.8,226.744 C1177.14,225.188 1180.95,212.627 1180.95,212.627 C1180.95,212.627 1208.54,222.609 1223.67,204.183 C1238.79,185.757 1245.21,146.704 1235.72,142.804 Z" id="Path"></path>
                <path d="M227.778,58.271 C248.669,57.675 268.367,21.662 276.642,1.19 C282.493,1.168 286.303,-1.512 284.682,9.923 C283.061,21.358 262.228,34.6 270.157,46.93 C279.97,62.189 249.294,73.529 249.294,73.529 C249.294,73.529 237.328,63.644 227.778,58.271 Z" id="Path"></path>
                <path d="M314.707,53.986 C311.275,49.724 292.356,53.532 281.08,54.511 C276.381,54.919 260.643,41.888 267.823,41.617 C287.074,40.89 321.122,22.83 322.955,23.563 C330.102,34.01 345.314,30.528 354.661,28.695 C377.753,38.775 378.303,28.512 395.164,22.097 C417.89,24.846 424.305,11.284 431.269,2.487 C432.919,26.129 421.647,42.761 406.711,55.269 C383.435,61.867 374.271,52.337 374.271,52.337 C374.271,52.337 361.03,61.272 350.996,61.134 C340.961,60.997 333.401,50.138 333.401,50.138 C333.401,50.138 320.169,60.769 314.707,53.986 Z" id="Path"></path>
                <path d="M915.07,298.264 C952.73,318.477 968.89,321.777 1007.93,362.889 C1046.97,404.001 1036.6,415.437 1062.87,443.757 C1085.98,468.68 1107.5,451.788 1160.4,480.11 C1213.3,508.43 1247.82,536.32 1270.47,560.28 C1300.41,591.96 1305.59,610.83 1293.44,653.83 C1279.69,702.53 1276.96,726.61 1237.07,751.7 C1190.03,781.3 1174.27,814.97 1174.27,814.97 C1174.27,814.97 1197.91,810.6 1215.29,808.76 C1232.22,806.96 1249.41,807.17 1264.98,805.08 C1272.2,797.7 1278,795.19 1285.99,792.07 C1309.72,795.82 1344.61,805.6 1372.47,810.82 C1390.25,814.16 1397.1,790.83 1398.76,780.12 C1404.51,743.11 1408.23,722.57 1404.07,662.29 C1399.92,602.01 1382.13,538.98 1382.13,538.98 L1338.99,491.69 C1338.99,491.69 1246.57,456.761 1195.78,429.199 C1147.67,403.086 1167.5,391.262 1151.91,377.88 C1136.31,364.498 1100.98,357.093 1100.98,357.093 L1028.61,307.63 C1028.61,307.63 955.73,267.196 941.8,274.735 C930.83,265.14 913.7,251.89 887.89,239.326 C907.07,265.597 919.87,276.562 915.07,298.264 Z" id="Path"></path>
                <path d="M331.675,748.69 C331.675,748.69 331.357,681.36 301.103,643.39 C282.484,620.03 271.064,607.27 233.198,581.33 C195.332,555.39 150.677,529.02 140.832,535.69 C130.988,542.36 146.53,551.16 135.415,572.12 C124.3,593.08 113.08,598.72 87.144,608.96 C61.209,619.2 31.673,613.09 31.673,613.09 L0.624,619.66 L11.959,650.33 C11.959,650.33 21.609,669.67 71.333,642.97 C110.167,622.12 184.574,593.36 184.574,593.36 C184.574,593.36 250.059,635.32 287.215,673.75 C324.371,712.17 331.675,748.69 331.675,748.69 Z" id="Path"></path>
            </g>
            <g id="Layer-6" transform="translate(0.000000, 415.000000)" stroke="#282530" stroke-linecap="round" stroke-linejoin="round" stroke-width="8">
                <path d="M1004.3,227.73 C1018,234.582 1065.23,269.298 1078.11,282.175" id="Path"></path>
                <path d="M1574.96,586.64 C1577.14,586.64 1568.72,580.62 1566.58,579.56 C1558.8,575.67 1551.98,570.9 1544.68,566.02 C1525.15,553.01 1507.36,538.77 1489.91,523.5 C1480.2,515.01 1477.52,501.48 1467.36,493.86 C1456.58,485.78 1441.04,481.75 1428.7,476.466 C1399.81,464.085 1371,452.114 1342.36,439.096 C1328.44,432.766 1295.26,415.853 1291.11,405.513 C1288.23,401.192 1287.66,385.174 1281.45,379.74 C1266.66,366.8 1246.54,368.066 1231.19,357.834 C1200.78,337.561 1171.36,315.56 1139.06,298.558 C1122.27,289.719 1090.6,272.785 1072.69,272.785" id="Path"></path>
                <path d="M1419.41,471.604 C1403.6,416.281 1330.36,283.99 1310.97,258.943 C1305.94,252.455 1290.69,233.024 1280.15,225.956" id="Path"></path>
                <path d="M1535.88,700.35 C1547.68,702.71 1561.3,705.66 1573.65,706.54 C1604.18,708.72 1627.04,704.28 1648.57,679.67 C1651.87,675.9 1665.23,648.21 1665.23,640.56 C1668.67,622.51 1651.61,593.37 1643.48,572.48 C1627.36,531.02 1601.33,492.27 1576.14,455.889 C1542.53,407.347 1507.34,359.141 1469.69,313.959 C1460.72,303.194 1420.18,246.881 1400.14,215.702 C1392.06,203.119 1376.52,176.865 1369.76,163.338" id="Path"></path>
                <path d="M1278.12,861.15 C1278.12,850.87 1281.1,842.32 1284.78,832.85 C1297.61,799.85 1278.78,826.96 1345.53,807.89 C1357.41,810.53 1372.73,808.77 1383.07,805.94 C1385.81,805.2 1393.54,807 1396.11,805.22 C1402.38,800.88 1405.31,793.72 1414.21,794.36 C1423.7,795.04 1444.8,795.86 1453.31,798.7 C1465.01,802.6 1476.66,807.74 1488.8,808.84 C1493.47,809.27 1507.35,813.61 1511.24,811.01 C1527.58,800.13 1527.19,775.7 1530.8,758.88 C1538.92,720.97 1530.71,628.34 1521.38,590.15 C1508.51,537.45 1516.08,566.64 1509.87,542.93" id="Path"></path>
                <path d="M265.729,557.98 C274.63,564.65 310.043,588.97 322.729,598.98 C351.847,621.97 419.222,671.7 437.013,699.8 C447.842,718.63 455.538,735.92 460.289,754.21 C472.15,799.84 471.563,798.81 476.204,825.37" id="Path"></path>
                <path d="M315.1,593.8 C300.581,596.71 266.989,613.61 236.141,626.06 C200.874,640.3 151.457,679.56 135.292,639.47 C132.592,632.78 131.114,629.2 128.29,621.6" id="Path"></path>
                <path d="M354.786,281.524 C347.533,276.832 324.613,283.214 321.179,284.666 C309.343,289.672 299.382,296.108 289.197,303.902 C282.037,309.381 275.59,315.7 269.051,321.89 C268.519,322.394 261.387,332.185 263.185,332.492" id="Path"></path>
                <path d="M286.352,337.56 C274.987,333.196 241.201,329.314 232.513,340.016 C222.082,358.967 214.338,379.339 209.761,391.239 C196.096,426.769 187.257,465.139 177.383,501.81 C168.181,535.99 159.973,613.4 159.667,616.66 C159.155,622.13 156.238,638.9 147.723,653.23" id="Path"></path>
                <path d="M159.637,612.51 C147.29,617.67 119.524,619.82 103.543,621.46 C91.873,622.67 77.46,624.08 65.677,622.85 C41.964,620.37 7.37,596.19 1.456,554.86 C-3.388,521.01 20.02,480.14 27.741,458.938 C31.977,447.303 58.831,391.379 63.459,379.317 C73.06,354.293 82.611,328.397 94.955,304.534 C109.015,277.352 127.216,251.156 145.172,226.435 C155.319,212.465 184.813,171.527 187.981,166.379 C199.277,148.02 209.706,128.066 219.351,108.771 C237.079,73.302 250.448,36.413 266.614,0.395" id="Path"></path>
                <path d="M241.391,333.035 C238.75,310.856 248.681,285.082 254.799,263.23 C270.625,206.706 289,145.352 326.466,98.946 C330.96,93.379 333.824,86.246 338.664,80.984 C340.83,78.629 344.435,77.94 346.601,75.585 C349.864,72.037 350.024,65.886 353.671,62.905" id="Path"></path>
                <path d="M1011.39,240.782 C1017.65,240.782 1025,252.082 1028.62,256.341 C1040.75,270.611 1055.49,290.344 1035.29,302.464 C1014.79,314.759 920.81,297.463 881.356,280.236 C820.915,253.847 751.728,212.496 732.984,200.215 C723.102,193.741 685.397,173.014 680.192,165.206 C667.567,155.25 671.01,157.847 641.68,141.443 C626.919,133.187 610.447,135.708 594.75,136.731 C541.568,140.198 505.575,166.474 463.381,195.351 C444.761,208.095 422.569,215.514 403.663,228.265 C389.579,237.764 373.806,245.568 358.01,251.719 C339.241,259.028 333.599,261.83 326.101,281.661" id="Path"></path>
            </g>
            <g id="Layer-10" transform="translate(230.000000, 686.000000)" stroke="#282530" stroke-linecap="round" stroke-linejoin="round" stroke-width="6">
                <path d="M498.752,446.71 C501.077,442.06 489.107,438 486.752,436.71 C432.108,406.91 378.002,378.2 325.752,343.71 C254.137,296.45 178.972,243.8 114.752,186.714 C96.199,170.222 74.303,138.489 52.752,127.714" id="Path"></path>
                <path d="M51.752,156.714 C59.686,180.514 112.106,290.42 103.752,273.71" id="Path"></path>
                <path d="M169.752,157.714 C129.388,133.495 93.512,105.094 50.752,83.714" id="Path"></path>
                <path d="M14.752,205.714 C14.752,197.039 3.784,267.65 0.752,273.71" id="Path"></path>
                <path d="M326.311,37.309 C329.034,91.774 345.347,142.412 371.75,189.936 C372.171,190.695 373.303,193.043 372.915,192.266" id="Path"></path>
                <path d="M1205.96,262.17 C1205.96,305.44 1127.76,362.51 1099.93,390.33" id="Path"></path>
                <path d="M1240.91,271.49 C1249.15,287.97 1217.34,342.91 1210.62,358.87 C1208.11,364.83 1200.13,381.65 1200.13,375.19" id="Path"></path>
                <path d="M1032.36,135.176 C1008.93,164.46 1036.75,203.109 1032.36,189.936" id="Path"></path>
                <path d="M848.27,52.455 C772.12,166.679 589.707,0.026 516.221,0.026" id="Path"></path>
            </g>
            <g id="Layer-8" transform="translate(37.000000, 304.000000)" stroke="#282530" stroke-linecap="round" stroke-linejoin="round">
                <path d="M233.239,109.205 C236.552,99.268 264.783,81.021 273.283,75.021 C298.715,57.069 327.993,43.202 356.301,31.07 C380.498,20.7 389.434,8.607 418.808,8.607 C418.808,5.385 437.613,0.039 441.76,0.793 C451.95,2.646 467.154,11.699 467.154,23.745 C479.851,17.397 493.219,37.144 497.919,46.209 C510.191,69.876 529.489,102.412 523.313,130.203 C521.488,138.413 508.164,153.655 499.404,165.631 C510.26,165.631 541.883,184.668 549.195,192.711 C556.069,200.273 553.164,217.585 544.311,222.011 C519.254,234.539 482.081,212.011 459.34,204.431 C426.182,193.378 399.29,202.476 367.455,196.108 C347.245,192.067 333.575,176.787 315.395,167.697" id="Path" stroke-width="8"></path>
                <path d="M1328.8,279.965 C1333.51,263.475 1325.75,231.906 1317.91,225.271 C1310.53,219.029 1265.82,215.675 1251.69,208.609 C1245.29,199.542 1213.37,200.756 1208.96,198.991 C1199.46,195.191 1190.94,188.532 1180.1,190.158 C1171.95,191.38 1170.45,196.81 1167.44,197.813 C1145.64,195.535 1129.59,201.13 1125.46,217.666 C1119.53,241.378 1122.72,269.789 1131.64,292.519 C1140.38,314.784 1134.93,308.829 1142.38,316.277 C1132.91,328.902 1125.8,341.068 1129.69,357.609 C1132.18,368.204 1150.25,373.42 1158.33,365.745 C1167.02,357.493 1169.75,353.768 1174.93,346.869 C1191.36,342.761 1225.05,348.069 1242.72,336.292" id="Path" stroke-width="8"></path>
                <path d="M1201.22,323.115 C1190.34,325.988 1177.03,327.458 1171.67,316.883 C1166.28,306.272 1164.89,304.188 1161.52,287.336 C1158.98,274.632 1159.4,268.215 1159.4,246.439" id="Path" stroke-width="6"></path>
                <path d="M1277.38,275.512 C1277.31,286.933 1279.19,310.568 1273.21,320.98 C1271.08,324.682 1253.8,342.03 1239.06,329.114 C1247.15,313.345 1244.56,285.822 1242.37,270.11 C1242.18,268.715 1239.57,248.954 1239.18,247.599" id="Path" stroke-width="6"></path>
                <path d="M1241.54,321.036 C1239.8,321.974 1226.99,328.727 1216.39,324.362 C1208.31,321.034 1205.21,307.436 1202.88,296.717 C1200.8,287.155 1197.64,263.966 1200.82,246.97" id="Path" stroke-width="6"></path>
                <path d="M1165.27,328.475 C1165.21,328.343 1159.44,327.68 1157.45,326.85 C1154.44,325.597 1145.79,317.363 1142.71,315.023" id="Path" stroke-width="6"></path>
                <path d="M1315.9,311.434 C1311.87,327.545 1283.9,329.928 1271.3,323.626" id="Path" stroke-width="6"></path>
                <path d="M1332.39,336.216 C1345.27,350.623 1354.82,370.479 1364.58,387.421" id="Path" stroke-width="6"></path>
                <path d="M367.651,111.169 C367.651,116.409 366.229,118.243 359.996,130.439 C355.318,139.593 350.369,148.182 343.629,156.045" id="Path" stroke-width="6"></path>
                <path d="M344.844,86.253 C347.43,94.01 368.134,111.942 375.571,113.281 C380.742,123.622 370.949,133.815 369.235,135.719 C366.605,138.641 357.644,150.736 359.805,155.059 C364.141,163.731 370.233,168.179 381.642,164.756 C386.922,163.173 390.85,161.653 396.689,160.005 C400.365,157.554 419.358,132.867 420.312,124.277 C422.314,106.258 398.681,68.872 405.658,47.94" id="Path" stroke-width="6"></path>
                <path d="M440.265,55.922 C440.265,73.725 442.983,91.194 447.081,108.404 C448.793,115.594 453.085,124.399 450.829,131.918 C446.641,145.878 419.655,175.052 399.857,162.117" id="Path" stroke-width="6"></path>
                <path d="M474.563,57.845 C474.563,47.394 478.408,84.009 480.37,94.274 C483.802,112.225 489.781,116.331 487.294,134.985 C486.713,139.339 479.017,147.632 476.048,151.343 C471.509,157.018 461.892,168.188 446.399,172.813 C439.027,175.014 430.048,167.841 425.861,161.751" id="Path" stroke-width="6"></path>
                <path d="M496.473,166.868 C487.789,173.815 473.351,170.798 466.165,163.612" id="Path" stroke-width="6"></path>
                <path d="M419.655,9.801 C423.879,16.137 430.742,22.578 430.742,29.6" id="Path" stroke-width="6"></path>
                <path d="M467.171,24.32 C467.699,28.544 467.435,31.183 469.283,35.935" id="Path" stroke-width="6"></path>
                <path d="M313.808,168.826 C309.71,168.826 302.903,168.901 300.414,167.71 C295.31,165.269 287.258,151.309 285.532,146.131" id="Path" stroke-width="6"></path>
                <path d="M263.953,191.522 C255.578,211.063 245.848,226.756 234.932,246.959" id="Path" stroke-width="6"></path>
                <path d="M1.685,650.38 C3.857,659.07 2.626,652.56 0.857,670.24" id="Path" stroke-width="6"></path>
            </g>
            <g id="Layer-2" transform="translate(775.000000, 195.000000)" stroke="#282530" stroke-linecap="round" stroke-linejoin="round" stroke-width="6">
                <path d="M17.875,117.611 C14.07,117.721 12.353,117.908 9.822,115.738 C3.124,109.997 -2.309,97.879 3.266,89.517" id="Path"></path>
                <path d="M11.488,74.886 C15.462,71.706 26.771,45.546 30.592,37.427 C35.475,27.049 39.957,12.706 37.334,0.904" id="Path"></path>
                <path d="M78.848,24.414 C77.276,35.42 79.169,58.942 84.211,69.026 C87.015,68.171 97.182,71.131 102.265,79.609 C105.815,85.53 106.711,89.49 104.444,96.884 C101.829,105.413 89.471,109.173 81.721,107.623" id="Path"></path>
            </g>
            <g id="Layer-3" transform="translate(737.000000, 148.000000)" stroke="#282530" stroke-linecap="round" stroke-linejoin="round" stroke-width="8">
                <path d="M245.54,53.658 C245.69,48.669 241.09,43.941 238.21,40.138 C227.04,25.422 212.51,11.425 194.76,5.297 C185.57,2.124 178.17,1.359 168.6,0.748 C167.55,0.681 158.4,1.877 160.81,3.316" id="Path"></path>
                <path d="M61.361,13.207 C44.743,16.373 26.788,22.467 12.861,32.455 C9.524,34.849 2.176,39.482 0.964,43.769" id="Path"></path>
            </g>
            <g id="Layer-5" transform="translate(763.000000, 216.000000)" stroke="#282530" stroke-linecap="round" stroke-linejoin="round">
                <path d="M148.21,0.827 C144.38,3.565 146.17,9.572 148.86,12.263" id="Path" stroke-width="4"></path>
                <path d="M3.026,27.027 C0.608,24.609 -1.011,18.91 0.859,16.416" id="Path" stroke-width="4"></path>
                <path d="M12.83,25.836 C10.63,24.53 9.173,23.784 8.539,20.388 C7.943,17.198 10.248,14.033 13.812,12.991 C19.253,12.812 20.725,15.737 20.859,19.146 C21.037,23.695 17.737,26.46 15.328,26.639" id="Path" stroke-width="4" fill="#282530"></path>
                <path d="M160.07,12.462 C157.87,11.223 156.41,10.517 155.77,7.296 C155.18,4.271 157.48,1.269 161.05,0.282 C166.49,0.112 167.96,2.885 168.09,6.118 C168.27,10.432 164.97,13.054 162.56,13.223" id="Path" stroke-width="4" fill="#282530"></path>
                <path d="M10.023,19.595 C10.338,19.595 8.584,23.36 8.184,23.759 C7.052,24.892 5.017,26.476 3.651,27.159" id="Path" stroke-width="6"></path>
                <path d="M158.37,7.131 C159.48,6.279 156.27,10.293 155.91,10.711 C154,12.904 151.97,12.731 149.4,13.121" id="Path" stroke-width="6"></path>
            </g>
            <g id="Layer-4" transform="translate(734.000000, 195.000000)" stroke="#282530" stroke-linecap="round" stroke-linejoin="round" stroke-width="6">
                <path d="M55.852,21.569 C53.294,19.01 47.812,18.781 44.477,18.378 C31.988,16.871 19.625,22.413 9.936,29.892 C8.152,31.269 0.642,36.239 0.642,38.631" id="Path"></path>
                <path d="M69.94,38.496 C69.94,37.396 59.215,33.828 58.072,33.637 C53.549,32.883 49.211,32.527 44.616,32.527 C29.725,32.527 12.205,44.276 4.035,56.531" id="Path"></path>
                <path d="M61.786,48.202 C50.542,46.797 35.032,48.848 24.194,52.641 C19.987,54.114 16.065,55.887 11.986,57.635 C10.965,58.073 7.032,61.103 7.27,61.103" id="Path"></path>
                <path d="M151.13,31.426 C153.55,31.673 156.44,33.242 158.92,33.826 C165.49,35.372 173.08,36.493 179.87,36.104 C192.25,35.394 205.57,30.897 217.99,34.724" id="Path"></path>
                <path d="M224.74,31.612 C221.53,29.579 217.46,28.94 213.9,27.587 C199.42,22.078 183.55,18.652 168.29,22.07 C160.95,23.715 154.14,26.367 147.484,29.887 C146.446,30.436 142.699,34.184 143.224,34.421" id="Path"></path>
                <path d="M226.46,17.615 C215.69,9.567 204.26,4.304 191.27,1.616 C189.13,1.175 187.11,0.975 184.78,0.81" id="Path"></path>
                <path d="M213.87,55.195 C206.27,56.294 198.69,58.224 190.91,58.265 C170.74,58.373 153.14,48.366 140.725,33.144" id="Path"></path>
                <path d="M27.252,75.671 C18.059,77.737 21.63,76.899 16.512,78.115" id="Path"></path>
            </g>
            <g id="Layer-1" transform="translate(745.000000, 0.000000)">
                <path d="M325.36,302.841 C314.94,295.895 292.16,282.816 287.92,270.072 C286.63,266.22 287.15,254.507 286.61,250.422 C284.75,236.486 283.06,229.645 277.53,216.734 C275.18,211.256 266.45,197.809 262.43,194.428 C256.41,189.382 253.5,179.768 251.64,172.08 C251.15,170.053 243.75,148.174 242.92,145.356 C239.59,134.109 238.21,120.05 237.72,108.297 C237.54,103.948 236.96,95.027 227.2,89.883 C199.77,77.364 176.15,61.585 145.14,57.604 C110.974,53.218 75.384,64.894 47.667,83.946 C39.733,89.4 31.521,95.448 25.842,103.431 C22.773,107.747 2.072,144.292 0.944,149.643 C4.161,138.755 5.098,131.364 7.846,120.117 C9.47,113.472 14.628,90.437 16.451,85.791 C18.858,79.66 23.202,59.846 45.669,36.883 C55.272,27.068 70.573,16.611 83.6,11.613 C111.182,1.03 136.477,-1.874 164.55,3.619 C176.33,5.923 194.52,11.188 205.39,16.915 C211.9,19.327 232.33,30.585 244.55,38.518 C261.27,49.384 272.48,57.447 284.76,68.55 C295.57,78.333 307.8,93.313 316.56,104.842 C337.85,132.858 356.94,159.525 356.76,195.158 C356.58,230.61 354.73,260.861 353.12,289.576" id="Path" fill="#282530" opacity="0.45"></path>
                <path d="M33.414,479.101 C33.414,479.101 32.666,496.998 38.64,502.474 C47.574,510.663 82.105,501.491 100.017,520.242 C115.437,536.386 116.596,543.474 126.709,560.304 C142.45,586.499 131.92,587.309 146.04,617.018 C160.16,646.726 172.64,675.719 183.18,679.137 C193.73,682.556 206.97,715.598 213.25,696.896 C216.56,687.075 263.95,703.677 267.57,686.034 C274.54,652.068 256.9,637.447 249.98,615.983 C245.58,602.334 245.48,588.788 251.27,562.699 C252.58,556.765 258.98,535.156 260.89,528.201 C270.21,494.243 291.8,429.849 310.03,398.583 C310.07,398.515 321.6,403.646 327.36,400.157 C334.76,395.68 337.3,381.635 342.96,373.369 C357.18,352.608 359.9,323.515 357.36,305.157 C355.45,291.355 344.37,286.68 325.14,300.074 C322.39,301.986 287.2,288.103 286.94,260.139 C286.84,248.94 279.52,212.034 251.92,168.969 C238.81,148.505 244.14,110.042 236.72,98.664 C226.15,82.474 189.66,72.24 149.08,58.898 C148.21,58.612 193,80.023 211.9,114.49 C230.8,148.956 262.48,213.442 270.27,260.695 C278.05,307.947 273.7,323.548 275.83,336.299 C280.49,364.283 270.62,376.122 268.6,380.216 C264.44,388.654 270.63,407.762 270.71,414.842 C270.8,423.643 265.16,437.79 258.73,444.063 C247.17,455.341 223.56,452.939 208.97,455.398 C191.75,458.301 178.03,465.335 161.9,471.099 C138.168,479.58 80.131,479.869 48.878,481.907 C42.434,482.327 33.414,479.101 33.414,479.101 Z" id="Path" fill="#8C8994" opacity="0.3"></path>
            </g>
            <g id="Layer-1_2" transform="translate(660.000000, 0.000000)" stroke="#282530" stroke-linecap="round" stroke-linejoin="round">
                <path d="M409.37,317.029 C409.37,312.303 410.04,302.524 413.4,298.803 C418.89,292.744 431.71,284.25 438.94,292.692 C443.04,297.478 444.03,307.534 444.4,313.428 C445.56,331.75 443.63,349.057 435.78,365.813 C433.1,371.515 429.04,375.923 424.75,380.437 C423.31,381.954 421.44,384.256 419.08,384.256 C424.5,391.152 415.63,401.153 409.34,403.409 C397.94,407.498 387.01,402.309 382.22,391.605" id="Path" stroke-width="8"></path>
                <path d="M401.37,324.848 C399.05,329.499 397.19,335.858 398.2,340.965 C398.92,344.605 401.44,350.793 400.36,350.102 C397.09,348.029 395.07,350.058 394.01,351.118 C390.19,354.94 385.13,364.036 388.17,369.519 C389.3,371.545 393.1,371.922 395.03,372.692" id="Path" stroke-width="6"></path>
                <path d="M415.46,330.485 C422.61,332.041 426.96,339.792 429.43,344.105 C433.33,350.927 429.17,361.787 422.19,364.697 C418.84,366.091 414.2,365.81 410.76,364.951" id="Path" stroke-width="6"></path>
                <path d="M394,403.746 C392.33,403.19 389.93,411.028 389.08,412.559 C383.79,422.132 379.38,432.977 375.55,443.303 C364.72,472.559 349.97,504.547 344.38,535.233 C339.77,560.594 336.03,568.684 331.05,586.254" id="Path" stroke-width="8"></path>
                <path d="M327.25,565.313 C327.25,564.031 329.96,575.117 330.29,582.914 C330.53,588.607 331.48,595.667 331.52,598.974 C331.66,610.624 334.29,618.35 332.43,634.692 M334.85,619.904 C345.62,637.859 352.43,660.228 355.87,680.89" id="Shape" stroke-width="8"></path>
                <path d="M116.517,478.306 C120.545,486.361 124.848,504.793 123.498,514.244 C122.761,519.4 118.359,524.522 116.775,529.498 C114.245,537.45 114.707,543.754 114.707,551.992 C91.346,556.98 62.674,560.257 37.071,560.402 C29.062,560.447 21.026,561.286 13.044,560.619 C11.135,560.46 -0.694,562.483 0.448,563.418" id="Path" stroke-width="8"></path>
                <path d="M104.998,316.971 C99.131,332.403 92.58,347.659 94.253,364.288" id="Path" stroke-width="6"></path>
                <path d="M126.622,482 C117.734,479.999 109.988,472.953 103.299,467.117 C100.336,464.532 93.811,457.314 88.219,449.926 C82.636,442.551 77.985,435.008 76.466,431.624 C74.089,426.332 60.929,388.531 58.74,366.784 C57.251,351.99 56.368,337.706 58.058,322.915 C58.271,321.045 60.08,310.591 62.282,304.972 C59.88,284.266 65.015,258.688 66.718,237.934 C67.541,227.9 68.499,216.6 70.194,206.608 C73.735,185.748 77.141,168.991 85.956,147.132" id="Path" stroke-width="8"></path>
                <path d="M266.25,340.51 C265.91,340.244 263.19,343.518 262.93,343.749 C261.49,345.044 259.79,346.16 257.83,346.442 C250.97,347.432 242.54,344.748 236.13,342.535 C225.43,338.837 215.798,331.377 206.291,325.397 C201.584,322.436 195.47,318.657 189.757,319.286" id="Path" stroke-width="6"></path>
                <path d="M247.76,317.116 C250,318.582 256.31,323.159 258.3,325.473 C263.66,331.721 266.44,338.262 268.64,346.069 C269.07,347.593 269.6,354.617 268.87,358.511" id="Path" stroke-width="6"></path>
                <path d="M251.1,380.659 C253.17,379.165 257.03,372.254 259.32,368.662 C260.29,367.145 261.3,365.267 262.6,362.673 C262.87,362.134 260.11,365.194 258.78,365.861 C255.33,367.59 252.71,370.337 248.82,371.31 C247.06,371.752 243.54,371.723 243.84,371.664" id="Path" stroke-width="6"></path>
                <path d="M257.96,357.038 C243.22,362.502 227.48,352.404 214.174,347.53 C198.881,341.927 185.215,343.789 169.484,345.187" id="Path" stroke-width="6"></path>
                <path d="M160.569,344.89 C150.106,344.762 138.486,348.277 129.865,354.092 C122.957,358.751 117.512,367.257 108.674,368.41" id="Path" stroke-width="6"></path>
                <path d="M87.2759758,363.361 C87.269,367.281 88.784,371.477 90.51,374.923 C91.498,376.896 92.504,378.083 93.729,379.792 C94.078,380.28 95.268,381.633 94.89,381.167" id="Path" stroke-width="6"></path>
                <path d="M172.455,325.855 C166.166,324.975 159.612,325.234 153.261,324.78 C152.461,324.723 147.472,323.351 146.632,324.149 C143.869,326.779 138.605,328.107 135.289,330.868 C129.699,335.523 124.636,339.836 118.352,343.648" id="Path" stroke-width="6"></path>
                <path d="M192.785,311.537 C188.352,309.635 183.635,308.314 178.807,308.013 C178.452,307.991 178.5,308.163 175.322,308.402" id="Path" stroke-width="6"></path>
                <path d="M169.755,299.207 C173.272,299.615 157.13,302.571 153.482,299.365" id="Path" stroke-width="6"></path>
                <path d="M201.2,292.074 C196.772,287.218 186.816,285.988 180.611,285.028 C178.829,284.753 175.068,284.242 173.371,285.121 C172.337,285.656 173.172,290.422 173.219,291.269" id="Path" stroke-width="6"></path>
                <path d="M152.734,290.242 C148.477,287.543 139.961,288.312 135.746,290.32 C132.444,291.893 128.286,295.62 131.25,299.256" id="Path" stroke-width="6"></path>
                <path d="M280.69,697.741 C276.3,688.956 266.91,681.478 261.02,673.427 C249.69,657.923 242.31,641.704 235.64,623.725 C232.31,614.766 230.57,605.292 227.77,596.193 C226.86,593.223 225.3,589.136 221.691,583.32" id="Path" stroke-width="8"></path>
                <path d="M297.5,606.204 C300.01,616.247 297.8,628.158 297.5,638.385 C297,655.118 299.59,675.242 291.06,690.59" id="Path" stroke-width="6"></path>
                <path d="M322.43,601.616 C322.43,613.223 321.46,613.794 319.31,625.155 C315.36,645.968 308.73,680.981 297.14,699.529" id="Path" stroke-width="6"></path>
                <path d="M228.84,550.424 C227.47,549.737 208.166,545.244 188.919,538.667 C175.358,534.033 162.034,527.491 154.111,524.322" id="Path" stroke-width="6"></path>
                <path d="M318.42,344.853 C320.85,351.638 323.43,371.286 322.57,378.403" id="Path" stroke-width="6"></path>
                <path d="M352.36,397.463 C351.89,403.845 352.78,405.898 352.86,412.978 C352.95,421.779 347.31,435.925 340.88,442.199 C329.32,453.477 305.72,451.075 291.12,453.534 C273.9,456.437 260.18,463.471 244.05,469.235 C220.319,477.715 194.258,478.558 169.425,480.77" id="Path" stroke-width="8"></path>
                <path d="M180.038,445.363 C174.481,452.629 175.194,454.882 174.893,459.851 C174.641,463.998 175.059,466.538 176.337,468.552" id="Path" stroke-width="6"></path>
                <path d="M142.541,431.795 C141.421,436.274 140.634,441.025 144.514,444.13" id="Path" stroke-width="6"></path>
                <path d="M410.36,302.841 C399.94,295.895 377.16,282.816 372.92,270.072 C371.63,266.22 372.15,254.507 371.61,250.422 C369.75,236.486 368.06,229.645 362.53,216.734 C360.18,211.256 351.45,197.809 347.43,194.428 C341.41,189.382 338.5,179.768 336.64,172.08 C336.15,170.053 328.75,148.174 327.92,145.356 C324.59,134.109 323.21,120.05 322.72,108.297 C322.54,103.948 321.96,95.027 312.2,89.883 C284.77,77.364 261.15,61.585 230.14,57.604 C195.974,53.218 160.384,64.894 132.667,83.946 C124.733,89.4 116.521,95.448 110.842,103.431 C107.773,107.747 87.072,144.292 85.944,149.643 C89.161,138.755 90.098,131.364 92.846,120.117 C94.47,113.472 99.628,90.437 101.451,85.791 C103.858,79.66 108.202,59.846 130.669,36.883 C140.272,27.068 155.573,16.611 168.6,11.613 C196.182,1.03 221.477,-1.874 249.55,3.619 C261.33,5.923 279.52,11.188 290.39,16.915 C296.9,19.327 317.33,30.585 329.55,38.518 C346.27,49.384 357.48,57.447 369.76,68.55 C380.57,78.333 392.8,93.313 401.56,104.842 C422.85,132.858 441.94,159.525 441.76,195.158 C441.58,230.61 439.73,260.861 438.12,289.576" id="Path" stroke-width="8"></path>
            </g>
            <g id="Layer-7" transform="translate(662.000000, 153.000000)">
                <path d="M116.906,14.781 C89.762,15.226 65.998,16.155 46.823,23.786 C35.424,28.322 29.094,32.013 22.353,39.251 C16.763,45.253 12.299,56.457 10.02,62.938 C9.213,65.231 7.048,83.137 6.887,89.562 C6.692,97.393 7.159,107.887 7.202,109.176 C8.408,145.56 23.139,155.664 55.159,155.902 C72.732,156.032 83.675,153.427 101.252,142.745 C119.385,131.726 126.559,124.042 137.659,105.933 C143.704,96.07 146.686,90.579 149.565,83.152 C153.498,73.005 155.424,62.587 155.002,51.245 C154.459,36.623 149.731,26.355 140.347,20.593 C134.151,16.789 127.298,14.61 116.906,14.781 Z M115.659,23.12 C137.361,22.764 147.877,31.784 148.62,51.78 C148.999,61.986 147.867,69.235 144.313,78.404 C141.657,85.256 137.591,92.029 131.784,101.504 C121.307,118.598 115.846,126.636 98.896,136.937 C82.683,146.789 71.394,148.021 55.221,147.902 C27.46,147.696 16.034,136.774 14.971,104.714 C14.932,103.532 14.932,102.337 14.94,101.089 C14.976,95.058 15.529,88.55 16.44,82.027 C16.771,79.656 17.118,77.44 17.471,75.464 C17.594,74.776 17.919,73.126 17.94,73.027 C17.979,72.839 17.99,72.655 18.002,72.464 C18.017,72.223 18.089,71.658 18.252,70.777 C18.54,69.229 19.024,67.482 19.69,65.589 C21.617,60.109 24.819,54.595 29.627,49.433 C35.554,43.07 43.506,37.66 53.815,33.558 C71.978,26.33 89.407,23.551 115.659,23.12 Z" id="Shape" fill="#282530"></path>
                <path d="M282.34,0.368 C241.52,1.512 235.43,3.04 208.034,13.589 C195.563,18.391 187.629,25.259 183.409,33.902 C180.24,40.39 179.555,45.856 179.69,54.808 C179.692,54.946 179.721,57.857 179.721,57.964 C179.75,65.26 180.05,69.003 181.471,74.214 C183.315,80.975 188.769,93.55 193.212,98.769 C205.428,113.119 215.575,126.601 242.19,131.948 C259.62,135.451 284.32,140.518 302.71,136.027 C327.28,130.029 340.16,104.83 340.93,82.512 C341.97,52.139 339.27,45.229 335.38,33.532 C333.01,26.429 320.72,11.708 318.13,9.158 C311.03,2.144 292.1,0.094 282.34,0.368 Z M280.89,6.744 C293.05,6.839 307.06,10.111 312.23,15.218 C320,22.887 325.7,32.779 328.64,41.59 C332.17,52.199 332.42,63.241 331.35,83.975 C330.38,102.918 324.2,122.975 295.45,127.719 C280.16,130.243 258.68,127.154 242.44,123.893 C217.921,118.966 209.755,109.172 200.98,97.248 C195.409,89.677 190.772,77.892 189.19,72.089 C188,67.727 187.747,64.577 187.721,57.933 C187.721,57.826 187.692,54.821 187.69,54.683 C187.572,46.904 188.13,42.483 190.596,37.433 C193.892,30.685 200.389,23.57 211.043,19.468 C226.12,13.663 229.72,12.398 238.37,10.899 C248.54,9.136 258.72,6.569 280.89,6.744 Z" id="Shape" fill="#282530"></path>
                <path d="M186.277,77.542 C184.467,79.84 175.934,60.094 175.934,60.094 C175.934,60.094 172.256,52.204 166.848,52.304 C160.637,52.419 158.519,60.607 158.519,60.607 C158.519,60.607 150.82,78.616 149.021,76.04 C147.223,73.463 151.325,50.301 151.325,50.301 C151.325,50.301 159.987,45.48 167.95,45.394 C177.264,45.294 183.173,50.902 183.173,50.902 C183.173,50.902 188.087,75.244 186.277,77.542 Z" id="Path" fill="#282530"></path>
                <path d="M141.84,26.078 C141.84,26.078 155.05,23.914 169.968,23.573 C183.402,23.265 195.59,26.192 195.59,26.192 L208.344,17.082 C208.344,17.082 188.627,15.374 169.057,15.374 C149.584,15.374 131.819,18.562 131.819,18.562 L141.84,26.078 Z" id="Path" fill="#282530"></path>
                <path d="M12.613,74.951 C12.613,74.951 9.029,74.934 5.815,75.118 C2.724,75.294 0.947,74.108 0.763,71.352 C0.466,66.887 0.522,64.207 0.763,57.943 C0.947,53.167 4.713,48.483 10.407,48.208 C16.165,47.929 22.255,49.585 22.255,49.585 L12.613,74.951 Z" id="Path" fill="#282530"></path>
                <path d="M331.58,45.45 C331.58,45.45 344.69,45.786 347.72,42.424 C352.13,37.515 349.36,26.86 343.79,23.146 C336.06,17.991 338.27,19.476 333.37,19.56 C328.47,19.644 324.18,23.483 324.18,23.483 L331.58,45.45 Z" id="Path" fill="#282530"></path>
                <path d="M341.93,26.439 L416.68,138.642" id="Path" stroke="#282530" stroke-width="8" stroke-linecap="round" stroke-linejoin="round"></path>
                <path d="M10.282,70.763 L59.229,151.866" id="Path" stroke="#282530" stroke-width="6" stroke-linecap="round" stroke-linejoin="round"></path>
            </g>
        </g>
    </g>
</svg>