<?xml version="1.0" encoding="UTF-8"?>
<svg viewBox="0 0 1719 1568" version="1.1" xmlns="http://www.w3.org/2000/svg" xmlns:xlink="http://www.w3.org/1999/xlink">
    <!-- Generator: Sketch 53.2 (72643) - https://sketchapp.com -->
    <title>wonka-avatar</title>
    <desc>Created with Sketch.</desc>
    <g id="wonka-avatar" stroke="none" stroke-width="1" fill="none" fill-rule="evenodd">
        <g id="Wonka-2" transform="translate(109.000000, 76.000000)">
            <g id="Layer-8" transform="translate(44.000000, 55.000000)">
                <path d="M260.21,542.089 C260.21,542.089 235.359,584.741 208.665,641.792 C181.971,698.844 175.116,734.814 175.116,734.814 L241.426,713.97 L251.947,702.865 L283.919,683.763 C283.919,683.763 340.703,659.929 352.922,648.37 C380.499,651.012 413.195,621.289 431.14,608.079 C460.752,596.519 488.994,590.205 488.994,590.205 C488.994,590.205 489.98,585.29 488.524,575.154 C478.091,564.484 454.977,560.662 440.111,568.117 C427.76,574.31 432.68,571.75 422.112,570.594 C419.14,605.271 397.342,601.308 387.867,585.502 C381.024,574.086 385.618,578.025 382.15,570.759 C373.233,568.777 365.331,563.135 359.528,552.099 C355.048,543.581 354.595,531.783 353.894,517.067 C342.634,511.638 325.182,493.194 325.182,493.194 C325.182,493.194 311.859,487.315 293.027,500.819 C274.195,514.322 260.21,542.089 260.21,542.089 Z" id="Path" fill="#8C8994" opacity="0.3"></path>
                <polygon id="Path" fill="#8C8994" opacity="0.3" points="474.126 455.447 470.508 435.4 423.199 416.772 436.8 434.513"></polygon>
                <path d="M821.18,506.444 C821.18,506.444 810.02,567.055 791.45,597.923 C768.18,636.593 750.23,624.213 722.53,649.302 C706.08,664.199 709.26,718.775 680.19,727.691 C651.115,736.607 600.489,745.433 600.489,745.433 C600.489,745.433 670.51,823.862 699.96,831.58 C703.84,798.243 718.27,776.308 718.27,776.308 L790.28,708.308 L795.32,717.224 C795.32,717.224 837.19,663.341 874.79,630.779 C872.46,583.485 876.73,541.232 876.73,541.232 L898.87,535.764 C898.87,535.764 905.53,528.652 915.16,519.91 C900.94,503.908 893.09,479.609 893.09,479.609 C893.09,479.609 880.13,473.793 873.23,477.239 C867.9,483.462 868.94,497.685 864.05,507.168 C846.71,509.983 821.18,506.444 821.18,506.444 Z" id="Path" fill="#8C8994" opacity="0.3"></path>
                <path d="M1176.27,1233.13 C1166.69,1143.28 1169.21,858.915 1149.17,852.772 C1123.36,839.716 1017.37,815.364 985.93,775.954 C976.54,764.194 1003.84,734.566 1000.07,716.968 C994.42,690.607 927.7,685.186 927.7,685.186 L966.39,671.808 L1027.43,661.9 L1168.37,658.593 L1018.36,753.259 L1142.91,747.865 L1222.2,754.533 L1235.59,768.485 L1245.75,795.902 L1229.45,912.27 L1187.5,1212.17 C1187.5,1212.17 1185.85,1322.98 1176.27,1233.13 Z" id="Path" fill="#8C8994" opacity="0.3"></path>
                <path d="M553.612,1064.89 C553.612,1064.89 537.09,1185.94 537.847,1261.71 C538.579,1334.87 599.634,1323.88 627.256,1348.09 C654.88,1372.31 635.402,1341.82 635.402,1341.82 L615.133,1207.16 L649.229,1106.01 L621.194,1103.73 L553.612,1064.89 Z" id="Path" fill="#8C8994" opacity="0.3"></path>
                <path d="M1418.42,835.422 C1418.42,835.422 1402.52,794.785 1354.74,760.361 C1306.96,725.937 1278.51,706.246 1227.31,697.726 C1176.1,689.205 1117.98,694.594 1117.98,694.594 L1167.42,654.658 L1171.47,672.035 L1278.53,659.954 L1390.8,643.693 L1442.04,683.624 L1485.43,743.782 L1418.42,835.422 Z" id="Path" fill="#8C8994" opacity="0.3"></path>
                <path d="M246.918,712.376 L188.566,733.131 L129.812,740.845 C129.812,740.845 110.265,888.25 104.846,966.87 C99.427,1045.5 105.937,1024.67 109.75,1068.52 C113.563,1112.37 107.445,1108.45 112.425,1139.85 C117.405,1171.25 401.469,1322.89 416.417,1303.77 C436.402,1278.21 391.877,1216.2 397.944,1125.16 C398.897,1110.86 393.251,1085.74 393.251,1085.74 C393.251,1085.74 403.296,1062.02 395.039,1063.03 C386.781,1064.05 360.22,1089.8 360.22,1089.8 C360.22,1089.8 339.792,1077.08 308.071,1096.89 C301.159,1087.2 298.662,1082.6 291.726,1083.1 C284.789,1083.61 199.152,1113.58 199.152,1113.58 C199.152,1113.58 206.121,1086.68 197.556,1071.02 C187.508,1052.65 198.264,1029.82 198.264,1029.82 L192.681,1005.1 L229.371,888.65 L251.704,761.029 L246.918,712.376 Z" id="Path" fill="#8C8994" opacity="0.3"></path>
                <path d="M97.706,739.894 L52.973,734.252 L9.998,715.177 L0.329,698.572 L97.741,684.995 C107.644,683.365 116.853,680.722 113.876,690.307 L97.706,739.894 Z" id="Path" fill="#8C8994" opacity="0.3"></path>
                <path d="M830.52,0.593 C830.52,0.593 794.9,125.607 795.56,125.936 C839.76,136.492 893.19,182.011 893.19,182.011 L907.71,104.826 L898.8,76.459 L830.52,0.593 Z" id="Path" fill="#8C8994" opacity="0.3"></path>
                <path d="M797.08,220.997 C797.08,220.997 741.7,185.726 672.34,166.37 C602.987,147.014 519.649,143.573 519.649,143.573 C519.649,143.573 573.308,124.863 627.181,116.475 C681.06,108.088 735,100.942 807.84,129.809 C878.38,157.768 889.99,176.319 924.87,216.364 C960.56,257.339 966.46,272.467 963.86,277.496 C961.27,282.526 918.26,231.399 911.32,236.191 C904.38,240.982 929.11,255.874 914.96,253.043 C900.81,250.213 871.37,231.994 858.78,229.251 C846.2,226.509 862.91,240.487 862.91,240.487 L797.08,220.997 Z" id="Path" fill="#8C8994" opacity="0.3"></path>
                <path d="M888.43,442.816 C888.43,442.816 886.02,421.448 901.1,412.81 C913.37,405.784 918.05,397.805 918.05,397.805 L906.09,367.339 C906.09,367.339 879.32,365.03 860.03,348.968 C858.64,347.813 856.11,344.596 854.82,343.489 C827.27,319.778 823.99,309.518 823.99,309.518 L895.55,344.401 L875.68,319.318 C875.68,319.318 900.83,339.265 903.67,332.983 C907.22,325.117 861.04,273.356 852.92,259.147 C846.01,247.049 897.58,278.562 898.85,273.61 C900.11,268.658 862.82,240.118 862.82,240.118 C862.82,240.118 796.07,217.842 744.09,215.083 C692.12,212.324 636.997,223.371 636.997,223.371 L649.485,230.357 C649.485,230.357 695.1,228.446 722,231.491 C738.56,233.366 758.97,265.105 771.39,276.711 C787.99,292.225 788.47,291.371 788.47,291.371 C781.03,293.854 780.17,312.674 783.65,320.043 C788.14,329.54 795.39,332.684 798.13,342.827 C799.67,348.556 795.79,355.035 798.33,360.522 C802.18,368.881 811.31,374.256 813.81,383.647 C815.29,389.186 809.34,393.01 805.77,395.913 C797.91,402.295 787.27,408.653 789.48,420.244 C792.27,434.917 811.35,437.897 815.45,453.632 C817.51,461.503 820.33,463.381 816.31,473.417 C811.94,484.354 801.86,487.943 809.14,500.084 C813.58,500.084 819.28,504.111 823.22,505.715 C828.04,507.678 833.8,508.677 839.6,509.012 C844.79,509.312 850.01,509.079 854.59,508.53 C856.63,508.285 862.04,508.922 863.84,507.725 C873.51,501.278 862.29,477.351 876.71,474.949 C879.68,474.454 883.09,476.351 885.96,476.96 C888.81,477.566 890.54,477.683 892.79,479.373 L888.43,442.816 Z" id="Path" fill="#282530" opacity="0.45"></path>
                <path d="M988.9,580.017 C988.9,580.017 972.99,574.822 960.71,563.99 C948.44,553.157 936.1,537.705 936.1,537.705 L915.75,520.222 C915.75,520.222 894.83,540.166 877.56,543.083 C874.4,588.216 874.51,632.859 874.51,632.859 C874.51,632.859 883.4,623.821 889.07,630.05 C894.74,636.278 928.81,683.28 928.81,683.28 C928.81,683.28 953.43,674.44 977.46,669.308 C1001.48,664.176 1022.74,662.957 1022.74,662.957 L1028.26,654.73 C1028.26,654.73 1058.45,640.176 1052.64,635.365 C1046.82,630.553 1031.35,638.201 1030.53,632.609 C1029.71,627.017 1049.86,616.997 1050.73,612.733 C1051.6,608.47 1036.99,616.269 1034.31,613.564 C1031.62,610.859 1041.33,604.148 1035.6,604.219 C1029.88,604.291 1021.61,613.578 1010.87,612.149 C1000.14,610.719 992.66,598.503 992.66,598.503 L988.9,580.017 Z" id="Path" fill="#282530" opacity="0.45"></path>
                <path d="M1016.54,594.907 C1016.54,589.055 1006.07,589.191 1002.12,580.346 C995.37,565.226 1000.79,563.11 1004.3,560.479 C1007.81,557.848 993.13,541.753 995.59,538.026 C1000.46,530.629 1017.37,548.536 1017.36,541.019 C1017.36,533.503 996.59,509.821 996.59,509.821 L1001.39,500.998 L998.92,469.035 C998.92,469.035 1016.18,463.841 1031.41,472.994 C1041.43,479.02 1041.24,482.372 1045.64,466.428 C1049.48,452.506 1038.21,380.276 1038.21,380.276 C1038.21,380.276 1028.93,369.794 1022.68,361.795 C1013.74,339.518 997.86,308.411 997.86,308.411 L958.33,278.297 C958.33,278.297 914.97,231.207 910.87,237.249 C906.93,243.064 922.43,256.623 915.14,254.523 C901.66,250.638 863.82,227.307 857.58,231.34 C851.33,235.373 893.69,263.238 894.14,271.086 C894.59,278.935 853.59,244.48 853.62,257.367 C853.65,270.253 905.98,324.134 904.29,331.742 C902.74,338.714 876.12,320.361 876.12,320.361 C876.12,320.361 898.88,346.165 887.3,341.075 C854.31,326.567 824.86,310.078 824.86,310.078 C824.86,310.078 815.38,315.502 861.67,346.44 C887.57,363.748 908.3,368.679 908.3,368.679 C908.3,368.679 901.76,378.937 914.23,390.423 C926.71,401.91 940.88,420.598 927.49,405.668 C917.25,394.249 890.35,414.143 886.86,444.731 C884.55,465.084 891.71,478.803 891.71,478.803 L908.83,511.573 L939.68,536.815 C939.68,536.815 928.77,534.216 959.94,563.745 C971.5,574.706 987.11,579.41 987.11,579.41 L996.68,592.321 C996.68,592.321 1016.54,598.71 1016.54,594.907 Z" id="Path" fill="#282530" opacity="0.2"></path>
                <path d="M679.72,921.63 L686.75,925.45 L670.84,951.82 C670.84,951.82 665.54,992.04 643.935,1015.11 C622.329,1038.17 604.389,1030.18 582.79,1043.74 C561.191,1057.29 549.152,1026.94 549.152,1026.94 L679.72,921.63 Z" id="Path" fill="#8C8994" opacity="0.3"></path>
                <path d="M688.66,884.59 C688.66,884.59 726.54,809.882 738.33,797.254 C750.13,784.626 758.23,808.453 747.39,832.518 C740.43,847.963 707.74,881.37 692.71,891.62 C692.72,893.01 688.66,884.59 688.66,884.59 Z" id="Path" fill="#8C8994" opacity="0.3"></path>
                <path d="M687.82,890.65 C677.1,892.44 666.5,898.4 664.95,907.81 C663.4,917.22 687.82,925.92 687.82,925.92 L699.26,927.82 L705.91,904.79 C705.91,904.79 735.71,917.44 737.84,914.63 C739.9,911.94 714.34,893.82 712.12,892.08 C707.6,888.55 698.54,888.87 687.82,890.65 Z" id="Path" fill="#8C8994" opacity="0.3"></path>
                <path d="M777.89,918.1 C777.89,918.1 781.55,944.4 761.82,948.18 C742.08,951.96 698.96,933.24 698.96,933.24 L707.19,905.8 L751.32,917.08 L777.89,918.1 Z" id="Path" fill="#8C8994" opacity="0.3"></path>
                <polygon id="Path" fill="#8C8994" opacity="0.3" points="626.874 772.607 646.55 867.45 656.72 855.514 676.84 842.912 685.02 843.133 698.06 831.637 657.38 805.77"></polygon>
            </g>
            <g id="Layer-6" transform="translate(0.000000, 680.000000)" stroke="#282530" stroke-linecap="round" stroke-linejoin="round">
                <path d="M1530.83,120.206 C1520.43,92.715 1462.95,31.893 1434.21,18.929" id="Path" stroke-width="8"></path>
                <path d="M1430.79,19.693 C1414.6,25.817 1430.8,19.8 1382.42,26.328 C1346.59,31.161 1310.55,35.346 1274.46,38.005 C1261.65,38.948 1226.7,40.044 1218.26,49.188" id="Path" stroke-width="8"></path>
                <path d="M1219.55,54.001 C1215.76,52.29 1213.47,31.389 1211.53,29.999 C1210.12,28.989 1207.35,32.113 1206.14,32.568 C1197.58,35.807 1185.35,35.264 1176.33,36.423 C1142.51,40.771 1107.8,34.695 1073.91,37.524" id="Path" stroke-width="8"></path>
                <path d="M1231.5,731.25 C1223.39,698.81 1229.43,636.32 1232.15,602.2 C1239.73,507.54 1254.88,413.49 1269.68,319.76 C1275.82,280.9 1278.61,242.12 1284.17,203.224 C1286.17,189.17 1290.42,172.163 1286.14,157.138 C1278.16,129.156 1264.49,127.432 1240.16,125.335 C1202.95,122.129 1165.98,126.986 1128.61,127.438 C1113.38,127.622 1098.35,130.044 1083.11,129.459 C1068.15,128.885 1059.01,128.475 1060.97,128.4 C1071.1,123.624 1079.91,116.236 1089.41,110.37 C1115.88,94.038 1127.07,88.157 1154.18,72.939 C1165.15,66.779 1193.73,43.767 1212.23,31.415" id="Path" stroke-width="8"></path>
                <path d="M962.87,112.536 C962.87,142.581 975.95,237.41 977.02,267.48 C979.39,333.75 995.47,399.12 1009.48,463.55 C1028.42,550.71 1069.89,631.27 1094.26,716.58" id="Path" stroke-width="8"></path>
                <path d="M544.427,329.22 C532.746,346.74 499.309,371.29 484.635,385.96 C464.172,406.43 448.698,432.9 437.029,459.16" id="Path" stroke-width="8"></path>
                <path d="M437.36,459.81 C439.961,472.79 440.763,480.97 440.599,484.75 C439.485,510.38 440.855,534.91 444.169,560.32 C449.896,604.23 462.267,648.5 473.923,691.24 C481.141,717.71 489.768,741.52 482.85,769.2" id="Path" stroke-width="8"></path>
                <path d="M443.838,441.68 C435.545,433.75 421.297,446.8 414.295,454.12 C412.262,456.24 404.328,462.05 405.529,465.41" id="Path" stroke-width="8"></path>
                <path d="M407.669,468.13 C380.835,442.45 358.984,469.79 339.361,483.5" id="Path" stroke-width="8"></path>
                <path d="M295.008,93.527 C301.121,108.807 293.85,131.813 293.057,147.667 C290.275,203.325 273.856,258.01 257.939,311.06 C253.483,325.92 242.68,374.84 236.478,376.91 C250.135,404.22 235.662,411.51 238.429,436.42 C239.64,447.31 247.739,453.51 246.721,464.71 C245.956,473.12 243.45,488.68 239.726,494.59 C242.466,488.8 253.111,487.14 258.579,484.82 C276.536,477.17 292.434,470.42 310.986,464.41 C317.196,462.4 332.853,456.37 339.28,458.24 C350.388,461.48 347.826,465.18 352.798,472.39" id="Path" stroke-width="8"></path>
                <path d="M37.142,76.087 C25.291,111.641 21.255,147.849 23.331,185.224 C24.436,205.113 29.378,227.916 26.746,247.66 C23.007,275.7 13.588,302.73 6.748,330.09 C-4.45,374.88 11.833,406.64 5.05,452.43 C-8.64,544.83 11.289,594.29 23.621,686.78" id="Path" stroke-width="8"></path>
                <path d="M156.649,59.29 C160.595,55.739 157.847,58.415 143.26,59.083 C135.984,59.416 128.542,60.543 121.3,61.404 C95.878,64.424 61.682,66.476 37.502,75.368" id="Path" stroke-width="8"></path>
                <path d="M36.783,75.368 C36.53,79.776 38.431,71.569 51.959,87.043 C61.258,97.68 83.78,104.216 97,108.269 C160.118,127.619 234.725,109.454 294.715,85.9" id="Path" stroke-width="8"></path>
                <path d="M927.72,0.799 C925.12,4.897 909.42,14.156 904.27,19.322 C883.58,40.07 856.06,67.718 840.31,92.527" id="Path" stroke-width="8"></path>
                <path d="M686.515,733.05 C671.761,681.26 663.672,635.65 658.353,581.37 C662.917,563.84 687.981,489.47 694.147,479.2" id="Path" stroke-width="8"></path>
                <path d="M845.71,411.51 C840.5,436.18 807.94,469.82 795.75,483.02 C761.81,519.79 667.701,598.16 662.222,600.9" id="Path" stroke-width="6"></path>
            </g>
            <g id="Layer-7" transform="translate(542.000000, 428.000000)" fill="#282530">
                <path d="M10.319,46.08 C10.319,46.08 18.193,56.059 14.553,59.005 C8.128,64.206 2.748,53.405 2.748,53.405 L0.061,59.774 C0.061,59.774 4.643,71.332 12.53,70.445 C20.417,69.558 27.324,63.419 27.645,56.447 C27.966,49.474 17.295,43.417 17.295,43.417 L10.319,46.08 Z" id="Path"></path>
                <path d="M143.989,3.408 C143.989,3.408 153.148,13.312 147.861,17.556 C141.415,22.731 134.282,10.865 134.282,10.865 L131.595,17.234 C131.595,17.234 136.177,28.792 144.064,27.905 C151.95,27.018 158.86,20.88 159.18,13.907 C159.5,6.935 148.829,0.877 148.829,0.877 L143.989,3.408 Z" id="Path"></path>
            </g>
            <g id="Layer-1" transform="translate(142.000000, 285.000000)" stroke="#282530" stroke-linecap="round" stroke-linejoin="round">
                <path d="M766.22,297.053 C768.85,301.002 774.09,308.835 778.71,310.376 C792.3,314.908 809.4,302.67 816.66,291.059" id="Path" stroke-width="8"></path>
                <path d="M777.3,312.664 C777.3,317.62 775.47,336.341 775.92,352.754 C776.56,376.582 776.27,399.653 774.26,403.674" id="Path" stroke-width="8"></path>
                <path d="M689.17,61.213 C689.17,61.213 670.21,42.633 662.65,33.761 C653.32,22.815 645.4,10.31 632.01,3.735 C623.12,-0.628 598.65,0.37 588.91,0.217 C559.32,-0.249 529.517,0.432 500.051,3.551 C478.882,5.791 456.168,8.504 435.955,15.034 C420.214,20.12 410.154,28.987 399.582,41.712 C391.559,51.369 385.918,63.632 381.127,75.267 C370.134,101.963 368.859,139.776 368.886,162.886 C368.616,174.824 370.593,186.232 371.745,194.87 C374.445,215.125 381.789,234.782 383.07,255.269 C383.903,268.605 386.319,313.792 387.227,321.284 C389.163,337.255 392.007,353.247 397.108,368.549 C411.24,410.946 433.82,452.734 464.667,485.509 C475.791,497.329 480.908,502.197 493.78,512.208 C495.146,513.992 510.672,525.062 522.976,537.053 C539.191,552.856 553.678,570.909 561.18,577.885 C571.87,587.827 586.36,592.205 597.68,601.215" id="Path" stroke-width="8"></path>
                <path d="M145.91,483.659 C144.783,486.323 150.52,476.099 153.201,473.54 C159.887,467.155 170.045,462.655 178.296,458.67 C197.837,449.232 243.714,431.009 253.43,419.699" id="Path" stroke-width="8"></path>
                <path d="M253.008,418.926 C258.256,419.475 262.161,419.218 265.952,418.207 C273.373,416.227 281.448,413.275 288.166,409.555 C304.28,400.632 318.279,388.763 334.05,379.33 C340.979,375.185 348.377,373.467 355.574,370.135 C364.238,366.124 382.858,360.072 392.761,362.109" id="Path" stroke-width="8"></path>
                <path d="M384.649,319.133 C374.404,315.718 363.417,315.636 353.517,318.12" id="Path" stroke-width="8"></path>
                <path d="M0.055,508.889 C12.906,449.957 45.511,396.609 77.499,347.082 C100.593,311.327 120.584,272.293 147.172,239.303 C155.972,226.909 163.049,221.011 174.255,215.408 C190.295,211.034 220.576,195.563 233.971,187.058 C249.032,177.496 268.908,164.512 283.947,153.896 C296.038,148.588 307.798,145.3 319.824,147.535 C330.07,149.439 340.928,156.69 349.362,162.392 C353.5,165.19 363.855,171.954 368.08,174.628" id="Path" stroke-width="8"></path>
                <path d="M590.81,316.625 C578.37,303.41 565.65,290.553 552.96,277.533 C547.755,272.194 541.881,264.124 534.928,261.012" id="Path" stroke-width="6"></path>
                <path d="M592.83,203.29 C587.62,202.163 577.33,206.423 572.13,208.145 C560.94,211.85 549.365,213.196 537.632,213.208" id="Path" stroke-width="6"></path>
                <path d="M577.67,353.506 C573.47,356.198 569.74,357.62 568,357.992 C557.24,360.293 546.327,359.577 535.559,361.451 C525.65,363.176 516.736,368.07 506.956,370.195 C497.212,372.312 487.33,372.899 478.46,377.463 C471.579,381.003 466.517,388.084 460.766,393.054" id="Path" stroke-width="6"></path>
                <path d="M544.573,380.444 C533.862,392.396 511.918,394.741 497.226,397.893" id="Path" stroke-width="6"></path>
                <path d="M565.64,334.973 C562.05,335.968 557.96,335.095 554.31,334.691" id="Path" stroke-width="6"></path>
                <path d="M511.61,283.956 C510.046,281.939 502.807,282.572 500.41,282.584 C489.746,282.639 477.327,284.832 468.42,290.94" id="Path" stroke-width="6"></path>
                <path d="M471.205,145.572 C467.472,155.278 466.194,159.092 465.481,169.962 C464.485,185.144 465.73,186.637 466.974,199.827" id="Path" stroke-width="6"></path>
                <path d="M524.255,255.48 C516.412,255.48 510.485,248.714 505.384,243.613" id="Path" stroke-width="6"></path>
                <path d="M448.961,302.195 C460.869,311.835 477.303,305.016 489.989,302.385 C504.025,299.475 520.661,294.257 525.439,283.128 C527.661,277.951 526.968,272.036 521.419,265.772 C519.359,263.447 516.019,261.999 514.219,260.742" id="Path" stroke-width="6"></path>
                <path d="M445.564,162.751 C443.264,184.413 442.033,183.045 439.046,198.599 C437.228,208.068 435.599,236.783 434.637,246.331 C433.122,261.368 431.009,268.77 428.973,283.673 C425.891,309.602 442.769,309.602 450.661,311.666" id="Path" stroke-width="6"></path>
                <path d="M437.77,159.926 C437.591,157.222 433.833,156.805 431.91,156.663 C425.902,156.219 418.099,156.176 412.355,158.16" id="Path" stroke-width="6"></path>
                <path d="M430.38,171.638 C420.137,168.962 399.428,169.511 392.741,179.779" id="Path" stroke-width="6"></path>
                <path d="M397.011,165.087 C394.809,165.233 394.494,168.342 393.608,169.828 C390.357,175.274 384.493,179.73 381.756,185.355" id="Path" stroke-width="6"></path>
                <path d="M577.05,133.353 C572.61,131.122 568.65,130.001 565.16,129.562 C554.15,128.175 543.245,128.418 533.059,133.378" id="Path" stroke-width="6"></path>
                <path d="M622.46,124.043 C618.64,115.247 603.93,111.31 595.97,108.36 C572.24,99.565 544.71,98.758 520.039,102.931 C512.697,104.172 507.171,105.306 497.016,112.474" id="Path" stroke-width="8"></path>
                <path d="M426.164,131.122 C422.435,133.717 417.06,134.396 412.989,136.501 C403.525,141.396 392.413,147.687 385.01,155.395" id="Path" stroke-width="8"></path>
                <path d="M579.56,157.961 C577.6,151.891 571.18,148.788 565.6,146.814 C556.23,143.495 539.81,142.392 531.078,148.816 C521.43,155.914 517.496,165.482 509.034,173.944" id="Path" stroke-width="6"></path>
                <path d="M584.67,161.106 C585.14,160.719 575.58,165.702 574.16,166.635 C570.15,169.27 562.05,171.553 557.65,173.427 C545.762,178.486 522.208,178.581 509.781,175.189" id="Path" stroke-width="6"></path>
                <path d="M552.416,144.332 C558.73,145.99 562.59,155.456 559.78,161.338 C557.17,166.806 551.72,170.599 545.648,170.994 C537.663,171.514 530.412,162.762 531.392,155.048 C531.895,151.089 534.801,147.532 538.039,145.522" id="Path" stroke-width="6"></path>
                <path d="M581.07,177.968 C574.99,181.561 568.17,183.029 565.32,183.773 C556.53,186.062 551.771,187.643 541.82,188.748" id="Path" stroke-width="6"></path>
                <path d="M543.39,416.196 C540.776,419.257 528.481,429.522 524.207,432.962" id="Path" stroke-width="6"></path>
                <path d="M651.47,472.895 C648.62,479.273 642.33,492.895 638.47,498.314" id="Path" stroke-width="8"></path>
                <path d="M585.14,497.789 C554.52,503.771 528.169,518.134 496.249,512.853" id="Path" stroke-width="8"></path>
                <path d="M605.84,406.794 C607.66,410.333 607.14,416.545 607.14,416.545 C607.14,416.545 603.2,436.558 599.4,446.451" id="Path" stroke-width="6"></path>
                <path d="M438.663,192.656 C430.228,188.63 425.357,187.289 420.835,187.289 C414.576,187.289 409.469,189.046 403.756,191.503 C395.723,194.956 390.917,202.433 388.852,205.53" id="Path" stroke-width="6"></path>
                <path d="M437.704,208.758 C430.228,216.618 426.011,218.535 421.985,219.493 C412.55,221.74 403.651,220.845 391.506,219.11" id="Path" stroke-width="6"></path>
                <path d="M419.877,187.48 C429.27,189.205 430.353,203.465 424.779,209.332 C416.935,217.589 401.083,212.24 400.516,200.899 C400.324,197.065 401.666,194.956 404.349,191.314" id="Path" stroke-width="6"></path>
                <path d="M484.065,358.795 C478.583,367.932 466.821,372.195 460.224,380.992" id="Path" stroke-width="6"></path>
                <path d="M543.464,347.285 C532.641,347.285 522.666,348.687 512.018,349.751" id="Path" stroke-width="6"></path>
                <path d="M581.53,343.603 C585.59,346.309 586.55,351.691 585.06,356.145" id="Path" stroke-width="6"></path>
                <path d="M480.121,294.683 C479.573,297.428 468.446,298.002 465.676,298.428" id="Path" stroke-width="6"></path>
                <path d="M452.232,448.365 C458.09,465.939 466.96,478.626 475.315,495.336" id="Path" stroke-width="6"></path>
            </g>
            <g id="Layer-3" transform="translate(222.000000, 462.000000)" stroke="#282530" stroke-linecap="round" stroke-linejoin="round" stroke-width="6">
                <path d="M181.462,13.883 C186.461,11.275 196.913,6.594 207.459,3.795 C217.083,1.242 226.928,0.424 229.927,0.815 C241.301,2.3 252.041,13.991 256.765,23.045" id="Path"></path>
                <path d="M206.309,168.319 C208.738,186.357 226.348,195.655 236.024,187.187 C243.639,180.525 247.297,147.634 247.433,143.973 C247.812,133.725 247.087,123.443 247.087,113.204 C245.832,107.981 246.88,101.77 245.569,96.319 C242.847,84.997 237.673,74.805 233.01,64.201 C229.904,57.14 225.086,50.069 217.641,47.029 C206.776,42.593 192.73,43.202 181.204,42.839 C179.077,42.772 161.829,42.911 165.957,42.839" id="Path"></path>
                <path d="M246.179,162.587 C258.517,169.657 261.552,162.634 264.955,156.176 C267.326,151.678 269.772,145.603 271.049,143.049 C273.105,138.936 275.85,125.316 276.736,120.885 C284.001,84.56 273.238,55.752 257.191,23.659 C260.112,25.738 273.474,34.639 281.646,40.362 C285.537,43.088 291.143,47.535 297.836,49.448" id="Path"></path>
                <path d="M137.89,77.413 C147.145,86.668 156.324,96.092 166.232,104.679 C168.946,107.03 176.225,109.213 176.457,109.522 C177.366,110.734 177.183,112.434 177.354,115.8 C177.354,127.57 178.225,145.428 186.515,154.693 C193.47,162.466 207.566,169.011 214.691,158.323 C217.507,154.1 215.458,145.849 215.037,141.21 C214.116,131.079 216.247,121.071 216.247,110.96 C212.304,98.783 207.586,91.521 204.102,85.664 C195.939,71.936 188.529,59.976 176.272,49.882 C171.646,46.072 167.675,43.66 158.045,43.863 C148.868,45.907 145.124,49.492 139.722,53.543" id="Path"></path>
                <path d="M116.846,117.931 C104.89,117.931 92.1,123.458 80.473,118.808" id="Path"></path>
                <path d="M209.749,193.525 C201.53,189.789 193.295,186.016 184.77,183.008 C172.551,178.695 153.32,174.394 135.657,182.701 C124.802,187.806 111.667,205.214 109.615,207.986" id="Path"></path>
                <path d="M148.129,91.548 C144.962,97.882 124.808,104.782 122.298,108.61" id="Path"></path>
                <path d="M44.885,284.77 C37.585,281.913 12.455,261.963 0.94,256.205" id="Path"></path>
                <path d="M97.253,220.683 C91.61,228.207 95.429,238.648 97.985,246.318" id="Path"></path>
            </g>
            <g id="Layer-2" transform="translate(540.000000, 282.000000)" stroke="#282530" stroke-linecap="round" stroke-linejoin="round">
                <path d="M298.1,61.334 C290.66,63.817 281.55,80.709 285.03,88.078 C289.52,97.575 299.39,105.684 302.13,115.827 C303.67,121.556 299.79,128.035 302.33,133.522 C306.18,141.881 315.31,147.256 317.81,156.647 C319.29,162.186 313.34,166.01 309.77,168.913 C301.91,175.295 291.27,181.653 293.48,193.244 C296.27,207.917 315.35,210.897 319.45,226.632 C321.51,234.503 324.33,236.381 320.31,246.417 C315.94,257.354 305.86,260.943 313.14,273.084 C317.58,273.084 323.28,277.111 327.22,278.715 C332.04,280.678 337.8,281.677 343.6,282.012 C348.79,282.312 354.01,282.079 358.59,281.53 C360.63,281.285 366.04,281.922 367.84,280.725 C377.51,274.278 366.29,250.351 380.71,247.949 C383.68,247.454 392.24,250.696 395.11,251.305" id="Path" stroke-width="6"></path>
                <path d="M440.59,258.236 C446.22,269.492 453.74,279.808 461.64,289.816 C463.18,291.76 480.19,305.983 474.92,303.35 C465.6,298.69 441.73,288.715 434.11,283.999 C434.11,290.819 438.92,298.129 441.88,304.05 C442.25,304.79 446.89,311.328 446.4,312.321 C446.24,312.621 442.2,310.096 442.13,310.065 C436.23,307.111 431.19,301.413 426.34,297.032 C408.36,280.756 396.5,262.178 392.76,237.883 C390.32,222.049 389.34,204.964 400.03,191.767 C403.51,187.47 407.44,182.631 411.81,179.235 C412.6,178.615 423.52,171.001 423.52,171.976" id="Path" stroke-width="6"></path>
                <path d="M503.81,244.708 C509.83,256.467 504.57,268.369 505.65,275.326 C505.94,277.219 499.96,279.437 503.6,286.778 C505.39,290.397 522.51,313.201 521.95,315.068 C520.44,320.171 504.18,306.521 500.73,310.792 C495.36,317.434 509.74,328.005 510.3,333.288 C510.41,334.289 507.47,334.023 506.89,334.304 C505.52,334.963 502.84,337.491 502.14,338.857 C496.73,349.464 518.94,365.263 525.02,368.561 C506.15,369.512 500.18,372.01 491.47,353.935 C494.62,369.482 502.36,386.365 516.36,386 C519.92,385.907 523.88,384.906 528.26,382.796 C536.5,378.828 543.87,371.344 544.58,371.657 C546.18,372.358 542.18,374.213 541.22,375.672 C540.31,377.06 535.73,385.551 537.46,387.632 C538.91,389.376 556.89,380.507 555.33,384.949 C553.68,389.663 531.14,400.995 533.55,404.899 C538.58,413.073 556.73,403.103 556.99,406.719 C557.53,413.991 528.75,430.222 520.15,436.245" id="Path" stroke-width="6"></path>
                <path d="M542.17,152.877 C539.74,179.335 561.68,265.564 536.98,245.611 C518.67,232.653 502.77,246.963 497.82,241.018" id="Path" stroke-width="6"></path>
                <path d="M542.77,152.953 C524.14,143.636 519.81,107.082 509.98,90.692 C503.82,80.422 487.19,70.282 478.13,62.175 C473.66,58.173 469.22,54.312 464.35,50.768 C463.44,50.109 461.97,48.392 461.97,48.392 C461.97,48.392 463.19,50.329 463.88,51.243 C466.3,54.474 463.79,53.892 461.97,51.719 C451.55,39.207 442.78,28.394 430.13,17.974 C427.05,15.44 419.79,6.987 414.92,9.419" id="Path" stroke-width="6"></path>
                <path d="M413.02,11.795 C415.34,16.432 423.25,21.015 422.05,27.004 C421.48,29.837 411.06,23.716 409.69,23.202 C397.31,18.556 385.33,11.949 373.1,6.567 C371.96,6.065 359.31,-1.038 357.41,0.389 C355.49,1.83 366.63,10.633 367.39,11.32 C377.98,20.9 388.43,30.437 398.29,40.787 C399.49,42.047 407.79,49.112 407.79,51.243 C407.79,52.874 404.9,49.731 403.52,48.867 C400.38,46.909 397.25,44.944 394.01,43.164 C389.32,40.582 358.23,24.559 356.46,29.856 C355.03,34.145 363.47,42.152 365.97,45.065 C377.58,58.608 388.89,71.611 398.76,86.414 C400.17,88.532 411.14,103.027 409.22,104.95 C403.45,110.723 380.3,93.957 376.42,88.79" id="Path" stroke-width="6"></path>
                <path d="M378.19,90.828 C387.29,104.484 397.98,116.096 403.04,119.208 C410.97,124.087 412.58,124.946 412.07,124.436 C408.3,120.665 365.32,101.534 356.94,97.345 C352.74,95.247 323.05,79.651 323.05,79.651 C323.05,79.651 349.2,110.333 359.31,116.832 C369.55,123.414 379.46,131.47 391.16,135.368 C395.75,136.898 400.26,138.844 404.94,140.121 C405.55,140.288 413.5,141.11 413.5,141.546 C413.5,141.601 411.11,148.445 415.32,157.725 C419.63,167.222 430.57,179.203 434.61,183.248" id="Path" stroke-width="6"></path>
                <path d="M480.17,351.983 C472.44,341.243 458.25,334.484 448.67,325.56" id="Path" stroke-width="6"></path>
                <path d="M388.57,399.635 C400.1,411.491 421.67,439.939 432.45,456.109 C432.45,453.352 436.91,470.451 436.65,473.073 C435.66,483.006 436.28,490.17 435,500.077 C437.15,496.687 404.03,527.53 395.51,535.47 C368.88,560.285 335.5,593.969 305.25,614.68" id="Path" stroke-width="8"></path>
                <path d="M547.62,435.476 C508.47,435.476 473.34,443.84 436.53,456.109" id="Path" stroke-width="6"></path>
                <path d="M33.634,323.756 C30.238,323.756 25.734,340.777 24.381,344.023" id="Path" stroke-width="6"></path>
                <path d="M21.352,230.905 C19.063,230.905 5.652,241.702 0.843,244.106" id="Path" stroke-width="6"></path>
                <path d="M23.238,249.292 C23.238,252.333 23.301,249.618 20.174,256.836" id="Path" stroke-width="6"></path>
            </g>
            <g id="Layer-4" transform="translate(420.000000, 0.000000)" stroke="#282530" stroke-linecap="round" stroke-linejoin="round" stroke-width="8">
                <path d="M22.97,428.147 C19.94,426.451 18.234,422.024 16.392,419.213 C10.345,409.988 6.609,402.067 4.166,391.363 C-3.478,357.866 1.642,315.053 22.684,286.718 C27.849,279.764 31.651,274.899 39.824,266.649 C43.502,262.937 74.961,231.514 117.508,209.99 C157.776,189.62 208.691,179.586 242.899,172.999 C276.85,166.462 317.23,162.006 350.11,165.45 C383.34,166.046 429.48,180.385 457.46,196.122 C510.35,225.87 525.09,243.552 553.57,277.097 C567.15,293.09 587.36,321.536 592.87,339.899" id="Path"></path>
                <path d="M113.91,208.577 C115.642,183.06 116.602,157.918 121.176,132.657 C122.016,128.014 123.578,118.168 127.232,106.732 C133.93,97.802 149.221,76.278 156.855,68.041 C174.868,48.606 192.477,35.259 216.402,23.91 C239.979,12.7258 268.393,1.844 298.02,0.635 C331,-0.7115 357.88,3.4504 389.04,14.6983 C394.95,16.828 429.36,34.346 459.42,58.747 C482.75,77.69 502.13,102.342 511.95,117.192 C519.58,128.743 532.82,148.017 529.85,162.539 C528.08,183.881 522.16,215.805 516.86,236.746" id="Path"></path>
                <path d="M486.04,297.731 C427.3,266.879 322.8,263.568 258.639,276.242" id="Path"></path>
            </g>
            <g id="Layer-5" transform="translate(523.000000, 764.000000)" stroke="#282530" stroke-linecap="round" stroke-linejoin="round">
                <path d="M181.44,397.77 C169.141,391.62 156.217,398.25 144.288,395.27 C139.58,394.09 135.191,386.79 130.713,384.55 C117.954,378.17 105.116,370.61 92.488,363.47 C86.722,360.21 62.756,352.81 59.622,348.11 C58.116,345.85 59.979,340.49 59.979,337.39 C55.543,324.09 41.718,308.44 36.296,295.19 C34.616,291.08 33.299,286.8 31.652,282.68 C26.462,269.71 20.632,236.4 17.016,222.84 C8.957,192.62 0.406,152.86 0.406,121.77 C37.212,121.77 80.224,127.597 114.936,139.168 C128.183,143.583 151.337,153.13 165.523,154.54 C165.523,147.465 155.526,115.943 152.099,93.407 C148.045,66.75 148.777,75.069 145.476,60.498" id="Path" stroke-width="8"></path>
                <path d="M181.08,396.34 C181.08,383.01 196.89,354.59 203.95,342.4 C205.29,340.08 212.88,331.56 212.88,331.32 C212.88,321.27 210.24,311.23 211.45,300.96 C212.87,288.92 223.47,276.82 227.26,265.46" id="Path" stroke-width="8"></path>
                <path d="M318.62,160.2 C330.87,166.32 344.32,173.36 355.06,181.99 C357.88,184.26 358.06,193.94 365.58,193.94 C369.53,199.87 366.65,212.64 366.65,220.02 C365.38,217.47 370.36,229.08 371.65,231.09 C376.99,239.39 383.11,249.92 393.09,253.24 C367.14,261.89 346.58,319.11 346.29,319.69 C346.16,319.94 331.88,320.15 326.28,321.83 C304.43,328.39 309.84,331.48 295.2,346.12 C284.73,343.13 270.35,343.79 260.19,347.55 C255.79,349.19 244.51,357.75 239.47,356.48 C235.13,355.4 246.7,335.37 245.55,330.76 C243.96,324.43 229.83,325.77 226.97,321.47 C226.7,321.07 228.4,311.3 228.4,310.76 C228.4,295.77 225.47,280.6 227.33,265.75" id="Path" stroke-width="8"></path>
                <path d="M221.26,125.599 C220.67,120.813 222.9,117.533 223.53,112.876 C226.44,91.194 234.28,68.387 251.73,53.897 C257.79,48.863 262.88,44.047 268.34,38.46 C269.8,36.968 293.45,11.874 303.56,2.875 C305.56,1.087 309.79,-0.578 312.56,0.815 C313.49,1.283 317.03,8.552 316.89,7.434 C317.48,12.555 317.19,14.565 315.71,19.645 C313.19,28.289 307.28,38.814 306.45,42.885 C309.48,67.6 329.23,95.18 324.49,119.815 C322.71,129.043 321.45,138.348 319.59,147.54 C319.31,148.902 317.1,157.89 316.62,157.16" id="Path" stroke-width="8"></path>
                <path d="M221.8,217.76 C190.24,221.62 177.34,184.43 173.91,156.44" id="Path" stroke-width="6"></path>
                <path d="M180.42,202.62 C172.281,197.6 164.986,186.91 163.316,177.59 C162.814,174.79 162.76,169.72 165.863,164.52 C167.183,162.3 169.351,158.25 173.68,156.04 C171.371,144.72 195.69,128.365 205.35,134.563 C210.89,131.273 217.92,126.027 219.13,125.537" id="Path" stroke-width="6"></path>
                <path d="M162.244,180.84 C171.152,183.31 115.857,161.71 98.02,154.22 C84.588,148.585 37.679,143.411 29.056,144.467" id="Path" stroke-width="6"></path>
                <path d="M198.16,213.49 C168.114,233.41 125.601,269.44 99.242,294.03 C92.684,300.15 85.615,305.68 79.082,311.82 C77.864,312.96 72.383,317.04 72.621,318.99" id="Path" stroke-width="6"></path>
                <path d="M207.06,217.64 C205.88,230.4 195.49,230.11 192.52,242.87" id="Path" stroke-width="6"></path>
                <path d="M122.623,339.04 C130.476,328.99 145.179,323.24 154.781,314.99 C167.546,304.03 184.96,259.49 176.85,242.41 C184,243.29 197.71,245.06 204.53,244.23" id="Path" stroke-width="6"></path>
                <path d="M226.74,196.41 C220.7,219.22 221.56,244.09 227.7,266.81" id="Path" stroke-width="6"></path>
                <path d="M317.81,163.88 C307.68,177.39 310.89,171.57 305.94,196.92 C302.84,212.77 300.75,210.5 274.09,207.84 C262.84,206.72 233.82,203.5 227.37,193.78 C204.63,176 199.76,163.98 203.39,134.671" id="Path" stroke-width="6"></path>
                <path d="M363.22,195.41 C350.86,203.95 335.74,222.06 331.25,226.37 C312.78,244.11 261.12,302.37 252.06,312.02" id="Path" stroke-width="6"></path>
                <path d="M237.69,168.58 C231.41,161.28 234.75,143.666 241.93,138.066 C245.56,135.235 249.13,141.933 251.99,136.833 C256.38,129.01 258.91,120.427 263.72,112.74 C266.89,107.67 270.59,102.949 274.05,98.073 C275.56,95.941 278.56,92.473 280.32,90.543" id="Path" stroke-width="6"></path>
            </g>
        </g>
    </g>
</svg>